<?xml version="1.0" encoding="UTF-8"?>
<svg id="Ebene_2" data-name="Ebene 2" xmlns="http://www.w3.org/2000/svg" viewBox="0 0 99.41 99.52">
  <defs>
    <style>
      .cls-1 {
        stroke: #ff6b35;
        stroke-linecap: round;
        stroke-linejoin: round;
      }

      .cls-1, .cls-2 {
        fill: #ff6b35;
      }
    </style>
  </defs>
  <g id="Ebene_1-2" data-name="Ebene 1">
    <g>
      <g>
        <path class="cls-1" d="M84.13,11.8c1.25-1.34,2.88-2.81,4.96-4.17,.77-.5,1.52-.93,2.24-1.31-.75,2.95-1.51,5.91-2.26,8.86-.84,1.2-2.02,2.62-3.62,4.03-1.07,.94-2.12,1.68-3.06,2.26,.58-3.22,1.16-6.45,1.74-9.67h0Z"/>
        <path class="cls-1" d="M74.52,17.42c-.66-1.32-1.32-2.98-1.75-4.93-.16-.72-.28-1.42-.36-2.07,2.02,1.41,4.05,2.81,6.07,4.22,.67,.98,1.42,2.27,2.02,3.88,.41,1.08,.67,2.08,.84,2.95-2.28-1.35-4.55-2.7-6.83-4.05h0Z"/>
      </g>
      <path class="cls-2" d="M15.32,85.63c.57-4.45-.03-9.76,.09-15.07,.03-1.3-.7-2.07-2.21-2.82-7.3-3.61-10.79-8.6-12.07-14.42-.34-1.53-1.33-2.97-1.09-4.58,.94-6.16,2.6-12.2,8.19-17.39,1.7-1.58,3.85-3.08,7.45-2.27,.73,.16,1.15-.11,1.25-.59,.11-.52,.32-1.03,.47-1.53,1.51-4.94,7.69-4.65,13.12-5,4.71-.31,9.42-.57,14.1-1.08,.83-.09,1.51-.04,1.35-.91-.58-3.11-1.8-6.21-.75-9.38,.18-.55-.29-.9-1.03-1.07-.37-.09-.8-.05-1.21-.07-5.75-.42-7.37-2.94-3.88-6.09C41.42,1.26,44.77,.28,48.57,.02c3.12-.21,5.68,.95,6.65,2.75,1.04,1.92,.05,5-2.52,5.62-4.46,1.07-4.53,3.14-4.44,5.66,.07,1.82,.82,3.55,.92,5.34,.06,1.01,.95,.69,1.87,.65,5.65-.29,11.24-.32,16.78,.81,4.53,.93,7.28,2.76,8.14,5.76,.27,.93,.75,1,2.01,.88,5.17-.52,10.37-.93,15.54-1.44,2.27-.22,3.73,.89,5.52,1.41,.65,.19,.37,1.02-.34,1.69-3.03,2.87-6.49,5.37-11.42,6.83-4.32,1.28-5.07,4.03-5.65,6.55-1.46,6.35-1.95,12.77-1.75,19.2,.14,4.57,.62,9.15,1.05,13.7,.32,3.44,.13,6.88,.65,10.3,.36,2.36,.99,4.65,.19,7.04-.5,1.5-1.75,2.58-3.73,2.86-2.58,.37-5.25,1.19-8,.36-4.32-1.3-8.42,.19-12.59,.5-6.59,.49-13.19,1.07-19.66,2-3.69,.53-7.41,.15-11.08,.87-4.67,.91-9.87-2-10.68-5.13-.66-2.59-.57-5.15-.72-8.59Zm3.62-5.55c.55,4.31-.66,8.72,.79,13.09,.92,2.76,1.64,3.15,5.97,3.32,7.38,.28,14.46-1.06,21.69-1.57,9.49-.66,18.74-2.19,28.06-3.47,2.04-.28,2.49-.93,2.54-2.2,.29-6.8-1.08-13.57-.81-20.36,.02-.4-.08-.8-.19-1.19-.17-.6-.75-.88-1.7-.93-7.46-.43-14.71,.34-21.87,1.65-1.4,.26-1.91,.79-1.53,1.6,.87,1.84,.42,3.71,.52,5.56,.14,2.52,.39,2.77,4.22,2.74,3.76-.03,7.48,.17,11.16,.62,1.15,.14,2.64,.47,2.44,1.46-.16,.8-1.54,1.05-2.67,1.04-2.53,0-5.08-.02-7.6-.2-5.58-.41-11.15,.07-16.74-.07-5.42-.14-10.88,.51-16.32,.81-.3,.02-.61,0-.91,0-.98,0-1.9-.13-2.04-.9-.17-.86,.77-1.16,1.83-1.32,.89-.13,1.8-.2,2.7-.32,5.78-.76,11.7-.57,17.52-1.08,1.3-.11,2.56-.13,2.54-1.24-.04-2.45,.54-4.92-.71-7.34-.41-.79-.92-1.19-2.23-1.35-3.38-.41-6.75-.79-10.08-1.4-5.04-.93-10.16-1.38-15.06,.52-1.06,.41-1.61,.77-1.58,1.68,.12,3.6,.05,7.2,.05,10.87Zm-.25-14.91c2.85-.48,5.44-1.28,8.46-1.43,6.42-.31,12.13,1.74,18.37,1.89,1.26,.03,2.18,.4,2.18-.78,0-4.18,.54-8.4-.14-12.54-1-6.07-.06-12.17-1.39-18.21-.26-1.16,.64-2.44-.56-3.48-1.38-1.2-2.98,.05-4.49,.03-7.68-.09-15.36,0-23.04-.01-1.36,0-2.1,.2-2.08,1.2,.08,4.19-.41,8.42,.34,12.55,.51,2.82,.18,5.66,.98,8.47,1.13,4.02-.76,8.22,1.37,12.31ZM94.21,28.47c-3.75,.12-7.06,.44-10.25,.73-6.85,.64-13.69,1.17-20.6,1.32-4.13,.09-8.26,.08-12.38,.04-1.32-.01-1.96,.24-1.73,1.13,.78,3.01,.7,6.06,.72,9.1,.01,1.96-.28,3.96,.15,5.88,1.25,5.66,.16,11.35,.83,17,.13,1.06-.41,2.38,2.64,1.75,2.55-.52,5.28-.7,7.94-.97,3.86-.39,7.68-1.11,11.65-.18,2.08,.49,3.17-.11,2.99-1.7-.61-5.31,.7-10.59,.78-15.89,.02-1.37,.02-2.94,1.01-4.05,1.23-1.38-.99-2.44,0-3.61,1.37-1.63,2.83-3.14,5.31-4.24,3.84-1.71,8.38-2.92,10.94-6.31ZM12,32.9c-9.58,6-11.42,24.49,2.57,32.13,0-.8,.16-1.54-.03-2.24-1.63-6.11-.07-12.31-1.45-18.44-.84-3.75,.63-7.65-1.1-11.45Zm49-4.93c2.84,0,5.68,.01,8.52,0,.98,0,2.17,.18,2.63-.64,.44-.78-.17-1.44-1-1.97-.65-.41-1.35-.84-2.16-1.08-5.63-1.69-11.61-1.84-17.59-1.32-3.41,.29-1.84,2.29-2.06,3.59-.23,1.34,1.29,1.43,2.83,1.43,2.94-.01,5.88,0,8.82,0Zm-31.41,.49c3.9,.34,8.49-.47,13.15-.49,2.96-.01,4.69-2.11,3.26-3.87-.28-.34-.65-.45-1.21-.41-6.52,.44-13.05,.81-19.55,1.33-1.84,.15-3.29,.99-4.25,2.09-.77,.88-.56,1.37,1.13,1.36,2.23,0,4.46,0,7.48,0ZM47.43,6.25c2.57,.33,3.88-.27,4.35-1.53,.42-1.11-.65-1.73-2.15-2.04-2.2-.46-6.24,.65-7.45,1.94-.89,.95-.36,1.37,1.02,1.8,1.67,.52,3.16-.27,4.23-.16Z"/>
    </g>
  </g>
</svg>