<?xml version="1.0" encoding="UTF-8"?>
<svg id="Ebene_2" data-name="Ebene 2" xmlns="http://www.w3.org/2000/svg" viewBox="0 0 100.5 100">
  <defs>
    <style>
      .cls-1 {
        stroke: #ff6b35;
        stroke-linecap: round;
        stroke-linejoin: round;
      }

      .cls-1, .cls-2 {
        fill: #ff6b35;
      }
    </style>
  </defs>
  <g id="Ebene_1-2" data-name="Ebene 1">
    <g>
      <g>
        <path class="cls-2" d="M.54,43.12c-.47-8.55,2.96-15.62,7.99-22.45,4.38-5.96,10.39-9.63,16.65-12.84,5.39-2.76,11.22-4.83,17.33-5.98C48.58,.71,54.61-.34,60.85,.11c4.18,.3,8.11,1.29,11.93,2.94,2.82,1.21,5.7,2.25,8.36,3.84,4.44,2.65,8.03,6.14,10.49,10.5,2.89,5.12,5.45,10.44,7.16,16.09,.53,1.75,1.1,3.51,.9,5.38-.27,2.49,1.11,4.86,.75,7.29-1.08,7.22-.74,14.61-2.83,21.73-1.23,4.18-2.09,8.5-3.87,12.48-2.88,6.44-6.39,12.56-12.74,16.45-2.34,1.43-5.01,2.27-7.74,2.94-2.28,.56-4.39,.13-6.49-.36-5.3-1.23-6.77-5.71-8.24-9.96-1.21-3.51-1.87-7.19-3.07-10.7-1.54-4.52-4.44-8.23-7.94-11.53-2.87-2.71-6.36-4.33-10.09-5.37-3.55-.99-7.12-.22-10.61,.77-3.24,.92-6.19,2.52-9.32,3.71-3.41,1.31-7.03,2.09-10.02-.58-2.77-2.46-5.17-5.41-5.65-9.25-.55-4.44-1.51-8.84-1.3-13.35Zm97,.92c.52-5.52-1.16-11.87-4.31-17.81-2.28-4.3-3.83-8.91-7.58-12.53-8.01-7.73-17.73-11.23-28.64-11.8-5.84-.31-11.54,1.05-17.2,2.73-5.6,1.65-10.94,3.67-16.08,6.36-5.2,2.72-9.76,6.03-13.23,10.78-3.22,4.4-5.78,8.95-6.65,14.39-.43,2.64-.49,5.25-.65,7.89-.31,5.38,.82,10.45,2.73,15.38,1.77,4.56,5.06,5.98,9.81,4.54,2.97-.91,5.67-2.47,8.63-3.48,10.81-3.69,18.93-1.09,26.7,6.19,5,4.68,7.59,10.86,9.21,17.36,.88,3.53,1.61,7.04,3.63,10.21,1.8,2.81,4.59,3.6,7.44,3.33,5.59-.53,10.31-3.15,13.79-7.46,3.44-4.26,5.87-9.04,7.63-14.26,3.36-9.96,4.66-20.16,4.78-31.82Z"/>
        <path class="cls-2" d="M53.17,5.49c.99,.03,1.97-.03,2.93,.33,2.76,1.06,5.46,2.3,5.86,5.55,.48,3.9-1.52,6.93-4.58,9.1-3.56,2.52-7.31,2.08-11.31-.82-.94-.68-1.59-1.84-3.02-1.76-.15,0-.35-.25-.48-.42-1.55-2.03-.71-7.14,1.4-8.59,2.77-1.9,5.7-3.39,9.2-3.39Zm-.56,2.3c-3.15,.16-5.9,1.21-8.01,3.57-.65,.73-1.34,1.7-.5,2.57,.85,.88,1.35,1.93,2.04,2.89,1.82,2.53,6.62,3.84,9.1,2.26,3.8-2.43,6.51-6.58,1.88-9.96-1.31-.96-2.84-1.35-4.5-1.32Z"/>
        <path class="cls-2" d="M34.35,23.39c-.12,4.68-2.16,7.33-5.5,9.16-.95,.52-1.97,.64-3.08,.41-2.59-.54-4.92-1.77-6.86-3.31-3.59-2.84-2.64-8.67,1.26-11.22,3.89-2.55,7.49-2.29,11.17,.17,2.01,1.34,3.28,3.08,3.01,4.8Zm-8.18,7.17c2.59,.07,5.64-2.96,5.74-5.69,.1-2.73-3.54-5.9-6.85-5.98-2.7-.06-5.6,2.59-5.6,5.12,0,3.3,3.23,6.45,6.71,6.54Z"/>
        <path class="cls-2" d="M80.71,18.3c3.98-.01,8.56,4.55,8.91,8.88,.25,3.07-3.57,7.42-7.32,7.71-3.36,.25-5.76-1.87-7.73-4.34-1.13-1.41-1.19-3.54-3.25-4.37-.58-.23-.08-.94,.07-1.41,1.2-3.9,4.88-6.45,9.32-6.47Zm-5.7,6.12c.02,3.89,3.63,8.21,6.84,8.21,2.4,0,5.06-2.88,5.01-5.42-.07-3.19-3.92-6.67-7.35-6.64-2.78,.02-4.52,1.51-4.5,3.85Z"/>
        <path class="cls-2" d="M95.25,50.12c-.71,2.4-1.99,4.23-4.31,5.44-2.94,1.54-5.54,1.1-8.02-.83-1.36-1.06-1.99-2.74-3.46-3.79-.75-.54-.36-1.85,.04-2.73,1.22-2.68,3.26-4.46,6.3-4.88,3.34-.47,6.24,.47,8.18,3.24,.69,.99,.85,2.33,1.27,3.55Zm-8.46-4.55c-2.01,.03-4.19,1.19-4.53,2.4-.76,2.72,3.12,6.68,5.92,6.04,2.64-.6,4.28-2.48,4.02-4.61-.25-2.07-2.8-3.87-5.4-3.83Z"/>
        <path class="cls-2" d="M89.9,68.79c-.01,4.5-4.63,8.04-9,7.04-2.41-.55-3.85-2.5-4.94-4.06-1.13-1.62-.26-4.06,1.35-5.88,2-2.25,5.77-3.54,8.68-2.65,2.78,.85,3.92,2.47,3.91,5.56Zm-2.88,.16c.09-1.81-.66-2.93-2.62-3.22-1.99-.29-3.5,.73-5.07,1.59-.89,.49-1.42,1.36-1.74,2.27-.42,1.2,1.14,.57,1.39,1.28,.19,.55,.56,1.04,.89,1.54,.58,.89,1.41,1.29,2.5,1.19,2.47-.22,4.5-2.23,4.65-4.66Z"/>
        <path class="cls-2" d="M78.58,87.33c.13,2.91-1.6,4.66-3.98,5.99-.62,.35-1.39,.57-1.96,.19-2.26-1.5-4.62-3-5.17-5.9-.42-2.21,.43-3.92,2.52-4.99,3.73-1.91,8.63,.77,8.59,4.71Zm-2.77-.04c-.02-1.54-.98-2.66-2.73-2.6-1.39,.05-2.94,.54-3.14,2.28-.16,1.39,2.23,4.19,3.33,3.97,1.85-.37,2.47-1.74,2.53-3.66Z"/>
        <path class="cls-2" d="M12.59,42.81c3.16-.1,6.62,2.66,6.77,5.39,.15,2.87-2.93,6.63-5.46,6.65-2.72,.03-5.89-3.19-6.12-6.22-.19-2.54,2.46-5.75,4.82-5.82Zm.05,2.77c-1.46,0-3.29,1.54-3.35,2.82-.06,1.42,2.7,4.16,4.22,4.18,1.29,.02,3.16-2.05,3.23-3.58,.08-1.66-2.02-3.41-4.1-3.42Z"/>
      </g>
      <g>
        <path class="cls-1" d="M8.21,76.82c-1.37,1.21-3.14,2.51-5.35,3.65-.82,.42-1.61,.78-2.36,1.08,1.04-2.87,2.08-5.73,3.13-8.6,.96-1.11,2.27-2.41,4-3.65,1.16-.83,2.28-1.46,3.27-1.94-.9,3.15-1.79,6.3-2.69,9.45h0Z"/>
        <path class="cls-1" d="M18.33,72.17c.52,1.38,1.02,3.09,1.26,5.08,.09,.74,.13,1.44,.15,2.09-1.87-1.6-3.75-3.2-5.62-4.8-.57-1.04-1.18-2.4-1.63-4.06-.3-1.11-.46-2.14-.55-3.02,2.13,1.57,4.26,3.14,6.4,4.7h0Z"/>
      </g>
    </g>
  </g>
</svg>