<?xml version="1.0" encoding="UTF-8"?>
<svg id="Ebene_2" data-name="Ebene 2" xmlns="http://www.w3.org/2000/svg" viewBox="0 0 100 99.7">
  <defs>
    <style>
      .cls-1 {
        stroke: #ff6b35;
        stroke-linecap: round;
        stroke-linejoin: round;
      }

      .cls-1, .cls-2 {
        fill: #ff6b35;
      }
    </style>
  </defs>
  <g id="Ebene_1-2" data-name="Ebene 1">
    <g>
      <path class="cls-2" d="M63.89,38.16c8.35-.38,16.12,.4,23.86-.49,3.01-.35,5.94,.19,8.49,1.43,4.81,2.33,4.44,4.05,2.01,7.27-3.64,4.82-9.53,6.98-16.3,8.12-1.74,.29-3.5,.59-5.18,1.03-5.75,1.48-7.16,3.85-5.24,8.3,1.94,4.47,5.17,8.42,8.09,12.51,2.02,2.82,3.87,5.74,4.93,8.87,1.93,5.7,.87,10.6-7.26,14.12-1.66,.72-3.47,.33-5.15-.23-4.44-1.47-7.42-4-9.85-7.19-2.23-2.92-3.02-6.25-5.21-9.16-1.16-1.54-2.44-2.85-4.47-3.81-2.5-1.18-4.86-1.09-7.28-.09-4.36,1.8-7.45,4.72-10.56,7.52-4.04,3.62-8.18,7.08-13.69,9.39-6.89,2.89-12.21-1-12.55-5.97-.31-4.46,2.13-8.31,5.69-11.67,3.47-3.28,7.5-6.21,10.96-9.5,3.18-3.02,5.6-6.42,6.01-10.43,.29-2.82-.74-4.11-4.22-4.79-1.98-.39-3.96-.75-6.14-.34-2.62,.5-5.27-.31-7.91-.5-3.55-.26-6.68-1.44-9.65-2.98-2.99-1.54-3.57-3.7-3.14-6.11,.35-1.97,2.31-2.79,4.58-3.64,4.88-1.82,9.94-2.36,15.23-2.2,2.95,.09,5.79,.76,8.69,1.08,3.97,.43,7.87,1.56,11.99,.99,.68-.09,1.65-.09,1.79-.66,.2-.8-.99-.58-1.52-.81-1.65-.72-2.42-2-2.89-3.19-1.35-3.43-2.2-6.94-.43-10.48,2.44-4.87,7.29-7.56,13.65-8.96,4.54-1,8.51,.58,12.58,1.52,2.09,.48,3.78,1.55,4.86,3.18,3.26,4.88,2.48,10.88-2.07,15.09-.83,.77-1.55,1.6-2.69,2.79Zm21.14,12.21c0-1.24-.02-2.47,0-3.71,.03-1.83-.62-3.56-1.14-5.32-.23-.79-.81-1.11-1.83-1.09-5.1,.08-10.21-.16-15.31,.29-1.88,.17-4.07,.83-5.53-.96-.39-.48-1.18-.13-1.73,.07-3.73,1.41-7.58,1.33-11.48,.59-.88-.16-1.71-.14-2.53,.17-4.68,1.8-9.65,1.54-14.55,.95-5.4-.65-10.65-2.06-16.26-1.59-1.46,.12-2.12,.42-2.53,1.61-.91,2.67,.2,5.26,.17,7.88,0,.53,.43,.97,1.12,1.01,2.1,.14,4.26,.47,6.3,.25,3.29-.35,6.42-.04,9.54,.6,2.76,.57,4.38,2.29,4.66,4.5,.7,5.53-1.98,10.08-6.51,14.23-3.17,2.91-6.94,5.39-9.95,8.41-.91,.91-1.03,1.55-.14,2.54,2.29,2.55,5.28,4.35,8.77,5.88,2.12,.93,3.38,.85,4.7-.61,2.69-2.94,6.21-5.29,9.58-7.72,5.81-4.21,13.14-3.54,17.91,1.38,2.14,2.21,3.67,4.64,4.48,7.29,.47,1.54,1.4,1.95,3.31,1.51,4.62-1.09,8.8-2.88,13.03-4.6,.96-.39,1.03-.99,.59-1.69-1.1-1.73-2.05-3.53-3.33-5.18-3.23-4.15-6.67-8.27-8.18-12.98-1.67-5.21-1.15-7.66,4.73-10.05,3.06-1.25,6.36-1.67,9.63-2.28,5.79-1.07,10.77-3,13.36-7.46,.68-1.17,.81-2.22-.76-3.02-2.11-1.08-4.51-1.38-6.97-1.39-1.14,0-2.15,.44-1.74,1.46,.53,1.29,.43,2.62,.75,3.92,.45,1.82,.48,3.76-2.19,5.1ZM39.98,29.3c0,.19-.05,.86,0,1.52,.42,4.69,3.31,6.78,8.96,7.47,8.3,1.01,12.66-1.2,16.97-6.08,3.32-3.75,1.53-7.61-.4-11.35-.42-.81-1.4-1.27-2.42-1.65-1.64-.6-3.37-1-5.13-1.31-9.66-1.67-19.07,3.73-17.98,11.4Zm25.31,61.5c1.08,1.65,2.37,3.13,4.08,4.4,4.01,2.96,8.05,2.64,11.22-.86,2.08-2.3,1.9-4.75,1.09-7.27-.74-2.3-.78-2.32-3.45-1.02-4.04,1.98-8.33,3.55-12.95,4.75Zm-48.83,3.66c.41-.07,.95-.16,1.48-.26,3.53-.68,5.85-2.66,8.33-4.5,1.38-1.03,1.09-1.55-.59-1.89-4.09-.85-7.29-2.74-9.94-5.18-1-.92-1.55-.76-2.22,.13-2.29,3.08-2.92,6.29-1.04,9.61,.7,1.23,2.07,1.93,3.98,2.09Zm-6.55-49.29s0,0-.01,0c0-1.02-.03-2.03,0-3.05,.05-1.18-.42-1.74-2.06-1.18-.71,.24-1.47,.42-2.21,.59-2.2,.5-3.09,1.61-2.97,3.37,.17,2.44,2.51,3.26,4.89,4.09,1.52,.53,2.74,.77,2.39-1.13-.16-.88-.03-1.79-.03-2.69Z"/>
      <path class="cls-2" d="M53.86,47.22c-.05,1.38-1.57,2.68-3.13,2.68-1.52,0-3.03-1.2-2.95-2.34,.08-1.14,1.89-2.22,3.72-2.22,1.68,0,2.42,.59,2.36,1.88Z"/>
      <path class="cls-2" d="M52.02,56.22c-.05,.9-.88,1.26-1.81,1.4-.93,.14-1.49-.34-1.58-1-.12-.85,.53-1.37,1.58-1.46,.96-.08,1.6,.33,1.81,1.07Z"/>
      <path class="cls-2" d="M52.33,65.02c-.05,.58-.5,.89-1.18,.91-.85,.02-1.53-.33-1.69-.97-.14-.57,.41-.86,1.13-.85,.82,.01,1.5,.24,1.74,.91Z"/>
      <path class="cls-2" d="M53.52,35.14c-.96,.05-3.31,.14-5.65-1.21-.79-.46-1.99-1.17-2.39-2.52-.26-.86-.18-1.92,.14-2.01,.37-.1,.69,1.13,1.53,2.06,2.2,2.41,7.7,2.49,10.99,.25,1.13-.77,2.2-1.95,2.56-1.69,.29,.21-.11,1.19-.19,1.39-.2,.46-.73,1.49-2.39,2.46-.37,.21-2.03,1.15-4.6,1.28Z"/>
      <path class="cls-2" d="M57.74,24.26c.8,.07,1.34,.32,1.22,.91-.14,.65-.47,1.38-1.49,1.4-.9,.01-1.34-.59-1.26-1.26,.09-.7,.75-1,1.53-1.05Z"/>
      <path class="cls-2" d="M48.82,24.29c.86,.1,1.47,.43,1.42,1.14-.05,.69-.7,1.06-1.53,1.11-.94,.05-1.42-.43-1.39-1.11,.03-.68,.64-1.02,1.49-1.13Z"/>
    </g>
    <g>
      <path class="cls-1" d="M57.56,5.97c1.25-1.34,2.88-2.81,4.96-4.17,.77-.5,1.52-.93,2.24-1.31-.75,2.95-1.51,5.91-2.26,8.86-.84,1.2-2.02,2.62-3.62,4.03-1.07,.94-2.12,1.68-3.06,2.26,.58-3.22,1.16-6.45,1.74-9.67h0Z"/>
      <path class="cls-1" d="M47.95,11.59c-.66-1.32-1.32-2.98-1.75-4.93-.16-.72-.28-1.42-.36-2.07,2.02,1.41,4.05,2.81,6.07,4.22,.67,.98,1.42,2.27,2.02,3.88,.41,1.08,.67,2.08,.84,2.95-2.28-1.35-4.55-2.7-6.83-4.05h0Z"/>
    </g>
  </g>
</svg>