<?xml version="1.0" encoding="UTF-8"?>
<svg id="Ebene_2" data-name="Ebene 2" xmlns="http://www.w3.org/2000/svg" viewBox="0 0 100.21 100.76">
  <defs>
    <style>
      .cls-1 {
        stroke: #ff6b35;
        stroke-linecap: round;
        stroke-linejoin: round;
      }

      .cls-1, .cls-2 {
        fill: #ff6b35;
      }
    </style>
  </defs>
  <g id="Ebene_1-2" data-name="Ebene 1">
    <g>
      <path class="cls-1" d="M50.12,5.97c1.25-1.34,2.88-2.81,4.96-4.17,.77-.5,1.52-.93,2.24-1.31-.75,2.95-1.51,5.91-2.26,8.86-.84,1.2-2.02,2.62-3.62,4.03-1.07,.94-2.12,1.68-3.06,2.26,.58-3.22,1.16-6.45,1.74-9.67h0Z"/>
      <path class="cls-1" d="M40.51,11.59c-.66-1.32-1.32-2.98-1.75-4.93-.16-.72-.28-1.42-.36-2.07,2.02,1.41,4.05,2.81,6.07,4.22,.67,.98,1.42,2.27,2.02,3.88,.41,1.08,.67,2.08,.84,2.95-2.28-1.35-4.55-2.7-6.83-4.05h0Z"/>
    </g>
    <g>
      <path class="cls-2" d="M54.64,100.74c-8.48-.29-15.57-.48-22.2-2.99-6.56-2.49-12.14-6.53-16.68-12-4.19-5.05-6.95-10.77-8.21-17.15-.53-2.67-.28-5.48-.61-8.23-.67-5.63,0-11.17,2.11-16.49,.37-.93,.25-1.52-.86-2.03C3.49,39.7-.95,32.12,.18,26.55c1.26-6.18,5.04-10.39,11-12.87,6.18-2.57,12.04-1.73,17.95,.59,1.81,.71,3.11,2.14,4.35,3.56,.6,.68,1.02,.73,1.87,.41,6.07-2.3,12.27-3.08,18.71-1.62,3.12,.71,6.41,.66,9.36,2.1,.46,.22,.74,.06,1-.34,.18-.28,.53-.47,.66-.76,2.12-4.54,6.39-5.87,10.67-7.08,4.91-1.39,9.86-1.45,14.53,.86,4.97,2.45,7.77,6.72,9.09,12.01,.36,1.45,.94,2.82,.83,4.41-.38,5.72-2.06,10.77-6.58,14.63-1.47,1.25-3.07,2.19-4.88,2.72-.99,.29-1.34,.71-1.09,1.7,1.49,5.83,1.77,11.76,1.71,17.74-.03,3.24-.66,6.38-1.22,9.52-.62,3.46-1.51,6.8-3.75,9.75-5.7,7.51-12.24,13.81-21.81,15.86-3.06,.66-6.22,1.14-7.94,1Zm-4.05-2.79c5.75,.09,10.14-.18,14.16-1.71,11.38-4.31,19.31-11.95,21.51-24.38,.85-4.81,1.35-9.63,.69-14.62-.54-4.08-.82-8.17-2.19-12.05-2.91-8.26-8.09-14.81-15.15-19.99-4.57-3.35-9.64-5.34-15.15-6.3-2.06-.36-3.86-1.51-6.03-1.55-5.62-.12-10.82,1.58-15.78,3.85-7.61,3.49-13.35,9.21-18.04,16.1-3.08,4.52-4.86,9.49-5.54,14.82-.64,4.97,.69,9.95,.5,14.94-.01,.39,.15,.79,.25,1.18,1.24,4.78,3.09,9.2,5.9,13.39,4.93,7.33,11.73,11.86,19.86,14.46,5.27,1.69,10.92,1.51,15.01,1.87ZM97.41,28.65c0-.89-.02-1.29,0-1.7,.32-6.87-5.59-14.35-13.34-14.94-4.16-.32-7.8,.84-11.56,2.12-2,.68-3.49,1.99-4.85,3.52-1.06,1.19-1.14,2.12,.42,3.06,3.12,1.89,5.82,4.36,8.47,6.84,4.33,4.06,7.36,9.09,9.9,14.41,.36,.74,.41,1.5,1.63,.88,6-3.08,9.85-7.47,9.32-14.19ZM31.7,19.24c-1.51-1.6-2.94-2.99-4.94-3.64-3.43-1.1-6.89-1.91-10.51-1.19-3.35,.66-6.62,1.83-9.12,4.08-6.43,5.78-5.07,14.67,1.06,20.5,1.45,1.38,2.13,1.18,3.14-.46,3.16-5.13,6.89-9.82,11.64-13.6,2.69-2.14,5.75-3.76,8.73-5.69Z"/>
      <path class="cls-2" d="M50.24,82.51c.6,.04,1.09-.14,1.44-.29,2.48-1.09,3.34-3.64,3.83-3.45,.37,.14,.22,1.72-.29,2.97-.16,.4-.53,1.17-1.3,1.99-1.64,1.75-3.73,2.23-4.93,2.51-.72,.17-2.15,.43-4.02,.29-1.69-.13-5.01-.4-6.92-2.81-1.22-1.54-1.5-3.49-1.13-3.7,.4-.23,1.3,1.65,3.64,2.39,1.18,.37,2.12,.27,2.61,.2,.68-.09,1.37-.16,1.81-.68,.37-.44,.49-1.09,.38-1.94-.34-2.48-.9-4.88-2.19-7.08-.65-1.1-1.16-2.29-1.6-3.49-.99-2.72,.08-5.52,2.28-6.17,3.48-1.03,6.96,.62,7.69,3.67,.75,3.14-.68,5.8-2.01,8.44-.61,1.21-1.24,2.35-1.5,3.71-.21,1.08-.28,1.63-.01,2.14,.43,.84,1.44,1.25,2.23,1.29Z"/>
      <path class="cls-2" d="M64.23,48.64c1.88,0,3.45,2.4,2.88,4.86-.28,1.18-.76,2.29-1.5,3.28-1.5,2.03-3.51,2.15-4.94,.08-1.14-1.66-1.56-3.61-.58-5.52,.79-1.54,1.96-2.75,4.14-2.7Z"/>
      <path class="cls-2" d="M25.19,53.75c-.19-3.42,2.04-4.43,4.34-4.52,1.9-.08,3.08,1.87,3,4.48-.04,1.31-.49,2.53-1.02,3.67-.97,2.11-2.95,2.33-4.55,.6-1.13-1.22-1.99-2.57-1.77-4.23Z"/>
    </g>
  </g>
</svg>