<?xml version="1.0" encoding="UTF-8"?>
<svg id="Ebene_2" data-name="Ebene 2" xmlns="http://www.w3.org/2000/svg" viewBox="0 0 100.48 100">
  <defs>
    <style>
      .cls-1 {
        stroke: #ff6b35;
        stroke-linecap: round;
        stroke-linejoin: round;
      }

      .cls-1, .cls-2 {
        fill: #ff6b35;
      }
    </style>
  </defs>
  <g id="Ebene_1-2" data-name="Ebene 1">
    <g>
      <g>
        <path class="cls-2" d="M74.46,43.56c2.24-2.39,4.62-1.59,6.84-1.42,5.6,.44,10.57,3.14,15.05,7.49,3.23,3.14,4.51,9.94,3.06,13.93-.82,2.25-2.32,3.4-3.87,4.46-4.6,3.13-9.64,4.45-14.68,5.69-4.06,1-8.1,2.2-12.24,2.6-.4,.04-.93,.08-1.01,.57-.07,.38,.2,.98,.45,1.33,3.52,4.82,5.84,10.92,9.7,15.39,.32,.36,.94,1.33,.39,1.46-.7,.16-1.04,2.23-2.2,.54-2.02-2.93-3.9-5.99-5.73-9.1-1.67-2.84-3.33-5.66-5.16-8.34-.78-1.14-1.46-1.37-2.47-1.18-8.66,1.59-17.4,1.36-26.1,2.18-1.01,.09-1.46,.49-2.16,1.43-3.62,4.92-6.76,10.34-9.94,15.72-.44,.74-.83,1.53-1.16,2.35-.41,1.01-.97,1.77-1.82,1.1-.81-.64-.71-1.58-.17-2.62,2.76-5.41,5.9-10.43,9.34-15.14,.48-.66,.96-1.33,1.7-2.36-2.01,0-3.6-.09-5.19,.02-4.36,.29-8.7-.29-12.97-1.11-5.23-1-9.72-4.18-12.85-9.89-2.47-4.5-1.13-11.33,2.82-15.59,5.54-5.96,12.08-8.75,19.06-10.16,1.94-.4,3.87-1.01,5.86-.81,1.31,.13,1.44-1.04,1.62-2.24,.91-6.08,2.56-11.72,5.36-16.82,3.49-6.35,8.12-10.33,14.01-11.73,1.5-.36,2.16-.81,1.89-3.01-.27-2.17-.15-4.41-.16-6.63,0-.77,.07-1.71,.88-1.64,.8,.07,.94,.84,.92,1.86-.05,2.37,.1,4.75,.07,7.13-.02,1.34,.37,1.72,1.38,1.74,7.54,.14,12.3,5.67,15.38,13.91,2.18,5.82,3.37,12.12,4.11,18.92Zm-28.81,33.22c10.65-1.11,22.79-1.42,34.63-5.05,4.6-1.41,9.28-2.45,13.59-5.19,5.14-3.27,5.77-9.85,1.51-14.83-5.46-6.38-12.1-7.32-18.99-7.28-.55,0-1.26,.31-1.3,.93-.25,4.09-2.9,3.88-4.84,4.18-5.88,.9-11.82,.72-17.74,.71-7.12,0-14.15-1.56-21.24-1.9-.92-.04-1.43-.56-1.38-1.65,.12-2.52-1.05-2.8-2.53-2.6-6.33,.84-12.43,2.74-18.07,6.72-2.35,1.66-4.34,3.85-5.8,6.77-2.57,5.15-1.91,9.88,1.89,13.61,4.15,4.09,8.96,5.39,14.03,5.96,8.3,.93,16.56-.39,26.25-.4Zm7.86-28.98c1.25,0,2.5,.01,3.75,0,4.41-.06,8.8-.45,13.18-1.11,1.71-.26,2.5-.87,2.13-3.52-.81-5.8-1.73-11.58-3.63-16.92-5.16-14.49-14.95-16.69-25.18-9.76-4.7,3.18-7.56,8.83-9.63,15.07-1.14,3.45-2.02,7.02-2.6,10.69-.26,1.64-.49,3.52,1.54,3.8,6.8,.92,13.6,1.79,20.44,1.75Z"/>
        <path class="cls-2" d="M85.64,65.25c-.09,.87-.47,1.41-1.14,1.39-.67-.02-1.4-.33-1.47-1.28-.08-1.17,.81-1.12,1.4-1.27,.66-.17,1.13,.22,1.22,1.16Z"/>
        <path class="cls-2" d="M12.23,63.25c.39,.07,.94,.14,.85,.75-.16,1.04-.89,1.37-1.63,1.43-.44,.04-.79-.29-.7-.91,.14-1.04,.8-1.2,1.48-1.27Z"/>
        <path class="cls-2" d="M70.62,66.64c.61,.06,1.02,.33,1.07,1.02,.05,.68-.25,1.16-.78,1.2-.5,.04-.89-.33-.97-1-.09-.74,.34-1,.68-1.22Z"/>
        <path class="cls-2" d="M38.4,42.1c.07-3.19,1.18-5.88,2.46-8.47,.39-.79,.96-1.64,1.76-.9,.85,.79,.08,1.48-.29,2.09-1.39,2.26-1.71,5.1-2.49,7.69-.2,.67-.26,1.71-1.08,1.38-.63-.26-.36-1.15-.35-1.79Z"/>
        <path class="cls-2" d="M44.4,27.23c1.51-4.18,4.11-6.5,7.47-7.39,.73-.19,1.85-.44,2.02,.76,.18,1.26-.99,1.1-1.61,1.24-3.09,.68-5.52,2.88-7.89,5.4Z"/>
      </g>
      <g>
        <path class="cls-1" d="M91.18,34.44c1.68-.72,3.77-1.41,6.22-1.81,.91-.15,1.77-.24,2.58-.29-1.88,2.4-3.77,4.8-5.65,7.19-1.26,.75-2.91,1.58-4.94,2.22-1.36,.43-2.62,.68-3.71,.83,1.83-2.71,3.67-5.43,5.5-8.14h0Z"/>
        <path class="cls-1" d="M80.12,35.7c-.07-1.48,0-3.25,.39-5.22,.14-.73,.32-1.41,.51-2.03,1.28,2.1,2.57,4.21,3.85,6.31,.22,1.16,.38,2.65,.28,4.37-.06,1.15-.23,2.17-.42,3.04-1.54-2.16-3.07-4.31-4.61-6.47h0Z"/>
      </g>
    </g>
  </g>
</svg>