<?xml version="1.0" encoding="UTF-8"?>
<svg id="Ebene_2" data-name="Ebene 2" xmlns="http://www.w3.org/2000/svg" viewBox="0 0 98.62 100.15">
  <defs>
    <style>
      .cls-1 {
        stroke: #ff6b35;
        stroke-linecap: round;
        stroke-linejoin: round;
      }

      .cls-1, .cls-2 {
        fill: #ff6b35;
      }
    </style>
  </defs>
  <g id="Ebene_1-2" data-name="Ebene 1">
    <path class="cls-2" d="M55.69,98.39c-6.49-.18-11.72,.33-16.67,1.66-.67,.18-1.15,.14-1.44-.18-.59-.64-1.92-1.13-1.57-1.96,1.6-3.83-1.35-5.94-7.47-6.92-.41-.07-1.06-.36-1.03-.49,.69-2.53-2.72-4.63-2.03-7.23,.45-1.7,.22-3.56-1.07-5.24-.42-.55-.73-1.11-1.04-1.68-.91-1.66,.32-2.33,2.88-2.36,2.49-.03,2.79-.51,2.18-1.88-1.47-3.3-1.93-6.74-4.07-9.94-2.43-3.63-5.53-7.06-8.83-10.46-4.5-4.64-9.92-9.05-12.68-14.19C.1,32.4-1.14,27.05,1.32,21.81c2.08-4.43,4.3-9.17,9.3-12.6C15.02,6.19,19.82,2.94,27.36,1.69c5.01-.83,9.82-1.9,15.01-1.42,9.03,.84,17.78,2.01,25.92,4.85,8.12,2.83,10.46,7.53,13.91,11.96,2.32,2.98,3.03,6.34,2.74,9.43-.35,3.8-1.09,7.68-2.95,11.45-2.33,4.73-5.81,9.13-9.19,13.59-2.33,3.07-3.57,6.28-4.18,9.69-.55,3.05,1.14,5.81,1.23,8.72,.04,1.18,1.84,1.05,3.13,1.07,4.59,.06,7.56,1.22,6.76,3.69-.47,1.44,.8,3.12-.36,3.94-2.7,1.92,.28,3.61-.06,5.43-.51,2.74-1.68,5.55-6.36,6.24-3.46,.51-2.62,1.9-3.03,3.12-.06,.17,.26,.37,.36,.56,1.66,3.46,1.19,3.78-5,3.84-3.56,.03-7.03,.79-9.58,.54ZM78.13,27.47c.06-2.47-.18-4.8-.9-7.16-1.63-5.31-4.48-9.87-13.14-12.91-8.15-2.86-16.07-5.42-25.97-4.61-7.64,.62-14.77,1.51-20.55,5.13-5.91,3.7-8.59,8.15-11.31,12.67-1.99,3.3-2.78,6.74-1.41,10.18,2.83,7.13,8.62,13.53,14.94,19.79,6.74,6.68,13.2,13.42,12.42,21.59-.11,1.19,1.1,1.56,2.91,1.39,3.19-.31,6.37-.67,9.56-.99,1.1-.11,1.54-.42,1.49-1.11-.21-2.76-.1-5.53-.53-8.27-.51-3.27-.72-6.41-6.73-8.61-5.63-2.06-6.54-6.53-4.14-10.21,1.59-2.44,4.37-4.46,6.43-6.73,1.68-1.84,3.6-3.61,5.22-5.47,.53-.61-.07-1.74,1.62-1.76,1.75-.02,1.79,1.07,2.15,1.83,1.13,2.35,2.5,4.59,4.97,6.65,2.26,1.89,5.04,3.73,5,6.35-.06,3.76-2.03,7.05-6.44,9.8-1.5,.93-2.45,1.89-2.43,3.22,.05,4.23-1.58,8.43-.71,12.69,.14,.71,.47,1.13,1.54,.95,3.88-.68,7.87-.22,11.78-.49,2-.14,2.01-.51,1.52-1.58-2.7-5.87-2.92-11.71,1.12-17.47,2.49-3.55,6.34-6.69,7.82-10.58,1.81-4.76,4.3-9.41,3.79-14.26Zm-30.91,7.68c-3.3,2.93-5.06,5.96-7.91,8.65-3.81,3.59-2.56,7.07,2.97,9.74,.71,.34,1.41,.83,2.42,.6,1.08-.24,.86-.9,.88-1.42,.07-1.89,.1-3.79,.15-5.68,.02-.87,.79-1.49,2.23-1.55,1.67-.06,2.05,.77,2.1,1.54,.05,.74-.24,1.48-.25,2.22-.02,1.84-1.05,3.69-.15,5.64,4.8-2.44,9.24-8.31,4.84-12.56-2.38-2.29-5.14-4.45-7.27-7.18Zm-6.81,59.94c-.5,1.65,.26,2.48,3.47,2.07,6.13-.78,12.39-.87,18.64-.99,1.69-.03,3.74,.19,3.75-1.39,.01-2.38-1.36-3.64-4.16-3.32-6.05,.69-12.28,.16-18.29,1.1-2.51,.39-4.17,.84-3.4,2.53Zm28.45-14.15c-4.19,.74-8.95,.85-13.63,1.26-6.97,.62-13.98,1.02-21,1.36-1.36,.07-2.9-.15-3.63,.81-.46,.6-.33,1.21,.39,1.72,1.09,.77,2.45,.47,3.85,.34,5.37-.47,10.76-.87,16.14-1.3,6.86-.55,13.89-.36,20.6-1.57,1-.18,2.88-.13,1.9-1.11-.81-.82-2.19-1.61-4.63-1.52Zm-31.33,9.55s0,.05,0,.07c.92,0,1.87,.09,2.75-.01,7.77-.93,15.66-1.03,23.53-1.26,2.33-.07,4.61-.17,6.84-.59,1.84-.34,3.27-.92,2.8-2.17-.47-1.26-2.4-.86-3.76-.81-3.47,.12-6.72,1.04-10.27,1-8.15-.08-16.07,1.07-24.09,1.66-1.08,.08-3.03,.09-2.81,1.07,.19,.83,1.66,1.23,3.26,1.12,.57-.04,1.15-.06,1.73-.08Zm35.63-11.79c-1.52-1.14-2.92-1.52-4.67-1.43-11.3,.58-22.58,1.32-33.92,1.63-1.23,.03-2.48,.36-3.64,.65-1.07,.26-1.53,.85-1.33,1.51,.25,.83,1.38,.46,2.23,.48,4.55,.1,9-.51,13.51-.61,9.27-.22,18.28-1.38,27.83-2.23Zm-10.26-5.22c-7.45,.22-15.29,1.22-23.28,1.29-1.94,.02-3.9,.26-5.81,.51-1.11,.14-2.41,.45-2.21,1.31,.2,.85,1.56,.61,2.53,.66,2.68,.14,5.2-.49,7.9-.51,5.65-.04,11.33-.25,16.93-.67,3.43-.25,6.97-.18,10.29-.89,.69-.15,1.89,.05,1.83-.63-.04-.51-.99-.78-1.78-.83-1.95-.12-3.92-.15-6.41-.24Z"/>
    <g>
      <path class="cls-1" d="M89.18,9.74c1.82-.06,4.01,.05,6.44,.56,.9,.19,1.73,.42,2.51,.66-2.61,1.55-5.21,3.1-7.82,4.65-1.44,.25-3.27,.42-5.39,.28-1.42-.09-2.68-.31-3.75-.57,2.67-1.86,5.34-3.73,8.01-5.59h0Z"/>
      <path class="cls-1" d="M78.42,6.92c.46-1.4,1.15-3.03,2.22-4.71,.39-.62,.8-1.19,1.2-1.71,.45,2.42,.9,4.84,1.35,7.26-.21,1.16-.59,2.6-1.29,4.16-.47,1.05-.98,1.94-1.47,2.68-.67-2.56-1.34-5.11-2-7.67h0Z"/>
    </g>
  </g>
</svg>