<?xml version="1.0" encoding="UTF-8"?>
<svg id="Ebene_2" data-name="Ebene 2" xmlns="http://www.w3.org/2000/svg" viewBox="0 0 100.5 100">
  <defs>
    <style>
      .cls-1 {
        stroke: #ff6b35;
        stroke-linecap: round;
        stroke-linejoin: round;
      }

      .cls-1, .cls-2 {
        fill: #ff6b35;
      }
    </style>
  </defs>
  <g id="Ebene_1-2" data-name="Ebene 1">
    <g>
      <g>
        <path class="cls-2" d="M.06,80.17c0-5.21-.17-10.42,.06-15.61,.14-3.08-.57-6.24,.76-9.25,.08-.19,.06-.43,.04-.65-.62-6.01-.28-12.05,.19-18,.65-8.21,0-16.43,.89-24.61,.35-3.21,.97-6.36-.29-9.55C1.07,.85,2.51-.32,4.56,.08,13.45,1.82,22.61,.88,31.5,2.12c5.54,.78,11.08,.55,16.59,.79,6.83,.29,13.75,.34,20.6-.71,3.08-.47,6.32-.16,9.48-.15,.94,0,1.74,.54,1.67,1.32-.2,2.12,.95,4.05,.86,6.17-.12,3.21,.7,6.36,1.29,9.53,.28,1.48,.13,3.03,.15,4.54,.04,4.67-.49,9.4,.24,13.99,.83,5.24,1.04,10.49,.5,15.63-1.12,10.66-.67,21.31-.56,31.96,.03,2.46-.29,5.01,.59,7.55,.94,2.72-2.98,6.51-6.23,6.51-.92,0-1.83,0-2.75,0-12.39-.14-24.75,1.08-37.15,.65-5.69-.19-11.41-.48-17.09-.23-5.15,.23-10.28,.12-15.42,.17-3.93,.04-4.22-.28-4.22-3.63,0-5.35,0-10.7,0-16.05Zm3-3.12s-.03,0-.04,0c0,5.78,.07,11.56-.04,17.34-.03,1.82,.72,2.42,2.76,2.35,4.37-.15,8.71,.4,13.13,.09,5.43-.38,10.94-.43,16.42-.14,3.06,.16,6.14-.13,9.2-.01,5.06,.2,10.19,.21,15.11-.52,5.42-.8,10.77-.79,16.17-.61,3.12,.11,3.34-.04,3.51-2.77,.37-6.05-.15-12.09-.17-18.13-.04-10.53,.88-21.04,.22-31.58-.53-8.49,.54-17.04-.87-25.49-.57-3.41-.35-6.88-1.38-10.25-.31-1.01-.74-1.32-1.85-1.18-6.32,.79-12.71,.5-19.06,.87-9.37,.55-18.83,.4-28.17-.67-3.11-.35-6.26-.43-9.38-.97-3.65-.63-7.44-.61-11.17-.85-1.22-.08-2.29,.22-2.15,1.49,.23,2.2-.66,4.29-.75,6.45-.33,7.57,.17,15.13-.54,22.72-.78,8.28-.74,16.62-.93,24.94-.13,5.63-.02,11.27-.02,16.91Z"/>
        <path class="cls-2" d="M21.95,11.12c7.15-.17,14.27-1.01,21.44-.7,7.96,.34,15.92,.59,23.84,1.35,1.96,.19,3.69,2.51,3.77,5.05,.07,2.38,.04,4.77,.05,7.16,0,.51-.02,1.02,.07,1.51,.8,4.18-.49,5.4-5.26,4.41-5.54-1.15-10.86-.03-16.28,.53-4.36,.45-8.61,1.37-13.01,1.73-6.79,.56-13.62,.38-20.39,1.1-1.68,.18-3.46-.19-5.17-.44-1.27-.19-1.66-1.26-1.8-2.14-.21-1.27-.36-2.65,0-3.87,1-3.38,.87-6.74,.02-10.07-.64-2.51,.38-4.71,4.03-5.15,2.91-.35,5.8-.35,8.69-.47Zm-9.12,10.93s-.02,0-.04,0c0,2.02,0,4.05,0,6.07,0,1.04,.25,1.84,1.74,1.9,7.17,.25,14.3-.18,21.41-.84,4.35-.4,8.64-1.24,12.98-1.79,5.17-.66,10.33-1.43,15.6-1.33,1.46,.03,2.62-.56,2.64-2.05,.02-2.09,.1-4.2-.05-6.28-.08-1.12-.3-2.46-2-2.66-3.77-.46-7.55-.96-11.34-1.17-12.99-.72-25.96,.21-38.95,.43-1.56,.03-2.04,.65-2.01,1.87,.04,1.95,.01,3.9,.01,5.85Z"/>
        <path class="cls-2" d="M26.05,69.68c-.28,.92-.92,1.58-1.58,2.23-2.31,2.3-2.28,3.1,.14,5.3,1.03,.93,2.34,1.76,1.39,3.32-.64,1.05-1.44,1.38-2.54,.47-.3-.25-.52-.56-.79-.84q-2.33-2.45-4.59-.15c-.32,.33-.68,.63-1.05,.92-.58,.45-1.24,.84-2,.36-.75-.48-.63-1.15-.2-1.74,.7-.98,1.38-1.98,2.23-2.86,.96-.98,1.07-1.77,.13-2.85-1.14-1.32-2.05-2.79-3.01-4.22-.5-.75-.64-1.54,.42-2.05,.97-.47,1.91-.46,2.68,.35,.16,.17,.26,.37,.41,.54,.87,.95,1.06,2.65,2.39,2.88,1.41,.25,1.78-1.45,2.68-2.23,.75-.64,1.63-.63,2.55-.38,.54,.15,.78,.49,.73,.94Z"/>
        <path class="cls-2" d="M62.71,46.31c-1.03-.16-2.22,.05-1.62,2.16,.29,1.01,.25,2.36-1.55,2.44-1.6,.07-2.22-.95-2.08-2.16,.28-2.44-1.38-2.57-3.44-2.34-.98,.11-1.98,.36-2.94,.28-1-.08-1.96-.52-1.96-1.62,0-1.23,1.02-1.25,2.08-1.33,1.07-.08,2.12-.34,3.18-.44,1.98-.2,2.57-1.06,1.87-2.66-.48-1.08-.39-2.12,1.15-2.36,1.38-.21,2.31,.54,2.23,1.75-.19,2.71,1.31,3.37,4.15,3.14,1.28-.1,3.61-.87,3.62,1.37,.02,2.21-2.04,2.05-4.69,1.78Z"/>
        <path class="cls-2" d="M24,49.55c-2.25,.08-4.49,.16-6.68-.46-1.08-.31-2.12,.1-3.16,.36-1.3,.33-2.35,0-2.73-1.21-.36-1.15,.36-1.62,1.59-2,2.05-.64,4.11-.63,6.16-.31,3.06,.48,6.08,.67,9.14,.03,1.08-.23,1.84,.11,1.97,1.11,.16,1.21-.31,2.26-1.8,2.44-1.47,.18-2.99,.04-4.48,.04Z"/>
        <path class="cls-2" d="M53.44,78.41c-1.16,0-1.99,0-2.82,0-1.14,.01-2.3-.07-2.44-1.31-.15-1.33,1.26-1.5,2.22-1.58,2.71-.24,5.44-.31,8.16-.39,1.49-.05,2.99-.02,4.49,.05,.66,.03,1.39,.25,1.36,.99-.02,.62-.68,.79-1.26,.85-3.36,.36-6.53,1.81-9.7,1.39Z"/>
        <path class="cls-2" d="M54.74,72.37c-1.33-.19-2.65-.33-3.94-.57-1.23-.23-1.81-1-1.68-2.07,.15-1.21,1.24-1.26,2.25-1.07,3.09,.58,6.22,.7,9.37,.68,.96,0,2.21,.09,2.12,1.27-.08,1.05-1.14,1.3-2.23,1.26-2-.07-3.96,.14-5.89,.5Z"/>
        <path class="cls-2" d="M19.7,23.57c-.79,.76-.68,2.28-2.38,2.42-1.26,.1-2.12-.54-2.16-1.64-.05-1.35,1.15-1.87,2.43-2.06,.94-.14,1.81,.19,2.11,1.28Z"/>
        <path class="cls-2" d="M45.9,21.62c-.29,1.09-.81,1.85-2.16,1.83-1-.02-1.97-.31-1.94-1.28,.04-1.11,.85-1.87,2.24-1.88,1.06,0,1.67,.51,1.85,1.33Z"/>
        <path class="cls-2" d="M36.98,22.29c-.08,.94-.58,1.69-1.75,1.77-1.18,.08-1.87-.58-1.92-1.58-.06-1.08,.74-1.52,1.9-1.57,1.1-.05,1.75,.34,1.77,1.39Z"/>
        <path class="cls-2" d="M28.64,23.03c-.04,.74-.21,1.61-1.39,1.59-1.1-.02-2.15-.45-2.23-1.6-.08-1.05,.78-1.56,1.84-1.65,1.24-.11,1.77,.55,1.78,1.66Z"/>
      </g>
      <g>
        <path class="cls-1" d="M91.85,13.01c1.77,.58,3.84,1.44,5.98,2.76,.79,.49,1.52,.99,2.17,1.49-3.05,.55-6.11,1.1-9.16,1.64-1.47-.27-3.29-.74-5.28-1.61-1.33-.58-2.46-1.23-3.4-1.83,3.23-.82,6.46-1.64,9.68-2.46h0Z"/>
        <path class="cls-1" d="M82.52,6.63c.94-1.15,2.18-2.44,3.81-3.65,.6-.45,1.19-.84,1.76-1.18-.43,2.42-.86,4.85-1.29,7.27-.62,1.01-1.49,2.23-2.72,3.46-.82,.82-1.63,1.48-2.37,2,.27-2.63,.54-5.26,.81-7.89h0Z"/>
      </g>
    </g>
  </g>
</svg>