<?xml version="1.0" encoding="UTF-8"?>
<svg id="Ebene_2" data-name="Ebene 2" xmlns="http://www.w3.org/2000/svg" viewBox="0 0 100 100.05">
  <defs>
    <style>
      .cls-1 {
        fill: #ff6b35;
      }
    </style>
  </defs>
  <g id="Ebene_1-2" data-name="Ebene 1">
    <path class="cls-1" d="M58.34,37.86c-3.61-11.21-6.16-11.58-5.99-16.27,.14-4.12,2.24-8.15,6.33-14.68,.3-.49,.63-.92,.91-1.47,4.02-7.98,7.59-6.83,11.44,1.11,8.1,16.72,16.48,32.91,24.69,49.43,1.82,3.67,5.06,6.14,4.13,12.86-.87,6.34-4.29,5.77-6.67,7.93-.69,.63-1.51,.71-2.25,1.16-9.29,5.58-18.83,10.01-27.56,18.59-2.69,2.64-4.28,3.91-5.4,3.41-3.34-1.48,3.87-16.74-2.6-23.73-1.43-1.54-4.42-2.22-10.34-3.5-10.87-2.36-16.13-4.17-27.28-4.46-4.21-.11-8.45-2.38-12.61-4.27C.22,61.75-.63,54.59,.37,45.97c.94-8.05,1.95-12.68,7.73-11.13,17.28,4.66,34.74,6.75,52.13,9.84-.35-1.51-.96-3.92-1.9-6.83Z"/>
  </g>
</svg>