<?xml version="1.0" encoding="UTF-8"?>
<svg id="Ebene_2" data-name="Ebene 2" xmlns="http://www.w3.org/2000/svg" viewBox="0 0 184.89 169.82">
  <defs>
    <style>
      .cls-1 {
        fill: #ff6b35;
      }
    </style>
  </defs>
  <g id="Ebene_1-2" data-name="Ebene 1">
    <path class="cls-1" d="M75.86,25.72C84.03,14.96,94.94,6.12,107.09,.17c1.25-.64,2.75,.65,2.32,1.97-1.85,6.47-4.14,12.82-5.96,19.3-1.96,6.56-3.25,13.32-4.82,19.96-3.68,5.81-7.93,11.31-12.89,16.1-4.95,4.82-10.36,9.23-16.27,12.83-1.5,.99-3.6-.45-3.23-2.2,1.31-7.1,2.76-14.18,4.34-21.23,1.59-7.05,3.28-14.29,5.28-21.18h0Zm.29,.27c.1-.2,.03-.05,.05-.09h0c-.03,.38-.08,.97-.11,1.35-1.26,13.95-3.27,27.84-5.64,41.64,0,0-3.23-2.2-3.23-2.2,8.53-5.21,16.31-11.57,23.15-18.87,2.31-2.42,4.54-4.93,6.6-7.59,0,0-.15,.33-.15,.33,4.24-12.81,6.66-26.07,9.31-39.26,0,0,2.42,1.92,2.42,1.92l-4.29,2.45c-10.06,5.76-19.35,12.74-28.11,20.32h0Z"/>
    <path class="cls-1" d="M24.08,46.46c-5.46-8.47-9.19-18.16-11.4-28-.75-3.31-1.31-6.66-1.6-10.04-.14-.95,.55-1.84,1.52-1.92,.42-.04,.82,.09,1.13,.32,5.41,4,10.57,8.36,15.99,12.34,5.46,4.09,11.25,7.72,16.96,11.42,2.08,2.77,4.07,5.62,5.87,8.6,5.29,8.9,9.06,18.76,11.1,28.92,.41,1.76-1.69,3.22-3.19,2.25-12.35-7.5-24.91-15.36-36.38-23.89h0Zm.39-.09c12.25,5.54,25.91,13.23,38.17,20.31,0,0-3.19,2.25-3.19,2.25-.64-3.26-1.44-6.48-2.33-9.69-2.78-9.62-6.9-18.85-12.06-27.44-3.85-2.81-10.91-8.23-16.12-11.52-5.62-3.69-11.51-7-17.15-10.68,0,0,2.65-1.6,2.65-1.6,1.87,13.13,5.34,25.93,10.02,38.36h0Z"/>
    <path class="cls-1" d="M62.81,88.33c3.73-4.32,7.2-8.77,12.76-10.57,2.2-.71,2.02-2.85,3.13-4.21,8.51-10.42,19.36-14.56,32.77-13.64,10.07,.69,17.24,5.83,23.73,13.37,4.41-9.36,12.27-13.34,21.41-14.87,8.55-1.43,17.14-1.32,22.35,7.33,5.54,9.2,7.23,19.21,4.96,29.86-1.41,6.59-5.93,11.01-10.17,15.7-6.63,7.32-15.23,11.99-23.27,17.43-6.29,4.26-12.11,9.06-14.77,16.62-.28,.79-.76,1.52-1.21,2.24-1.8,2.88-2.48,2.94-4.04,.07-3.5-6.48-8.57-11.45-14.51-15.65-4.24-3-6.43-3.07-10.12,.31-6.74,6.14-15,9.9-22.59,14.7-7.74,4.89-13.64,11.08-16.25,20.1-.36,1.23-1.67,2.71-3.06,2.72-1.66,0-2.74-1.46-3.18-3.08-.93-3.39-1.72-6.74-4.26-9.51-4.05-4.44-9.23-6.72-14.79-8.13-8.62-2.19-17.12-4.39-24.94-8.96C5.72,133.69,.38,124.07,.02,111.66c-.38-13.3,4.47-24.27,15.85-31.8,5.6-3.71,11.94-4.56,18.51-4.39,8.24,.21,16.19,1.26,23.07,6.48,2.3,1.74,3.82,3.99,5.35,6.38Zm1.02,73.1c5.27-12.33,15.7-17.98,25.66-24.1,5.43-3.34,10.48-7.17,14.82-11.82,7.81-8.39,11.12-18.17,6.91-29.24-4.59-12.04-12.18-18.96-26.19-15.44-8.57,2.16-16.48,6.19-20.13,15.31-.39,.99-.84,2.27-2.21,2.03-1.41-.24-1.3-1.55-1.3-2.65,0-3.25-1.4-5.87-3.64-8.1-12.44-12.35-33.39-11.14-45.64,1.42-9.55,9.8-6.08,35.65,4.09,42.89,10.56,7.52,22.43,11.64,34.34,15.83,5.36,1.88,9.19,4.78,11.33,9.98,.41,.99,.97,1.92,1.98,3.88Zm19.66-86.1c3.85,.7,6.79,1.25,9.84,1.17,17.58-.51,27.83,15.95,26.48,29.27-.61,5.97-2.45,11.45-5.72,16.37-1.72,2.58-1.35,3.82,1.26,5.35,6.37,3.73,11.75,8.64,16.09,14.65,.17,.23,.58,.29,1.03,.5,3.16-6.79,8.2-11.85,14.11-16.06,3.87-2.75,7.72-5.64,11.92-7.77,11.16-5.67,17.39-14.77,20.03-26.76,1.28-5.8,1.8-11.54,.45-17.36-1.79-7.68-10.83-14.36-17.7-12.7-8.11,1.97-15.18,5.94-20.55,12.51-3.92,4.8-4.77,4.71-9.28,.24-7.95-7.88-17.24-12.65-28.85-11.35-8.04,.9-13.57,5.68-19.1,11.94Z"/>
  </g>
</svg>