<?xml version="1.0" encoding="UTF-8"?>
<svg id="Ebene_2" data-name="Ebene 2" xmlns="http://www.w3.org/2000/svg" viewBox="0 0 102.16 100">
  <defs>
    <style>
      .cls-1 {
        stroke: #ff6b35;
        stroke-linecap: round;
        stroke-linejoin: round;
      }

      .cls-1, .cls-2 {
        fill: #ff6b35;
      }
    </style>
  </defs>
  <g id="Ebene_1-2" data-name="Ebene 1">
    <path class="cls-2" d="M64.46,10.96c2.98,2.24,7.09,3.93,10.96,6.16,2.51,1.44,4.33,3.41,6.59,5.04,5.52,3.98,10.89,8.21,15.06,13.29,3.9,4.74,3.56,7.99,1,11.16-3.79,4.7-10.84,4.28-17.9,3.79-3.44-.24-3.53,1.89-4.49,3.27-3.29,4.71-5.83,9.9-8.03,15.29-.31,.75-.1,1.23,.81,2.17,3.6,3.72,6.76,7.52,7.83,11.77,.39,1.54,1.71,3.27,2.74,4.9,1.17,1.85,1.44,3.66,1.95,5.39,.6,2.06-1.92,2.09-3.74,2.34-5.36,.75-11.35-1.38-17.26-3.64-6.17-2.37-12.31-5.19-18.27-8.52-1.34-.75-1.7-.46-2.29,.05-1.57,1.35-2.64,3.02-3.63,4.76-1.86,3.25-4.07,6.31-5.58,9.75-.73,1.67-2.67,1.73-4.27,2.05-1.4,.28-1.48-1.43-1.44-2.02,.08-1.08,.22-2.28,.65-3.09,.95-1.8,.81-4.11,1.92-5.78,1.31-1.96,1.52-4.44,1.92-6.85,.23-1.4,1.15-2.52,1.87-3.7,.54-.87,.34-1.52-1.13-2.49-4.82-3.16-9.51-6.5-13.85-10.23-4.91-4.22-9.04-8.71-12.59-13.61-1.92-2.64-2.77-5-3.23-7.45-.5-2.72,2.46-2.34,4.35-2.71,4.71-.9,10.28,.12,15.78,1.87,5.43,1.72,8.65,1.39,9.65-2.5,1.36-5.3,5.15-9.33,4.82-15.59-.1-1.85-.63-3.24-1.76-4.96-3.92-5.95-7.23-11.9-8.36-17.83-.07-.37-.08-.89,.18-1C27.78,.75,31.08-.36,35.21,.11c9.58,1.09,19.17,4.45,29.25,10.85Zm-29.6,64.72c9.71,6.41,19.91,11.14,30.38,14.95,2.63,.96,5.12,1.44,7.48,1.29,1.96-.13,2.49-.98,1.43-2.89-1.95-3.49-3.51-7.04-5.8-10.46-2.57-3.85-5.45-7.73-11.31-8.4-2.36-.27-5.04-1.83-7.25-3.24-6.45-4.11-12.93-8.29-19.03-12.85-6.99-5.22-13.84-7.2-20.78-7.44-4.21-.14-4.93,2.21-2.26,5.83,.77,1.05,1.63,2.09,2.47,3.12,6.66,8.11,15.37,14.38,24.67,20.1ZM62.07,30.31c6.98,5.06,14.73,8.79,22.65,12.07,7.03,2.91,11.34,2.06,11.14-2.25-.1-2.17-1.53-4.26-3.59-6.27-7.54-7.35-16.02-13.69-25.34-19.13-7.89-4.61-15.89-8.47-24.22-10.54-4.02-1-7.76-1.24-10.92-.37-2.55,.7-2.91,2.84-.94,4.56,2.68,2.33,5.33,4.87,8.33,6.72,7.74,4.79,14.72,10.64,22.89,15.22Zm-28.66,12.47c-.42,.72-.77,1.49-1.29,2.14-.82,1.04-.58,2.27,1.05,3.52,2.76,2.1,5.04,4.65,8.15,6.4,5.13,2.88,10.23,5.83,15.37,8.66,1.41,.78,2.94,1.3,4.42,1.86,1.45,.55,2.41,.42,2.72-.71,1.38-5.15,4.36-9.31,7.6-13.3,1-1.23,.72-2.23-1.65-3.62-6.36-3.73-12.73-7.47-18.95-11.44-3.11-1.98-6.08-4.23-9.2-6.25-2.31-1.5-3.39-1.73-3.65,.35-.58,4.62-3.09,8.25-4.58,12.4Zm51.65,4.41c-16.93-8.95-33.76-17.73-49.24-29.3,1.09,3.46,3.43,6.46,6.72,8.63,8.82,5.82,17.13,12.41,26.54,17.38,5.81,3.07,11.06,4.32,15.98,3.29Z"/>
    <g>
      <path class="cls-1" d="M92.64,17.82c1.78-.37,3.96-.64,6.44-.56,.92,.03,1.78,.11,2.58,.22-2.3,1.98-4.6,3.95-6.9,5.93-1.37,.49-3.15,.98-5.26,1.21-1.41,.15-2.69,.15-3.79,.09,2.31-2.3,4.62-4.59,6.93-6.89h0Z"/>
      <path class="cls-1" d="M81.56,16.9c.21-1.46,.61-3.18,1.37-5.02,.28-.68,.58-1.31,.89-1.89,.86,2.3,1.72,4.61,2.58,6.91,0,1.18-.13,2.66-.55,4.32-.28,1.11-.63,2.08-.99,2.89-1.1-2.4-2.2-4.81-3.3-7.21h0Z"/>
    </g>
  </g>
</svg>