<?xml version="1.0" encoding="UTF-8"?>
<svg id="Ebene_2" data-name="Ebene 2" xmlns="http://www.w3.org/2000/svg" viewBox="0 0 100 100">
  <defs>
    <style>
      .cls-1 {
        fill: #ff6b35;
      }
    </style>
  </defs>
  <g id="Ebene_1-2" data-name="Ebene 1">
    <path class="cls-1" d="M80.73,99.98c-.44,.12-.92-.34-1.45-.63-3.78-2.09-7.23-4.69-10.67-7.34-3.86-2.97-7.9-5.67-11.82-8.56-1.85-1.36-3.07-3.39-4.62-5.07-3.31-3.59-2.26-4.23-6.78-1.22-6.09,4.06-12.34,7.87-18.36,12.04-3.58,2.48-6.89,5.4-10.23,8.23-.6,.51-1.12,1-1.72,.51-.57-.47-1.03-1.02-.77-2.15,.9-3.86,2.42-7.47,3.9-11.07,1.92-4.68,3.85-9.37,6.28-13.8,.74-1.35,1.64-2.6,2.48-3.89,.77-1.17,.68-2.12-.3-3.22-4.17-4.68-8.65-9.13-12.26-14.25-2.86-4.08-6.72-7.21-9.19-11.63-1.05-1.89-3.03-3.19-4.52-4.83-.25-.27-1.01-.48-.6-1.11,.31-.48,.86-.78,1.44-.59,4.09,1.34,8.34,1.25,12.54,1.64,4.56,.43,8.84,2.24,13.28,3.27,1.51,.35,3.03,.9,4.54,.9,2.29,.01,4.45,.4,6.49,1.41,1.1,.54,1.22-.12,1.48-.96,2.42-7.92,4.77-15.86,7.34-23.72,1.29-3.93,2.02-8.05,3.82-11.81C51.63,.95,52.18-.02,53.51,0c1.42,.02,1.27,1.25,1.57,2.29,1.03,3.64,2.4,7.18,3.31,10.84,1.94,7.82,5.09,15.24,6.76,23.14,.73,3.43,1.55,3.95,4.89,3.99,4.75,.05,9.39,1.22,14.13,1.4,3.04,.12,6.06,.74,9.1,.93,1.77,.11,3.5,.27,5.25,.59,.65,.12,1.15,.29,1.48,.88-.9,.28-.31,1.58-1.28,1.92-3.73,1.32-6.83,3.87-10.22,5.87-4.23,2.49-8.48,4.92-13.02,6.77-1.75,.71-3.33,1.88-5.04,2.7-.96,.46-.93,1.04-.6,1.87,.85,2.18,1.9,4.24,3.06,6.24,3.56,6.16,5.47,13.01,7.38,19.84,.81,2.89,1.23,5.89,2.02,8.79,.41,1.5-.22,1.76-1.57,1.9Z"/>
  </g>
</svg>