<?xml version="1.0" encoding="UTF-8"?>
<svg id="Ebene_2" data-name="Ebene 2" xmlns="http://www.w3.org/2000/svg" viewBox="0 0 100 100">
  <defs>
    <style>
      .cls-1 {
        stroke: #ff6b35;
        stroke-linecap: round;
        stroke-linejoin: round;
      }

      .cls-1, .cls-2 {
        fill: #ff6b35;
      }
    </style>
  </defs>
  <g id="Ebene_1-2" data-name="Ebene 1">
    <g>
      <path class="cls-2" d="M20.22,44.66c.2-4.44-.21-8.06-.85-11.69-.13-.76-.51-1.24-1.13-1.61-3.18-1.87-6.35-3.77-9.58-5.57-2.12-1.18-2.54-.89-2.62,1.35-.2,5.76-.3,11.53,.14,17.27,.49,6.4,.07,12.8,.43,19.19,.16,2.78,.57,5.55,.86,8.32,.07,.69,.67,.99,1.2,1.35,1.62,1.09,2,2.78,.93,4.02-1.69,1.94-1.13,3.71-.37,5.59,1.75,4.33,1.87,8.96,2.9,13.42,.58,2.49-.2,2.71-2.93,3.37-2.01,.49-3.35,.65-4.73-1.04-.4-.49-1.91-.21-2.91-.31-1.43-.14-1.78-.83-1.43-2.09,1.27-4.48,2.49-8.98,3.66-13.48,.35-1.36,.65-2.73-.48-4.06-1.7-1.99-.61-3.83,.87-5.39,.8-.84,1.16-1.63,1.02-2.67-1.22-9.74-.63-19.52-1.05-29.28-.17-3.96-.11-7.93-.3-11.89-.12-2.5,.87-4.98,.09-7.54-.23-.76,.55-1.48,1.47-2,4.04-2.29,8.52-3.75,12.65-5.84,7.51-3.81,15.77-6.04,23.56-9.25,3.75-1.55,7.89-2.31,11.25-4.64,.58-.4,.89-.06,1.34,.18,10.29,5.65,20.47,11.49,31.08,16.61,3.84,1.85,7.31,4.32,11.46,5.65,1.79,.57,1.95,2.47,3.13,3.59,.5,.47-.71,.93-1.18,1.14-2.67,1.2-5.41,2.27-8.11,3.41-1.97,.84-3.72,2.12-5.9,2.54-.71,.14-.69,.57-.74,1.04-.17,1.84-.28,3.66-.17,5.53,.16,2.83-.08,5.67-.16,8.51-.02,.67-.28,1.38-.1,1.99,.7,2.4-.95,3.7-2.75,4.71-4.52,2.54-9.61,3.68-14.77,4.51-6.54,1.04-13.01,2.58-19.74,2.29-7.17-.31-13.73-2.34-19.8-5.79-1.18-.67-2.33-1.39-3.56-1.95-1.93-.88-1.73-.86-2.2-3.32-.45-2.32-.24-4.64-.47-6.18Zm24.73,1.05c1.96-.32,3.8-.95,5.58-1.75,5.19-2.32,10.55-4.27,15.89-6.28,9.59-3.61,19.55-6.41,28.69-10.99,.5-.25,1.2-.34,1.32-.95,.13-.68-.55-.85-1.04-1.13-8.98-5.25-18.61-9.49-27.5-14.87-2.86-1.73-6.13-2.76-8.88-4.73-2.85-2.04-5.95-2.29-9.56-.83-6.68,2.69-13.64,4.78-20.42,7.28-7.12,2.63-13.87,5.99-20.72,9.15-.69,.32-1.59,.63-1.59,1.51,0,.99,1.02,1.2,1.77,1.57,4.32,2.13,8.51,4.48,12.4,7.19,6.98,4.85,14.16,9.43,21.44,13.9,.79,.49,1.63,.9,2.62,.95Zm-23.23-11.86c.57,4.45,1.02,8.35,.78,12.27-.24,4,1.11,6.88,5.52,8.69,5.61,2.31,11.04,4.77,17.37,5.02,5.38,.21,10.65-.35,15.86-1.38,5.49-1.09,11.01-2.13,16.2-4.18,1.73-.68,3.53-1.4,3.76-3.51,.53-4.88,.34-9.77,.44-14.65,.03-1.51-.51-1.71-1.89-1.23-3.07,1.08-6.18,2.06-9.24,3.15-7.9,2.81-15.56,6.13-23.24,9.41-1.76,.75-3.4,.8-5.13-.34-3.96-2.62-7.97-5.19-12.07-7.61-2.74-1.62-5.28-3.48-8.37-5.62ZM6.83,83.01c-1.09,.78-1.56,1.68-1.84,2.65-.8,2.78-1.54,5.57-2.33,8.36-.47,1.68-.2,2.77,2.11,2.59,.88-.07,1.67,.34,2.43,.8,.7,.43,1.58,.47,2.27,.02,.65-.42,.3-1.1,.15-1.68-.39-1.5-.6-3.01-.77-4.55-.29-2.72-.84-5.41-2.02-8.2Zm-.39-7.89c-1.1-.05-1.65,.49-1.62,1.44,.02,.73,.44,1.36,1.31,1.32,1.19-.05,1.5-.98,1.63-1.84,.12-.84-.64-.91-1.33-.93Z"/>
      <g>
        <path class="cls-1" d="M21.42,88.6c1.79,.36,3.9,.96,6.14,2.01,.83,.39,1.59,.8,2.29,1.21-2.89,.92-5.78,1.83-8.67,2.75-1.46-.09-3.28-.33-5.31-.95-1.36-.42-2.54-.92-3.52-1.41,3.03-1.2,6.05-2.41,9.08-3.62h0Z"/>
        <path class="cls-1" d="M11.59,83.4c.77-1.25,1.81-2.68,3.23-4.08,.52-.52,1.05-.98,1.56-1.39-.11,2.46-.23,4.91-.34,7.37-.47,1.08-1.17,2.4-2.2,3.76-.69,.91-1.4,1.66-2.04,2.27-.07-2.64-.13-5.28-.2-7.93h0Z"/>
      </g>
    </g>
  </g>
</svg>