<?xml version="1.0" encoding="UTF-8"?>
<svg id="Ebene_2" data-name="Ebene 2" xmlns="http://www.w3.org/2000/svg" viewBox="0 0 118.21 193.4">
  <defs>
    <style>
      .cls-1 {
        fill: #ff6b35;
        stroke: #ff6b35;
        stroke-linecap: round;
        stroke-linejoin: round;
        stroke-width: .75px;
      }
    </style>
  </defs>
  <g id="Ebene_1-2" data-name="Ebene 1">
    <path class="cls-1" d="M1.05,.51C3.45-.94,11.21,9.2,24.28,23.75c21.43,23.85,26.06,24.98,37.28,41.11,5.58,8.03,9.79,14.08,13.53,23.49,4.44,11.17,5.98,21.4,8.17,36.51,3.14,21.71,2.45,29.88,7.79,32.17,6.09,2.62,15.21-4.51,16.85-5.74,7.12-5.4,8.69-11.82,9.57-11.49,2.51,.92-8.39,53.04-22.6,53.23-3.8,.05-4.48-3.67-16.09-14.55-12.82-12.02-21.78-16.66-20.68-19.15,1.42-3.23,16.42,4.65,23.36-1.53,3.75-3.34,3.98-9.74-.77-30.64-6.26-27.58-9.39-41.36-18-55.91-5.09-8.6-11.87-20.06-24.89-30.64C22.35,28.04,5.9,23.06,1.3,7.41,.99,6.34-.46,1.42,1.05,.51Z"/>
  </g>
</svg>