<?xml version="1.0" encoding="UTF-8"?>
<svg id="Ebene_2" data-name="Ebene 2" xmlns="http://www.w3.org/2000/svg" viewBox="0 0 100 100">
  <defs>
    <style>
      .cls-1 {
        stroke: #ff6b35;
        stroke-linecap: round;
        stroke-linejoin: round;
      }

      .cls-1, .cls-2 {
        fill: #ff6b35;
      }
    </style>
  </defs>
  <g id="Ebene_1-2" data-name="Ebene 1">
    <g>
      <g>
        <path class="cls-2" d="M11.74,45.55c6.34-1.02,13.25-.32,20.1-.85,4.13-.31,8.18-.02,12.27,.1,1.96,.06,2.5-.7,2.15-2.84-1.3-7.94-.47-15.58,2.36-23.13,3.78-10.09,11.32-15.18,20.77-18.08,5.86-1.8,11.23-.06,16.56,2.23,7.87,3.39,11.34,9.96,12.84,18.31,.61,3.39,.19,6.79,.95,10.2,.42,1.86,.19,4.2,.23,6.32,.02,.95-.5,1.72-1.21,1.62-2.11-.29-4.04,2.46-6,.65-1-.92-.96-2.8-1.22-4.29-.76-4.32-.88-8.84-3.21-12.71-2.43-4.04-4.87-8.1-9.2-10.29-9.01-4.55-16.32-.07-19.56,8.66-2.07,5.58-3.31,11.29-3.38,17.32-.02,1.89,1.51,3.37,.76,5.43-.3,.83,1.1,.98,1.88,.97,4.62-.03,4.64-.05,6.12,4.29,.85,2.49,.83,5.07,.69,7.69-.38,6.92-.95,13.85,.05,20.78,.21,1.43,.05,2.92,0,4.38-.12,3.39,.93,6.7,.62,10.11-.02,.23-.08,.53,.03,.68,1.99,2.92-1.03,2.42-1.97,2.76-2.78,1.02-5.81,.91-8.71,1.12-8.02,.59-16.04,1.37-24.11,1.33-6.47-.03-12.95,.13-19.4,.67-2.06,.17-4.29-.02-6.39,.98-.67,.32-1.82-1.54-2.48-2.74-1.04-1.91-.6-4.05-.96-6.06-.92-5.15-1.46-10.4-1.74-15.63-.28-5.32-.01-10.67-.1-16.01-.04-2.73-.44-5.45-.47-8.18-.04-3.57,.3-4.85,4.39-5.36,2.28-.28,4.52-.75,7.35-.44Zm50.75,39.74c0-1.53-.02-2.91,0-4.29,.12-8.17-.36-16.35,.51-24.5,.18-1.67-.2-2.46-2.13-2.46-10.49,0-20.97,.47-31.46,.41-8.19-.05-16.39,.57-24.57,1.22-2.04,.16-2.39,.76-2.32,2.63,.19,4.77,.2,9.54,.42,14.31,.23,5.23,.74,10.41,1.34,15.6,.19,1.61,.85,2.37,2.63,2.18,5.43-.59,10.89-.7,16.33-1.11,8.63-.66,17.23-1.49,25.8-2.66,4.45-.61,8.88-1.52,13.43-1.33ZM97.26,31.36c-.28-3.69-.56-7.83-1.34-11.91-.89-4.62-2.99-8.64-6.55-11.48-5.37-4.3-11.45-6.23-18.32-4.74-8.51,1.85-15.15,6.24-19.18,14.53-3.76,7.73-4.04,15.92-3.34,24.28,.03,.38,.15,.76,.3,1.1,.85,1.94,2.62,1.62,4.07,1.49,1.65-.14,.66-1.61,.59-2.4-.7-7.84,.54-15.38,3.54-22.54,4.98-11.89,15.81-15.26,25.85-7.98,5.07,3.68,8.19,9.25,10.26,15.35,.12,.35,.1,.76,.16,1.14,.39,2.5,.77,5.01,1.17,7.5,.1,.62,.29,1.29,.97,1.4,.8,.13,1.19-.53,1.46-1.18,.55-1.33,.21-2.75,.37-4.58ZM37.99,95.8c8.85-.24,14.69-1.4,20.61-1.47,1.15-.01,2.3-.55,3.5-.5,.46,.02,.96-.11,.97-.7,0-1.54-.02-3.08-.11-4.62-.04-.7-.55-.77-1.14-.7-8.21,.92-16.42,1.88-24.64,2.71-6.09,.61-12.19,1.31-18.3,1.48-3.85,.11-7.64,.92-11.5,.76-1.84-.07-2.23,1.24-1.96,2.82,.26,1.56,1.53,1.19,2.5,1.2,11.02,.05,22.03-.61,30.09-.98Zm10.19-44c4.2-.21,8.29,.35,12.33-.5,1.84-.39,2.08-1.27,.91-2.81-.6-.79-1.38-.79-2.2-.81-2.15-.04-4.35,.19-6.44-.19-5.95-1.1-11.96-.43-17.93-.65-5.06-.19-10.23-.07-15.32,.32-5.01,.38-10.08,.11-15.03,1.27-2.49,.58-2.65,.95-2.03,3.48,.51,2.08,2.19,1.33,3.26,1.29,7.24-.31,14.47-1.15,21.71-1.14,6.96,.01,13.9-.39,20.72-.26Z"/>
        <path class="cls-2" d="M31.17,61.8c4.36,.03,6.63,4.66,3.7,8.64-2.72,3.69-2.3,7.19-1.26,11.03,.25,.94,.44,1.81-.42,2.53-.6,.5-1.22,.88-2.03,.49-.96-.46-1.1-1.31-1.17-2.29-.18-2.76-.8-5.48-.57-8.27,.1-1.24-.62-1.92-1.53-2.59-1.97-1.47-2.82-3.91-2.17-5.83,.7-2.05,3.16-3.72,5.44-3.71Z"/>
      </g>
      <g>
        <path class="cls-1" d="M22.22,35.12c1.25-1.33,2.88-2.8,4.96-4.14,.77-.5,1.52-.93,2.24-1.3-.75,2.94-1.51,5.88-2.26,8.81-.84,1.19-2.02,2.61-3.62,4-1.07,.93-2.12,1.67-3.06,2.24,.58-3.2,1.16-6.41,1.74-9.62h0Z"/>
        <path class="cls-1" d="M12.61,40.71c-.66-1.32-1.32-2.96-1.75-4.9-.16-.72-.28-1.41-.36-2.06,2.02,1.4,4.05,2.8,6.07,4.19,.67,.97,1.42,2.26,2.02,3.86,.41,1.07,.67,2.07,.84,2.94-2.28-1.34-4.55-2.68-6.83-4.03h0Z"/>
      </g>
    </g>
  </g>
</svg>