<?xml version="1.0" encoding="UTF-8"?>
<svg id="Ebene_2" data-name="Ebene 2" xmlns="http://www.w3.org/2000/svg" viewBox="0 0 100.5 100">
  <defs>
    <style>
      .cls-1 {
        stroke: #ff6b35;
        stroke-linecap: round;
        stroke-linejoin: round;
      }

      .cls-1, .cls-2 {
        fill: #ff6b35;
      }
    </style>
  </defs>
  <g id="Ebene_1-2" data-name="Ebene 1">
    <g>
      <g>
        <path class="cls-2" d="M86.32,5.51c.45,1.58-.68,3.21,.92,4.7,.16,.14,.16,.48-.02,.57-3.25,1.71-1.73,3.9-1.77,5.87-.1,4.74-.98,9.42-3.2,13.98-1.63,3.35-6.12,5.86-9.55,8.67-4.85,3.98-9.52,7.93-8.88,13.13,.27,2.23,2,4.04,3.47,5.95,3.06,3.99,7.9,7.4,12.02,11.03,4.83,4.25,7.28,8.78,5.23,13.79-.57,1.4,.93,2.5,.88,3.81-.09,2.29-.65,4.56-.14,6.88,.38,1.74-1.66,2.51-4.83,2.76-6.8,.55-13.71,.53-20.45,1.45-4.05,.55-8.4,.59-12.48,.63-9.66,.09-19.24,1.05-28.93,.73-2.05-.07-4.05,.1-6.14,.46-2.16,.38-3.83-.78-3.87-1.95-.12-3.76-1.69-7.44-2-11.17-.36-4.3,2.75-8.24,6.23-12.01,4.78-5.17,11.4-9.69,17.02-14.56,3.48-3.02,7.07-6.22,5.88-10.07-.87-2.82-3.34-5.39-5.28-8.03-2.55-3.48-7.5-6.1-10.69-9.34-4.05-4.11-9.07-7.96-10.85-12.69-.57-1.51-.24-3.02-.4-4.52-.07-.66,.35-1.58-1.31-1.7-3.58-.27-3.68-1.7-4.13-3.2-.55-1.86-1.86-3.65-1.72-5.58,.03-.47-.04-.99-.37-1.41C-.79,1.47-.35,1.14,4.05,1.14c13.65-.02,27.33,.23,40.93-.22,11.04-.36,22.07-.3,33.1-.49,.98-.02,2.05,.02,2.9-.19,2.6-.64,5.04,.01,5.29,1.59,.19,1.23,.04,2.48,.04,3.68ZM28.47,13.12s0-.04,0-.06c-1.74,0-3.47-.01-5.21,0-1.74,.02-3.47,.03-5.21,.1-4.6,.18-5.47,.61-5.04,3.2,.64,3.82,3.45,7.25,6.57,10.64,4.07,4.43,10.23,8.11,14.18,12.56,2.8,3.15,5.19,6.46,6.54,9.85,1.53,3.85-.94,7.52-4.7,10.77-5.02,4.34-10.64,8.47-15.57,12.83-3.67,3.25-7.24,6.62-8.04,10.56-.9,4.49,.22,4.89,8.36,4.14,7.42-.68,14.92-1.17,22.43-1.5,11.34-.5,22.72-.8,34.08-1.18,1.34-.04,2.59-.16,2.6-1.09,.05-4.31,.93-8.66-4.35-12.47-5.68-4.1-9.92-8.71-14.08-13.31-1.93-2.14-3.52-4.42-2.99-6.93,.83-3.95,2.85-7.59,7.25-10.87,4.27-3.18,9.42-6.18,11.67-9.99,3.33-5.65,4.06-11.56,3.64-17.5-.07-.94-.54-1.3-2.5-1.15-4.51,.35-9.04,.57-13.63,.63-12.01,.15-24.01,.51-36.01,.78Zm22.96-2.95c9.96,.16,17.44-.33,24.88-.9,1.87-.15,4.31,.25,5.6-.72,1.28-.96-.4-2.09-.37-3.18,.06-2.94-.35-3.13-5.79-3.06-9.74,.14-19.48,.41-29.23,.49-12.37,.1-24.75,.04-37.12,.07-3.95,0-5.53,.85-4.44,2.66,.86,1.43,1.58,2.87,2.32,4.32,.37,.74,.92,1.3,2.83,1.22,14.55-.66,29.2,.21,41.32-.89Zm-6.52,78.76c-2.94,.24-5.88,.07-8.87,.38-6.07,.63-12.22,1.11-18.37,1.36-6.47,.27-6.47,.12-5.12,3.52,.21,.54,.3,1.09,.42,1.63,.13,.59,.5,1.1,1.71,1.16,2.82,.15,5.76,.6,8.44,.32,6.49-.68,13.09-.54,19.57-.75,10.17-.34,20.18-1.1,30.22-1.85,6.68-.5,6.68-.53,6.61-4.12-.05-2.68-.06-2.79-5.05-2.66-9.86,.26-19.71,.66-29.56,1.01Z"/>
        <path class="cls-2" d="M39.55,80.99c-4.27-.18-7.65,1.04-11.11,2.12-1.19,.37-2.34,1.03-3.54,.15-1.31-.96-.24-1.8,1.17-2.26,5.36-1.76,10.9-3.5,17.43-2.79,3.86,.42,7.55,.5,11.33,0,.95-.13,2.15-.28,2.58,.39,.37,.57-.72,.79-1.39,1.07-3.72,1.56-7.64,2.54-12.44,1.58-1.24-.25-2.69-.18-4.04-.26Z"/>
        <path class="cls-2" d="M53.16,23.3c-.72-.07-1.49-.08-2.17-.23-5.21-1.15-10.18-.79-15,.67-1.16,.35-2.39,.63-3.16-.23-.78-.87-.35-1.61,1.23-2.08,5.46-1.63,11.32-1.94,17.28-1.33,2.48,.25,4.84,.51,7.31,.12,1.15-.18,2.35-.24,2.9,.47,.54,.7-.72,.92-1.48,1.22-2.07,.8-4.36,1.28-6.91,1.4Z"/>
        <path class="cls-2" d="M52.68,51.11c-.39,1.03-1.31,1.74-3.18,1.75-1.38,0-2.42-.55-2.31-1.31,.17-1.13,1.8-1.6,3.62-1.65,1.37-.04,1.75,.61,1.87,1.21Z"/>
      </g>
      <g>
        <path class="cls-1" d="M91.01,67.05c1.83-.1,4.03-.04,6.46,.41,.9,.17,1.75,.37,2.52,.6-2.59,1.6-5.17,3.2-7.76,4.8-1.44,.28-3.27,.5-5.4,.4-1.43-.06-2.69-.25-3.77-.48,2.65-1.91,5.29-3.83,7.94-5.74h0Z"/>
        <path class="cls-1" d="M80.18,64.5c.44-1.4,1.1-3.03,2.14-4.74,.38-.63,.78-1.2,1.17-1.73,.49,2.39,.98,4.79,1.47,7.18-.19,1.16-.55,2.6-1.22,4.17-.45,1.05-.95,1.95-1.43,2.69-.71-2.53-1.43-5.05-2.14-7.58h0Z"/>
      </g>
    </g>
  </g>
</svg>