<?xml version="1.0" encoding="UTF-8"?>
<svg id="Ebene_2" data-name="Ebene 2" xmlns="http://www.w3.org/2000/svg" viewBox="0 0 100.12 100.5">
  <defs>
    <style>
      .cls-1 {
        stroke: #ff6b35;
        stroke-linecap: round;
        stroke-linejoin: round;
      }

      .cls-1, .cls-2 {
        fill: #ff6b35;
      }
    </style>
  </defs>
  <g id="Ebene_1-2" data-name="Ebene 1">
    <g>
      <g>
        <path class="cls-2" d="M49.23,.78c5.31-.32,9.82,1.31,14.34,2.64,8.58,2.51,15.37,8.25,21.2,15.43,3.14,3.87,4.74,8.5,5.13,13.85,.21,2.98,.31,5.96,.52,8.93,.18,2.69-.13,5.4-.19,8.04-.19,8.63,2.93,15.07,8.79,20.25,1.58,1.4,1.2,4.44-.63,5.47-.5,.28-1.14,.29-1.13-.47,0-1.04-.59-1.29-1.21-1.68-4.47-2.82-9.44-3.92-14.38-5.12-.54-.13-1.27-.21-1.69,.08-2.22,1.52-4.9,1.88-7.07,3.53-6.87,5.22-14.58,7.52-22.77,8.73-5.92,.87-11.84-.06-17.71,.79-6.78,.97-13.43,2.51-19.47,6.32-3.3,2.08-5.84,5.06-8.01,8.45-.7,1.09-1.35,2.22-2.07,3.3-.35,.52-.55,1.52-1.39,1.07-.67-.36-1.36-.93-1.4-1.9-.03-.86-.24-1.79,.19-2.58,2.32-4.28,2.55-9.21,3.57-13.89,1.08-4.93,.61-9.94,.49-14.89-.08-3.15-1.24-6.25-1.52-9.41-.51-5.75-.56-11.41,2.39-16.68,1.86-3.32,3.78-6.48,6.46-9.03,.41-.38,.59-.71,.32-1.41-2.3-5.91,.58-10.51,3.39-14.92,4.32-6.78,10.91-10.04,17.68-12.42,2.97-1.04,6.27-1.67,9.58-1.74,2.34-.05,4.67-1.2,6.6-.74ZM5.63,89.58c8.66-7.47,18.5-10.5,29.04-10.91,6.49-.25,12.99-.49,19.4-1.57,6.23-1.05,12.11-3.62,17.28-7.65,2.79-2.17,5.01-5.13,5.99-9,1.49-5.85,1.68-11.76,.49-17.64-.94-4.66-3.2-8.59-6.55-11.7-3.1-2.87-6.62-4.98-10.11-7.13-5.22-3.22-10.91-4.73-16.81-4.71-5.82,.02-11.37,1.93-16.76,4.34-6.08,2.73-11.09,7.21-15.58,12.36-2.57,2.95-4.8,6.34-5.8,10.45-1.21,4.95-.69,9.89,.15,14.81,.68,3.98,.98,7.97,1.07,12.03,.12,5.5-.99,10.8-1.83,16.33Zm73.05-23.95c4.19-1.46,7.62,.4,11.18,.99,.47,.08,1,.52,1.37-.07,.29-.46-.12-.91-.35-1.28-3.18-5.08-3.57-10.95-3.78-16.83-.15-4.29-.12-8.6,0-12.89,.15-5.42-1.45-10.05-4.38-14.34-1.55-2.27-3.53-3.95-5.39-5.77-3.44-3.36-7.22-6.37-11.63-7.83-7.45-2.47-14.92-4.44-22.92-2.97-6.32,1.16-12.47,2.25-18.05,6.1-4.81,3.31-8.52,7.4-10.25,13.51-.44,1.54-.41,3.01-.23,4.71,3.56-2.34,6.41-5.41,9.99-7.02,4.75-2.14,9.46-4.37,14.66-5.12,5.18-.75,10.25-.52,15.29,.68,7.62,1.82,13.69,6.94,19.78,11.96,.78,.65,1.33,1.65,1.98,2.49,4.2,5.45,5.13,12.11,5.4,18.9,.2,4.91-.53,9.76-2.66,14.78Z"/>
        <path class="cls-2" d="M39.09,41.75c3.46,.02,6.73,3.09,6.71,6.29-.02,3.43-4.11,8.2-6.99,8.15-3.08-.06-6.63-3.23-6.63-5.93-.01-4.91,2.92-8.53,6.91-8.5Zm-.02,2.86c-1.97,.06-4.62,2.83-4.64,4.87-.02,1.47,2.52,3.79,4.16,3.81,1.8,.02,4.36-2.98,4.36-5.11,0-1.73-2.05-3.62-3.87-3.57Z"/>
        <path class="cls-2" d="M59.82,39.59c3.8-.05,6.42,2,6.28,5.15-.2,4.54-3.05,7.56-6.68,7.89-2.03,.19-6.57-2.7-6.57-4.03,0-5.34,2.8-8.97,6.96-9.02Zm.08,2.77c-1.87,.03-4.26,2.64-4.24,4.64,.01,1.29,1.93,2.84,3.53,2.85,1.93,.01,4.06-2.5,4.04-4.75-.02-1.67-1.35-2.77-3.33-2.74Z"/>
        <path class="cls-2" d="M24.54,52.32c-.1,3.07-2.91,6.53-5.27,6.49-2.35-.04-4.67-3.02-4.55-5.86,.16-3.79,2.08-5.93,5.18-5.76,3.18,.18,4.75,1.91,4.64,5.13Zm-5.42,3.36c1.41,.06,2.91-1.76,2.87-3.38-.04-1.65-1.18-2.08-2.32-2.21-1.38-.16-3.03,1.63-2.9,3.12,.14,1.59,1.31,2.08,2.35,2.47Z"/>
      </g>
      <g>
        <path class="cls-1" d="M90.68,9.72c1.82-.06,4.01,.05,6.44,.56,.9,.19,1.73,.42,2.51,.66-2.61,1.55-5.21,3.1-7.82,4.64-1.44,.25-3.27,.42-5.39,.28-1.42-.09-2.68-.31-3.75-.57,2.67-1.86,5.34-3.72,8.01-5.58h0Z"/>
        <path class="cls-1" d="M79.92,6.91c.46-1.39,1.15-3.02,2.22-4.7,.39-.62,.8-1.19,1.2-1.7,.45,2.41,.9,4.83,1.35,7.24-.21,1.16-.59,2.6-1.29,4.15-.47,1.05-.98,1.94-1.47,2.67-.67-2.55-1.34-5.1-2-7.66h0Z"/>
      </g>
    </g>
  </g>
</svg>