<?xml version="1.0" encoding="UTF-8"?>
<svg id="Ebene_2" data-name="Ebene 2" xmlns="http://www.w3.org/2000/svg" viewBox="0 0 100 100">
  <defs>
    <style>
      .cls-1 {
        stroke: #ff6b35;
        stroke-linecap: round;
        stroke-linejoin: round;
      }

      .cls-1, .cls-2 {
        fill: #ff6b35;
      }
    </style>
  </defs>
  <g id="Ebene_1-2" data-name="Ebene 1">
    <g>
      <path class="cls-2" d="M80.81,17.62c1.61-1.09,3.2-2.14,3.91-4.37,1.3-4.08,2.62-8.15,3.95-12.22,.14-.44,.24-1.13,.77-1.02,.56,.12,.68,.78,.73,1.41,.08,1.01-.21,1.92-.67,2.67-1.34,2.2-1.83,4.8-2.52,7.37,.79,.51,1.63-1.2,2.26,.08,.49,1.01-.49,1.65-.76,2.87,3.13-.85,6.1-1.61,9.05-2.48,.63-.19,1.19-.36,1.83-.07,.33,.15,.67,.13,.65,.73-.02,.48-.14,.83-.54,.96-.4,.14-.8,.34-1.21,.43-4.03,.85-7.91,2.72-12.07,2.71-1.97,0-2.97,1.99-4.28,3.79,2.46,0,4.92,.02,7.38-.02,.5,0,1-.78,1.5,.05,.34,.56,0,.96-.18,1.4-.31,.78-.91,1.28-1.53,1.07-2.74-.9-5.4-.36-8.05,.5-.13,.04-.35,.13-.4,.06-2.03-2.68-2.92,.48-4.06,1.39-2,1.6-3.97,3.38-5.41,5.84,7.07,5.28,8.63,13.17,7.57,22.64-.78,6.96-3.27,12.83-7.08,17.69-2.91,3.7-6.92,5.62-10.78,7.66-5.61,2.96-11.66,5.03-15.91,10.99-.64,.9-1.4,1.77-1.79,2.83-.67,1.84-1.5,1.39-2.13,.28-3.95-7.01-10.24-9.49-16.12-12.74-.88-.49-1.84-.63-2.79,.21-6.08,5.33-12.09,10.75-18.34,16.85,3.1,.02,5.5-1.21,7.94-2.3,.94-.42,2.16-2.37,2.85-.74,.74,1.77-1.18,2.1-2.15,2.72-3.29,2.11-6.93,2.47-10.51,3.1-.8,.14-1.34-.27-1.75-1.06-.45-.87,.29-1.28,.55-1.74,1.83-3.15,3.69-6.27,5.65-9.3,.43-.67,.92-2.18,1.9-1.32,1.03,.9-.02,1.77-.41,2.61-.33,.72-.96,1.26-.98,2.75,4.87-4.52,9.5-8.81,14.23-13.21-4.08-2.74-8.46-4.09-12.07-7.38-3.79-3.45-5.87-8.15-6.7-13.79-1.22-8.22,1.79-15,5.64-20.84,3.93-5.96,9.46-8.01,15.87-6.1,6.38,1.9,11.84,5.54,16.32,11.37,.82,1.07,1.12,.77,1.73-.09,4.4-6.3,9.78-10.63,16.42-12.58,3.05-.9,6.01-1.09,9.03-.04,1.11,.39,2.09,.68,2.97-1.04,.65-1.29,1.99-2.09,3.08-3,5.17-4.28,7.29-11.09,9.75-17.62,.27-.71,.4-2.02,1.31-1.65,1.07,.44,.55,1.55,.21,2.39-1.26,3.1-2.54,6.18-3.82,9.26Zm-3.43,30.07c-.69-5.45-1.79-11.18-6.89-14.37-4.14-2.59-8.34-2.69-12.66-1.3-6.01,1.94-10.96,5.96-14.93,11.85-1.36,2.02-2.46,2.09-3.64,.52-5.03-6.71-11.08-10.93-18.56-12.01-2.45-.36-4.54,.11-6.66,1.5-4.29,2.79-6.76,7.44-8.63,12.66-3.04,8.48-.62,18.55,5.68,23.53,3.14,2.48,6.74,3.84,10.15,5.66,1.37,.73,2.38,.4,3.4-.84,1.1-1.33,2.29-2.55,3.48-3.76,.42-.43,.98-.84,1.5-.17,.6,.78,.2,1.48-.27,2.02-.77,.88-1.64,1.63-2.41,2.51-1.7,1.92-1.65,2.03,.5,3.12,5,2.53,10.1,4.86,13.69,10.26,.71,1.06,1.29,.57,1.88-.28,2.18-3.12,4.81-5.53,7.9-7.14,3.94-2.05,7.84-4.25,11.84-6.13,9.99-4.71,14.22-15.44,14.63-27.61Z"/>
      <g>
        <path class="cls-1" d="M61.64,19.74c1.41-1.15,3.23-2.39,5.47-3.45,.83-.39,1.63-.72,2.4-.99-1.14,2.81-2.27,5.62-3.41,8.43-.99,1.07-2.35,2.32-4.12,3.49-1.19,.78-2.32,1.37-3.33,1.82,1-3.1,2-6.2,3-9.3h0Z"/>
        <path class="cls-1" d="M51.37,24c-.48-1.39-.91-3.11-1.09-5.09-.06-.74-.09-1.43-.08-2.08,1.82,1.65,3.64,3.31,5.46,4.96,.53,1.05,1.1,2.43,1.49,4.09,.26,1.12,.39,2.14,.45,3.02-2.08-1.63-4.16-3.26-6.24-4.9h0Z"/>
      </g>
    </g>
  </g>
</svg>