<?xml version="1.0" encoding="UTF-8"?>
<svg id="Ebene_2" data-name="Ebene 2" xmlns="http://www.w3.org/2000/svg" viewBox="0 0 100.5 100.5">
  <defs>
    <style>
      .cls-1 {
        stroke: #ff6b35;
        stroke-linecap: round;
        stroke-linejoin: round;
      }

      .cls-1, .cls-2 {
        fill: #ff6b35;
      }
    </style>
  </defs>
  <g id="Ebene_1-2" data-name="Ebene 1">
    <g>
      <g>
        <path class="cls-2" d="M1.63,23.08c.59-2.44-.81-4.77-.21-7.29,1-4.22,3.55-5.29,7.79-5.83,2.34-.3,4.76-.44,7.11-.48,3.88-.07,7.8,.24,11.67,.62,4.51,.43,9.05,.31,13.57,.61,8.95,.61,17.93,.91,26.9,1.11,3.51,.08,7.02,.07,10.52,.32,1.48,.1,2.3,.37,2.93,1.74,1.34,2.92,2.41,5.97,4.46,8.65,.92,1.21-.12,2.43-.1,3.66,.02,1.01-.34,1.95,.23,3,.68,1.27-.58,2.51-.56,3.86,.11,6.47,.12,12.94,.03,19.41-.09,6.52-.63,13.03-.64,19.57,0,1.99,.27,3.98,.12,5.98-.38,5.1-.69,10.19-1.08,15.29-.08,.99-.31,1.99-.64,2.95-.28,.81-.9,1.4-2.07,1.52-5.7,.56-11.33,1.32-17.13,1.43-9.76,.19-19.54-.03-29.29,.76-3.4,.27-6.88,.06-10.24,.24-3.69,.19-7.38,.2-11.06,.3-3.37,.09-6.51-.94-9.43-2.11-2.82-1.12-3.77-3.65-3.84-6.06-.09-3.27-.8-6.5-.65-9.76,.31-6.83,.26-13.67,.71-20.48,.74-11.19,.18-22.38,.44-33.57,.04-1.82,.9-3.59,.46-5.45Zm63.11,59.23c1.78,0,5.26,0,8.75,0,1.12,0,2.21-.09,2.36-1.28,.41-3.33,1.09-6.65,1.11-9.98,.08-14.45,.95-28.89,.59-43.34-.04-1.77,.09-3.52,.39-5.29,.33-1.98,.31-4.01-.17-6.04-.39-1.66-1.52-2.04-3.2-1.96-10.82,.53-21.56,.08-32.29-1.31-7.22-.94-14.55-1.35-21.87-1.62-3.34-.12-6.63,.39-9.96,.43-4.17,.05-6.5,1.85-6.7,5.33-.25,4.28-.39,8.57-.53,12.86-.37,11.33,.39,22.67-.31,34.01-.14,2.26-.6,4.55-.08,6.81,.23,1.01,.09,1.97,.02,2.98-.22,2.9-.17,5.82-.09,8.74,.02,.79,.41,1.77,1.87,1.22,4.91-1.87,10.26-1.53,15.39-1.87,5.31-.35,10.71-.26,16.07-.24,9,.03,17.96,.85,28.66,.56Zm13.5,9.98c.06-1.53-.97-1.76-2.48-1.75-9,.03-18-.04-27,0-13.98,.05-27.96-1.17-41.94-.03-2.53,.21-2.5,.14-2.18,2.18,.42,2.61,2.44,3.69,5.13,4.15,10.81,1.84,21.66,1.21,32.5,.25,7.14-.63,14.23-1.54,21.43-1.6,3.56-.03,7.12-.54,10.68-.83-3.6-.84-7.19-.41-10.71-.25-5.35,.24-10.71,.19-16.03,.07-5.56-.13-11.14-.12-16.71-.27-7.47-.2-14.97-.42-22.44,.36-.84,.09-2.1,.29-2.16-.79-.06-1.08,1.2-.95,2.06-.95,3.63-.01,7.27,.1,10.9,.02,10.9-.25,21.79,.49,32.69,.36,8.68-.1,17.36-.58,26.24-.89Zm-34.79-6.45c-.88-.61-1.78-.62-2.66-.65-3.32-.09-6.66-.06-9.97-.28-7.17-.47-14.32-.72-21.42,.59-1.13,.21-2.23,.5-2.97,1.28-.55,.58-1.53,1.2-1.19,1.93,.39,.84,1.61,.45,2.45,.45,6.84-.05,13.72-.56,20.51-.12,9.36,.61,18.7,.36,28.03,.32,6.48-.03,13,.08,19.49-.42,1.82-.14,1.48-.65,1.14-1.54-.36-.93-1.29-.87-2.21-.98-3.05-.38-5.98,.53-9.01,.5-8.45-.08-16.92-.2-25.36,.1-8,.29-16,.31-24,.45-3.03,.05-6.07-.31-9.12,.22,.8-1.22,.8-1.3,3.04-1.22,10.82,.39,21.61-.7,32.43-.48,.2,0,.4-.07,.81-.14Zm40.34-46.11c-.19-.01-.38-.02-.57-.03-.91,2.94-1.85,45.77-1.07,48.77,.19,0,.38,0,.57,.01,.36-16.25,.71-32.5,1.07-48.75Zm-3.97,18.08c.85-3.6,.46-7.24,.89-10.87,.62-5.21,1.03-10.49,.48-15.73-.39-3.74-.55-7.42,.56-11.1,.28-.93-.15-1.91-1.5-2.77,.06,13.69,.17,27.08-.43,40.47Zm.16,8.93c-.78,6.44-1.13,12.87-.91,19.3h.91v-19.3Zm3.05-33.91c.73-3.39,.69-6.8,0-10.21v10.21Z"/>
        <path class="cls-2" d="M7.64,28.6c-.2,3.16-.71,6.33-.53,9.48,.4,7.05-.14,14.14,.91,21.17,.07,.5,.07,1.01,.06,1.52-.13,5.38,.22,10.74,.5,16.11,.03,.51,.02,1.01,0,1.52-.02,.7-.28,1.32-1.26,1.28-.94-.04-.88-.71-.9-1.29-.08-3.09-.39-6.2-.41-9.27-.04-6.08-.57-12.14-.77-18.2-.11-3.45,.16-6.9-.23-10.39-.55-4.94,.36-9.95,.73-14.93,.21-2.71,.1-5.44,.14-8.17,0-.51,0-1.01,.03-1.52,.03-.55,.24-1.07,1.01-1.04,.7,.02,1.06,.5,1.08,1.05,.05,1.46,.21,2.93,0,4.37-.4,2.77-.43,5.54-.38,8.32Z"/>
        <path class="cls-2" d="M11.99,34.7c-.36,7.78,.14,15.56,.54,23.32,.32,6.1,.57,12.23,1.28,18.32,.09,.77-.17,1.27-1.1,1.36-.98,.1-1.36-.41-1.38-1.15-.07-2.53-.41-5.07-.4-7.56,0-7.6-.84-15.17-.74-22.78,.05-3.71-.26-7.42-.11-11.15,.09-2.38,.1-4.88-.32-7.31-.14-.81-.07-1.65-.03-2.47,.03-.74,.29-1.5,1.38-1.4,.97,.09,.9,.83,.89,1.5-.03,3.1-.01,6.21-.01,9.31Z"/>
        <path class="cls-2" d="M60.63,40.97c-5.57-.69-11.17-.33-16.76-.43-1.12-.02-2.23-.31-3.34-.49-.71-.11-1.43-.33-1.28-1.05,.14-.72,.99-.84,1.62-.67,2.74,.71,5.57,.3,8.34,.55,4.37,.4,8.77,.23,13.14,.39,1.17,.05,3.01-.09,2.95,1-.06,1-1.89,.89-3.1,.8-.53-.04-1.05-.07-1.58-.1Z"/>
        <path class="cls-2" d="M45.47,43.01c4.82,.14,9.64,.41,14.47,.44,.86,0,2.13,.2,1.96,1.14-.17,.94-1.37,.65-2.28,.65-5.73-.03-11.42-1.09-17.18-.45-.85,.1-1.88,.05-1.96-.84-.09-.99,1.03-.91,1.83-.94,1.05-.04,2.11,0,3.17,0Z"/>
        <path class="cls-2" d="M57.17,49.81c-3.97-.54-7.83-.02-11.66-.19-.9-.04-1.75-.26-1.77-1.13-.02-.94,1.04-1.2,1.78-1.04,3.88,.86,7.81,.07,11.7,.42,.77,.07,1.68,.13,1.54,1-.12,.71-.9,.95-1.59,.94Z"/>
        <path class="cls-2" d="M50.99,51.95c1.12,0,2.28-.24,3.33,.26,.23,.11,.37,.37,.55,.55-.22,.15-.42,.4-.66,.43-2.01,.23-3.98,.71-6.04,.52-.61-.06-1.29-.08-1.28-.78,0-.59,.55-.93,1.18-.97,.97-.07,1.96-.02,2.94-.02Z"/>
      </g>
      <g>
        <path class="cls-1" d="M90.98,9.84c1.84-.06,4.05,.05,6.49,.57,.9,.19,1.75,.42,2.53,.67-2.63,1.57-5.26,3.14-7.89,4.7-1.45,.25-3.3,.43-5.44,.29-1.43-.1-2.7-.32-3.78-.57,2.69-1.88,5.39-3.77,8.08-5.65h0Z"/>
        <path class="cls-1" d="M80.13,6.99c.47-1.41,1.16-3.06,2.24-4.77,.4-.63,.8-1.21,1.21-1.73,.45,2.45,.91,4.89,1.36,7.34-.21,1.17-.59,2.63-1.3,4.21-.47,1.06-.99,1.96-1.49,2.71-.67-2.59-1.35-5.17-2.02-7.76h0Z"/>
      </g>
    </g>
  </g>
</svg>