<?xml version="1.0" encoding="UTF-8"?>
<svg id="Ebene_2" data-name="Ebene 2" xmlns="http://www.w3.org/2000/svg" viewBox="0 0 100 100">
  <defs>
    <style>
      .cls-1 {
        stroke: #ff6b35;
        stroke-linecap: round;
        stroke-linejoin: round;
      }

      .cls-1, .cls-2 {
        fill: #ff6b35;
      }
    </style>
  </defs>
  <g id="Ebene_1-2" data-name="Ebene 1">
    <path class="cls-2" d="M62.19,5.92c3.71-3.18,7.45-6.26,14.32-5.81,9.18,.6,12.25,3.27,14.73,9.09,1.89,4.42-.23,8.47-2.09,12.47-1.95,4.2-3.77,8.5-3.32,12.78,.71,6.84,3.02,13.5,7.61,19.79,2.36,3.24,4.19,6.8,4.89,10.5,.4,2.11,1.01,4.2,1.49,6.31,.78,3.39-1.15,6.56-1.19,9.8-.06,4.46-3.06,8.2-4.9,12.22-.2,.45-.2,.95-.23,1.42-.13,2.11-1.76,3.22-4.72,3.7-8.95,1.47-18.06,1-27.11,1.15-1.53,.02-2.93-.05-3.22-1.49-.14-.7-.78-1.25-2.32-.88-1.15,.28-2.58,.14-3.86,.05-5.29-.38-10.02,1.18-15.01,1.89-9.27,1.31-18.68,2.01-27.56-1.23-2.86-1.05-4.39-3.07-4.97-5.08-1.61-5.62-2.56-11.33-4.14-16.95-1.41-4.98-.01-9.73,1.38-14.56,1.64-5.68,5.09-10.91,7.76-16.33,3.1-6.29,6.45-12.61,6.05-19.44-.18-3.05-1.43-5.98-2.07-8.98-.97-4.55-.34-8.96,3.32-12.91,1.48-1.59,4.2-2.36,6.8-2.67,5.2-.62,10.21-.13,13.74,2.9,1.26,1.08,1.51,.98,2.62,0,5.57-4.96,13.96-4.48,18.92-.75,1.23,.93,.84,2.47,3.07,3.03Zm-3.74,84.99c7.13,.33,13.85-.61,18.43-4.12,9.16-7.02,12.14-15.34,8.65-24.62-1.16-3.09-4.61-4.9-7.67-6.9-6.78-4.44-15-6.29-24.2-5.24-14.21,1.62-27.94,15.16-23.04,26.11,1.12,2.5,2.48,4.94,4.15,7.24,1.99,2.74,5.26,4.87,9.56,5.89,4.61,1.09,9.37,1.96,14.11,1.64ZM3.71,70.68c-.24,4.94,1.87,9.41,2.74,14,.48,2.49,.73,5.03,2.02,7.42,.95,1.75,2.15,3.57,4.95,4.14,8.31,1.7,16.71,1.64,25.07,.08,2.58-.48,3.03-2.32,4-3.63,.59-.79-1.67-1.06-2.65-1.55-3.53-1.78-7.95-3.17-9.83-5.88-2.98-4.3-5.31-8.87-4.63-13.82,.14-1.01,.55-2,.75-3.02,1.08-5.42,3.04-10.59,9.37-14.45,1.86-1.13,3.35-2.54,5.17-3.71,1.29-.83,1.39-1.58,.43-2.51-1.56-1.52-2.88-3.12-3.61-4.92-.42-1.04-1.26-1.27-2.69-.86-5.8,1.67-11.67,1.54-17.54,.21-1.7-.39-2.6,.01-3.13,1.16-.78,1.69-1.66,3.37-2.61,5.02-4.21,7.27-7.87,14.61-7.82,22.32Zm91.22,3.49c-.25-5.18,.19-8.83-1.84-12.44-3.96-7.04-9-13.86-10.44-21.49-.15-.79-.83-1.3-2.31-1.18-4.07,.35-8.14,.4-12.17-.28-1.32-.22-2.6-.15-3.34,.84-1.46,1.94-2.93,3.87-4.42,5.8-.8,1.03-.36,1.37,1.31,1.58,8.3,1.04,16.47,2.31,21.87,7.39,.17,.16,.42,.29,.63,.44,4.22,2.99,6.09,6.65,6.62,10.72,.67,5.16-.7,10.12-3.59,14.83-4.62,7.51-11.74,13.02-24.71,13.3-2.58,.05-2.48,.88-1.63,2.13,.84,1.23,2.44,1.2,4.05,1.33,4.96,.39,9.93,.22,14.82-.19,6.67-.56,9.74-.84,11.73-6.29,2.16-5.91,4.1-11.83,3.41-16.47ZM17.29,12.43c-.56,2.79,1.35,5.56,1.68,8.47,.06,.54,.42,1.05,.57,1.59,.16,.56,.39,1.12,1.24,1.3,4.17,.91,8.31,1.92,12.78,1.83,1.32-.02,1.94-.42,2.12-1.34,.59-3.04,1.85-5.98,2.93-8.95,1.44-3.95-1.52-9.19-6.19-11.39-4.56-2.15-12.82-1.24-14.42,3.41-.56,1.63-.77,3.22-.71,5.07Zm70.35,1.07c.28-1.64-.31-3.15-.76-4.7-.99-3.37-4.04-5.19-8.76-5.93-3.89-.61-7.12,.35-9.73,2.19-5.38,3.78-5.14,8.5-4.27,13.27,.4,2.21,1.63,3.42,5.49,2.97,4.23-.5,8.46,.79,12.78,.53,1.53-.09,2.79-.24,3.21-1.39,.84-2.3,2.6-4.48,2.04-6.92Zm-33.25,9.97c5.71,.01,6.69-.69,6.07-3.76-.54-2.7-1.37-5.4-.58-8.11,1.07-3.69-2.57-7.91-7.87-8.89-4.9-.9-11.37,2.55-10.3,5.64,1.19,3.46,1.42,6.8-.15,10.24-.75,1.63,.61,3.12,2.88,3.56,3.61,.7,7.38,.99,9.95,1.31Zm-7.9,15.23c-1.11-.11-1.98,.04-2.47,.82-1.28,2.08-2.95,4.16-.34,6.3,1.05,.86,0,2.52,1.66,2.78,1.36,.21,3-.63,4.56-.77,6.11-.55,8.08-3.73,9.77-7.1,.33-.66,.59-1.53-1.07-1.38-4.12,.38-8.13,.03-12.11-.65Zm-19.02,2.45c2.3,.02,4.34-.6,6.44-1.01,.91-.17,2.36-.39,2.08-1.2-.48-1.39,.27-2.9-.91-4.18-.15-.16-.76-.24-1.09-.19-4.93,.83-9.67,0-14.41-.77-.48-.08-1.12-.25-1.28,.19-.61,1.64-1.18,3.3-1.63,4.97-.11,.41,.56,.73,1.17,.82,3.21,.47,6.42,.91,9.64,1.36Zm46.76-10.04c-7.17,0-7.15,.01-7.99,3.15-.26,.96,.06,1.49,1.57,1.8,3.66,.77,7.45,.69,11.19,.9,1.15,.07,2.66-.17,2.82-1.15,.26-1.59,.62-3.24-.28-4.81-.2-.35-.88-.19-1.36-.1-2.06,.36-4.16,.11-5.95,.2Zm-44.28,1.54c1.2,0,2.36-.03,3.55-.25,3.44-.64,1.96-2.51,2.08-3.91,.12-1.44-1.63-1.28-3.01-1.27-2.79,.03-5.53-.1-8.29-.47-4.09-.55-3.89-.42-4.81,2.39-.5,1.52,.35,1.9,2.07,2.31,2.74,.66,5.49,1.19,8.42,1.18Zm42.79-3.73c2.1,.19,4.4-.27,6.75-.52,2.67-.28,4.17-1.41,4.09-3.23-.03-.86-.66-1.39-1.85-1.14-3.3,.7-6.5-.09-9.71-.25-5.53-.27-5.44-.41-5.2,3.31,.08,1.29,.69,1.91,2.62,1.83,.99-.04,1.99,0,3.3,0Zm-20.91,3.28s0,0,0,0c-.89,0-1.82,.11-2.68-.02-2.61-.38-2.59,.89-2.96,2.02-.4,1.22,.04,1.98,1.97,2.23,2.92,.38,5.81,.84,8.73,1.21,.96,.12,2.43,.18,2.45-.65,.05-1.54-.03-3.19-.79-4.62-.63-1.18-2.45,.04-3.75-.14-.96-.13-1.98-.03-2.98-.03Zm-4.65-7.07c-1.68-.09-2.24,.11-1.99,1.12,.68,2.81,.99,3.04,5,3.15,1.08,.03,2.18,.16,3.23,.35,4.06,.72,6.87-1.08,5.99-3.85-.15-.48-.57-.44-1.08-.41-3.89,.21-7.77,.36-11.14-.36Zm-7.63,5.4c-.09,1.69-.46,3.4,.25,5.05,.12,.29,.53,.71,.87,.74,.76,.07,.86-.47,.94-.83,.67-3.04-.01-6.06-.43-9.09-.05-.35-.28-.72-.86-.7-.58,.02-.74,.43-.75,.76-.03,1.36-.01,2.71-.01,4.07Zm15.84,64.2c-1.08-.84-6.83-1.78-7.86-1.34-.37,.16-.76,.49-.8,.77-.07,.57,.7,.56,1.25,.56,2.41,.02,4.82,0,7.4,0Z"/>
    <g>
      <path class="cls-1" d="M61.62,65.92c1.25-1.33,2.88-2.8,4.96-4.14,.77-.5,1.52-.93,2.24-1.3-.75,2.94-1.51,5.88-2.26,8.81-.84,1.19-2.02,2.61-3.62,4-1.07,.93-2.12,1.67-3.06,2.24,.58-3.2,1.16-6.41,1.74-9.62h0Z"/>
      <path class="cls-1" d="M52.01,71.51c-.66-1.32-1.32-2.96-1.75-4.9-.16-.72-.28-1.41-.36-2.06,2.02,1.4,4.05,2.8,6.07,4.19,.67,.97,1.42,2.26,2.02,3.86,.41,1.07,.67,2.07,.84,2.94-2.28-1.34-4.55-2.68-6.83-4.03h0Z"/>
    </g>
  </g>
</svg>