<?xml version="1.0" encoding="UTF-8"?>
<svg id="Ebene_2" data-name="Ebene 2" xmlns="http://www.w3.org/2000/svg" viewBox="0 0 100 100">
  <defs>
    <style>
      .cls-1 {
        stroke: #ff6b35;
        stroke-linecap: round;
        stroke-linejoin: round;
      }

      .cls-1, .cls-2 {
        fill: #ff6b35;
      }
    </style>
  </defs>
  <g id="Ebene_1-2" data-name="Ebene 1">
    <g>
      <path class="cls-2" d="M63.13,2.06c6.29,.06,10.85,1.47,14.39,5.81,.8,.98,1.19,1.17,1.94-.12,1.97-3.42,4.76-5.79,8.06-7.31,3.14-1.44,8.75,.88,10.74,4.35,2.72,4.74,2.33,6.9-1.63,11.48-1.15,1.33-2.43,2.47-3.81,3.46-.55,.39-1.11,.93-.42,1.66,2.42,2.55,2.79,6.03,3.05,9.41,.39,5.09,.49,10.19-2.7,14.48-2.52,3.39-5.24,5.83-9.52,5.74-4.35-.1-8.62,.12-12.27-3.19-.36-.33-.61-.4-1.06-.07-1.75,1.31-3.72,1.79-5.76,2.24-2.2,.49-3.58,2.64-4.67,4.67-.71,1.32,.47,2.72,1.27,3.69,1.38,1.67,1.15,2.77-.46,3.87-.64,.44-1.21,1.01-1.78,1.58-2.46,2.47-2.52,2.56-4.98,0-1-1.03-1.47-.88-2.45,.04-3.64,3.44-7.15,7.05-10.44,10.92-.31,.37-1.33,.66-.59,1.6,.54,.69,1.1,1.12,1.88,.3,1.07-1.12,2.2-.52,3.25,.06,1.57,.86,2.65,2.45,3.94,3.71,.54,.53,.48,1.26,.2,1.94-.2,.49-.48,.95-.71,1.42q-1.55,3.15,1.47,3.95c2.58,.68,2.97,2.04,1.1,4.2-2.36,2.74-4.94,5.18-7.83,7.18-1.17,.81-2.04,.85-3.24-.25-3.48-3.18-6.37-7.02-9.53-10.56-.34-.38-.56-.9-.89-1.29-.5-.58-.29-2.04-1.26-1.84-.97,.19-1.88,.88-2.77,1.46-.76,.5-.36,1.2-.09,1.84,.48,1.12,1.07,2.2,1.41,3.38,.72,2.52,.31,3.35-1.77,4.37-.81,.4-1.6,.87-2.33,1.43-3.15,2.39-3.22,1.53-4.85-1.15-2.51-4.12-2.33-4.18-5.57-.98-1.49,1.47-2.89,3.05-4.81,3.94-1.67,.77-2.93,.79-4.26-.75-.65-.76-1.45-1.36-2.06-2.22-1.94-2.75-1.72-5.01,.75-7.16,9.06-7.91,18.17-15.74,27.18-23.74,7.65-6.79,14.98-14.03,22.19-21.43,.73-.75,.71-1.46,.42-2.26-.52-1.47-.54-3.17-.05-4.35,1.1-2.66,.15-4.39-.97-6.64-5.02-10.07-2.71-19.32,5.56-26.06,2.45-1.99,5.07-2.93,6.76-2.83Zm18.68,45.84c2.42-.16,4.91,.05,6.9-2.19,5.24-5.92,5.58-17.33,.57-23.49-1.21-1.49-1.06-2.52,.41-3.55,1.88-1.31,3.54-2.96,5.13-4.7,2.68-2.94,2.6-6.15-.22-8.88-2.15-2.08-4.54-2.28-7.12-1.14-3.47,1.54-5.31,5.06-7.64,8-1.56,1.98-2.17,1.98-3.41-.28-3.23-5.9-8.42-7.1-13.67-6.34-8.43,1.23-15.3,12.6-9.97,24.09,.96,2.08,2.55,3.46,3.79,5.22,.56,.8,1.09,1.98-.37,1.88-1.93-.13-1.78,1.21-1.79,2.52-.01,1.34,.17,2.66,.8,3.84,.5,.94,.28,1.55-.56,2.08-3.03,1.92-5.37,4.85-7.95,7.39-5.19,5.11-10.37,10.23-15.79,15.01-8.79,7.75-17.86,15.1-26.3,23.37-2.07,2.02-1.73,4.7,.79,5.75,1.53,.64,2.64-.49,3.66-1.51,1.54-1.55,3-3.2,4.65-4.62,1.61-1.38,2.94-1.06,4.15,.5,.82,1.05,1.49,2.24,2.23,3.37,.38,.58,.7,1.07,1.51,.77,2.7-.98,3.04-1.8,1.77-4.61-.22-.49-.41-.99-.64-1.47-.95-1.96-.52-3.52,1.15-4.54,1.57-.96,3.2-1.78,4.84-2.57,.76-.37,1.56-.15,1.95,.75,1.74,4.03,4.75,6.84,7.43,9.93,3.94,4.53,4.38,4.44,8.49,.17q1.82-1.89-.33-3.16c-2.2-1.3-2.49-2.42-1.25-4.86,.21-.41,.46-.78,.66-1.19,.42-.82,.53-1.63-.17-2.34-.74-.75-1.49-2.26-2.53-1.44-2.17,1.71-3.34,.54-4.79-1.26-1.91-2.37-1.98-2.83-.04-5.14,3.76-4.47,8-8.34,11.97-12.53,2.07-2.19,2.28-2.22,4.41-.08,.83,.83,1.57,1.48,2.68,.49,1.06-.94,.95-1.84,.35-3.04-1.2-2.45-1.12-4.72,.82-6.8,.98-1.05,1.96-2.16,2.45-3.72,.32-1.03,1.16-1.19,2.07-.94,1.47,.4,2.84-.2,4.23-.59,.7-.2,1.11-.58,.51-1.48-.57-.85-.64-1.81,.23-2.45,.9-.67,1.75-.28,2.36,.6,3,4.27,7.04,5.44,11.6,5.14Z"/>
      <path class="cls-2" d="M94.35,9.45c.51,2.94-3.94,6.54-6.7,6.63-1.74,.06-3.7-2.39-3.63-4.37,.13-3.34,3.56-6.88,6.59-6.8,2.3,.06,3.79,1.87,3.74,4.54Zm-2.58-.05c-.13-.74-.5-1.33-1.3-1.42-1.15-.13-3.25,1.69-3.55,3.06-.19,.88,.08,1.54,.81,1.88,1.19,.55,4.12-1.95,4.03-3.52Z"/>
    </g>
    <g>
      <path class="cls-1" d="M41.88,9.55c-.12-1.82-.08-4.01,.36-6.45,.16-.9,.36-1.75,.58-2.53,1.63,2.56,3.27,5.11,4.9,7.67,.29,1.43,.53,3.26,.45,5.38-.05,1.42-.23,2.69-.45,3.76-1.95-2.61-3.9-5.22-5.84-7.83h0Z"/>
      <path class="cls-1" d="M39.4,20.39c-1.41-.42-3.06-1.06-4.78-2.06-.64-.37-1.22-.76-1.74-1.14,2.4-.53,4.81-1.05,7.21-1.58,1.17,.18,2.62,.51,4.2,1.15,1.06,.43,1.97,.92,2.72,1.39-2.54,.75-5.07,1.5-7.6,2.25h0Z"/>
    </g>
  </g>
</svg>