<?xml version="1.0" encoding="UTF-8"?>
<svg id="Ebene_2" data-name="Ebene 2" xmlns="http://www.w3.org/2000/svg" viewBox="0 0 100 100.5">
  <defs>
    <style>
      .cls-1 {
        stroke: #ff6b35;
        stroke-linecap: round;
        stroke-linejoin: round;
      }

      .cls-1, .cls-2 {
        fill: #ff6b35;
      }
    </style>
  </defs>
  <g id="Ebene_1-2" data-name="Ebene 1">
    <g>
      <g>
        <path class="cls-2" d="M54.79,41.89c-.07,1.24-.04,2.46-.22,3.64-.21,1.42-.68,2.69-2.3,3.24-3.17,1.07-6.31,2.25-9.72,2.37-.67,.02-1.33,.17-2,.22-1.52,.13-2.65,.4-3.23,2.26-.59,1.91-2.66,2.53-4.5,3.02-1.24,.33-1.92,.74-1.4,2.23,.48,1.39-.12,2.76-.53,4.1-.27,.89-.96,.96-1.74,1.04-5.72,.58-5.81,.59-5.6,6.25,.15,3.88,1.04,7.67,2.13,11.4,.59,2.04,1.88,2.95,3.98,2.94,4.03-.03,8.07,0,12.1-.01,1.35,0,2.72-.05,3.99,.45,6.05,2.4,6.23,4.57,4.09,10.13-1.35,3.52-4.6,4.36-7.82,4.68-5.21,.52-10.46,1.01-15.7,.25-7.47-1.09-10.73-4.12-12.15-11.57-1.08-5.65-1.54-11.4-1.95-17.14-.38-5.27-1.5-10.49-1.36-15.79,.05-1.81-.63-2.14-2.11-2.59-3.43-1.05-6.11-3-6.88-6.85-.71-3.56-2.39-6.91-1.71-10.76,1.14-6.47,5.19-10.63,10.43-14.08,6.1-4.01,12.96-4.91,20-5.22,5.71-.25,11.43,.08,17.14-.43,.87-.08,1.75-.02,2.62,.04,2.38,.15,3.02,.68,3.15,2.97,.1,1.81,.32,2.94,2.71,2.46,1.79-.36,3.74-.08,5.6,.05,1.44,.1,2.53,.96,3.08,2.26,.4,.92,1,1.12,1.88,1.05,2.28-.18,4.56-.28,6.83-.5,3.32-.32,4.15,.06,5.35,3.1,.36,.92,.78,1.09,1.61,.93,5.62-1.09,11.3-1.65,16.99-2.14,.87-.07,2.15-.7,2.41,.59,.28,1.39-.98,1.39-2.03,1.48-5.49,.46-10.97,.94-16.42,1.75-1.34,.2-2.14,.37-1.91,2.15,.27,2.03-1.39,3.72-3.51,3.92-2.86,.28-5.73,.43-8.6,.55-1.12,.04-1.84,.04-1.85,1.56-.01,1.7-1.22,2.82-2.88,3.17-2.61,.56-5.24,1.08-7.96,.8Zm-16.2-24.23c0,.13,0,.27,0,.4-3.7,0-7.42-.23-11.1,.05-7.64,.58-14.04,4.04-19.47,9.24-4.37,4.19-5.23,9.79-5.01,15.4,.15,3.77,1.87,7.02,6.08,8.36,4.4,1.4,8.84,1.12,13.2,.47,9.07-1.37,18.33-1.5,27.23-4.12,2.03-.6,2.93-1.35,3.1-3.42,.66-8.05,.37-16.05-.8-24.04-.26-1.78-.96-2.41-2.72-2.36-3.5,.09-7,.03-10.5,.03Zm-5.05,80.7c3.27-.22,6.44-.36,9.59-.67,3.45-.34,5.96-3.59,5.79-7.28-.08-1.87-2.86-3.61-6-3.75-.4-.02-.81,.04-1.21,.05-3.77,.07-7.55,.2-11.32,.17-4.14-.04-6.06-1.54-7.08-5.49-1.13-4.36-1.84-8.79-2.11-13.29-.24-3.98,1.16-5.56,5.28-6.02,2.86-.32,3.19-.64,2.58-3.53-.39-1.84,.34-2.81,1.88-3.47,1.11-.47,2.26-.87,3.34-1.41,.5-.25,1.22-.65,.88-1.35-.28-.58-.96-.22-1.47-.15-5.48,.68-10.93,1.61-16.46,1.77-4.9,.15-5.04,.26-4.41,5.23,.02,.13,.05,.26,.06,.4,.71,6.6,1.41,13.2,2.13,19.8,.43,3.92,.62,7.88,1.98,11.66,1.26,3.5,3.5,5.79,7.2,6.63,3.13,.71,6.3,.54,9.35,.69ZM55.06,33.3c-.09,1.93-.15,3.67-.26,5.4-.07,1.11,.36,1.67,1.51,1.54,1.73-.2,3.47-.4,5.2-.66,1.19-.18,1.99-.89,2.05-2.13,.18-3.8,.62-7.59,.06-11.4-.29-1.99-1.15-3.03-3.25-2.97-1.34,.04-2.69-.09-4.03-.14-1.67-.06-2.27,.72-2.06,2.37,.33,2.72,.55,5.45,.8,7.99Zm10.92-2.97c0,1.01,0,2.01,0,3.02,0,.82,.35,1.28,1.21,1.23,2.76-.14,5.53-.07,8.26-.61,1-.2,1.86-.66,1.95-1.75,.14-1.67,.12-3.35-.48-4.96-.37-.99-1.02-1.44-2.14-1.47-1.77-.05-3.49,.28-5.23,.45-3.68,.35-3.68,.37-3.56,4.09Z"/>
        <path class="cls-2" d="M23.27,31.26c.37,0,1.25-.25,1.29,.73,.04,.74-.62,1.18-1.36,1.24-4.9,.37-9.78,.97-14.63,1.73-.68,.11-1.47,.07-1.58-.82-.11-.93,.71-1.03,1.36-1.11,4.88-.59,9.76-1.16,14.91-1.77Z"/>
        <path class="cls-2" d="M10.4,44.29c-.47,0-.95,.04-1.41-.01-.42-.05-.76-.29-.84-.74-.1-.58,.25-.93,.74-1.02,3.51-.64,7.04-1.09,10.61-1.14,.58,0,1.08,.36,1.01,1.01-.08,.69-.63,1.01-1.29,1.04-2.96,.12-5.91,.36-8.82,.86Z"/>
        <path class="cls-2" d="M14.39,28.24c1.03,.18,2.6-.45,4.21-.4,.54,.02,1.19,.05,1.25,.73,.07,.71-.46,1.09-1.13,1.14-2.47,.17-4.95,.32-7.43,.46-.6,.03-1.09-.18-1.11-.86-.02-.64,.4-1.01,1-1.04,.87-.06,1.74-.01,3.21-.01Z"/>
        <path class="cls-2" d="M10.22,39.5c-.66,.1-1.48,.29-1.61-.63-.11-.82,.67-.91,1.25-.99,1.99-.28,3.99-.54,6-.76,.73-.08,1.65-.14,1.66,.92,0,.81-.75,1-1.47,1.05-1.94,.13-3.88,.27-5.82,.41Z"/>
        <path class="cls-2" d="M14.17,49.11c-.9-.12-2.2,.17-2.23-1.11-.02-1.08,1.16-.89,1.91-.85,.95,.05,2.38-.12,2.43,1.08,.04,1.04-1.3,.81-2.12,.88Z"/>
      </g>
      <g>
        <path class="cls-1" d="M49.59,5.97c1.25-1.34,2.88-2.81,4.96-4.17,.77-.5,1.52-.93,2.24-1.31-.75,2.96-1.51,5.91-2.26,8.87-.84,1.2-2.02,2.62-3.62,4.03-1.07,.94-2.12,1.68-3.06,2.26,.58-3.22,1.16-6.45,1.74-9.67h0Z"/>
        <path class="cls-1" d="M39.98,11.6c-.66-1.32-1.32-2.98-1.75-4.93-.16-.72-.28-1.42-.36-2.07,2.02,1.41,4.05,2.81,6.07,4.22,.67,.98,1.42,2.27,2.02,3.88,.41,1.08,.67,2.08,.84,2.95-2.28-1.35-4.55-2.7-6.83-4.05h0Z"/>
      </g>
    </g>
  </g>
</svg>