<?xml version="1.0" encoding="UTF-8"?>
<svg id="Ebene_2" data-name="Ebene 2" xmlns="http://www.w3.org/2000/svg" viewBox="0 0 1748 1748">
  <defs>
    <style>
      .cls-1 {
        fill: #2a4494;
      }

      .cls-2 {
        fill: #4ea5d9;
      }

      .cls-3 {
        fill: #212d40;
      }

      .cls-4 {
        fill: #ff6b35;
      }

      .cls-5 {
        fill: snow;
      }
    </style>
  </defs>
  <g id="Artwork">
    <g>
      <circle class="cls-4" cx="874" cy="874" r="874"/>
      <g>
        <path class="cls-3" d="M1413.16,1181.18l-2.82-.91c9.03-27.81,33.01-54.28,56.2-79.87,30.58-33.75,62.2-68.65,62.2-108.15s-31.62-74.4-62.2-108.15c-23.19-25.59-47.17-52.06-56.2-79.87-9.53-29.36-5.72-65.95-2.04-101.33,4.61-44.31,9.38-90.12-12.66-120.4-22.34-30.69-67.68-40.3-111.53-49.6-34.57-7.33-70.32-14.9-94.9-32.79-24.18-17.6-42.2-48.99-59.63-79.36-22.48-39.17-45.73-79.68-82.43-91.59-34.83-11.31-74.61,6.36-116.72,25.07-32.96,14.64-67.04,29.78-98.72,29.78s-65.76-15.14-98.72-29.78c-42.11-18.71-81.89-36.38-116.72-25.07-36.7,11.92-59.95,52.42-82.43,91.59-17.43,30.36-35.45,61.76-59.63,79.36-24.58,17.89-60.33,25.47-94.9,32.79-43.85,9.29-89.2,18.91-111.54,49.6-22.04,30.28-17.27,76.1-12.66,120.4,3.68,35.38,7.49,71.97-2.04,101.33-9.03,27.81-33.01,54.28-56.2,79.87-30.58,33.75-62.2,68.65-62.2,108.15s31.62,74.4,62.2,108.15c23.19,25.59,47.17,52.06,56.2,79.87l-2.82,.91c-8.84-27.21-31.54-52.27-55.58-78.8-30.96-34.17-62.97-69.49-62.97-110.14s32.01-75.97,62.97-110.14c24.04-26.53,46.74-51.59,55.58-78.8,9.34-28.76,5.56-65.03,1.91-100.11-4.67-44.86-9.5-91.25,13.21-122.45,23-31.61,68.92-41.34,113.31-50.75,34.27-7.26,69.7-14.77,93.77-32.29,23.67-17.23,41.53-48.34,58.8-78.44,22.76-39.66,46.3-80.66,84.09-92.93,35.91-11.66,78.07,7.07,118.84,25.18,32.68,14.52,66.47,29.53,97.52,29.53s64.84-15.01,97.52-29.53c40.77-18.11,82.93-36.84,118.84-25.18,37.79,12.27,61.32,53.28,84.09,92.93,17.27,30.09,35.13,61.21,58.8,78.44,24.07,17.52,59.51,25.03,93.77,32.29,44.4,9.41,90.31,19.14,113.31,50.75,22.71,31.2,17.88,77.59,13.21,122.45-3.65,35.08-7.43,71.35,1.91,100.11,8.84,27.21,31.54,52.27,55.58,78.8,30.96,34.17,62.97,69.49,62.97,110.14s-32.01,75.97-62.97,110.14c-24.04,26.53-46.74,51.59-55.58,78.8Z"/>
        <path class="cls-5" d="M1286.04,644.47c0-12.26-9.94-22.2-22.2-22.2H414.37c-12.26,0-22.2,9.94-22.2,22.2v489.85h893.87v-489.85Z"/>
        <path class="cls-3" d="M1265.32,1113.6H368.49v-491.33c0-13.06,10.62-23.68,23.68-23.68h849.47c13.06,0,23.68,10.62,23.68,23.68v491.33Zm-893.87-2.96h890.91v-488.37c0-11.42-9.29-20.72-20.72-20.72H392.17c-11.42,0-20.72,9.29-20.72,20.72v488.37Z"/>
        <path class="cls-3" d="M1241.64,1221.63H392.17c-13.06,0-23.68-10.62-23.68-23.68v-87.32h896.83v87.32c0,13.06-10.62,23.68-23.68,23.68Zm-870.19-108.03v84.36c0,11.42,9.29,20.72,20.72,20.72h849.47c11.42,0,20.72-9.29,20.72-20.72v-84.36H371.45Z"/>
        <rect class="cls-3" x="713.31" y="1248.27" width="229.39" height="2.96"/>
        <rect class="cls-3" x="713.31" y="1292.67" width="229.39" height="2.96"/>
        <rect class="cls-3" x="381.07" y="1311.17" width="953.81" height="2.96"/>
        <rect class="cls-2" x="440.29" y="699.94" width="546.09" height="367.02"/>
        <rect class="cls-1" x="438.79" y="701.44" width="546.09" height="20.72"/>
        <path class="cls-3" d="M971.56,1055.14H422.51v-369.98H971.56v369.98Zm-546.09-2.96H968.6v-364.06H425.47v364.06Z"/>
        <polygon class="cls-3" points="648.94 830.19 745.13 878.29 648.94 926.39 648.94 830.19"/>
        <rect class="cls-3" x="392.17" y="655.56" width="857.61" height="2.96"/>
        <path class="cls-3" d="M1225.36,638.55c-7.34,0-13.32-5.97-13.32-13.32s5.98-13.32,13.32-13.32,13.32,5.97,13.32,13.32-5.98,13.32-13.32,13.32Zm0-23.68c-5.71,0-10.36,4.65-10.36,10.36s4.65,10.36,10.36,10.36,10.36-4.65,10.36-10.36-4.65-10.36-10.36-10.36Z"/>
        <path class="cls-3" d="M1188.37,638.55c-7.34,0-13.32-5.97-13.32-13.32s5.98-13.32,13.32-13.32,13.32,5.97,13.32,13.32-5.98,13.32-13.32,13.32Zm0-23.68c-5.71,0-10.36,4.65-10.36,10.36s4.65,10.36,10.36,10.36,10.36-4.65,10.36-10.36-4.65-10.36-10.36-10.36Z"/>
        <path class="cls-3" d="M1151.37,638.55c-7.34,0-13.32-5.97-13.32-13.32s5.98-13.32,13.32-13.32,13.32,5.97,13.32,13.32-5.98,13.32-13.32,13.32Zm0-23.68c-5.71,0-10.36,4.65-10.36,10.36s4.65,10.36,10.36,10.36,10.36-4.65,10.36-10.36-4.65-10.36-10.36-10.36Z"/>
        <rect class="cls-2" x="1035.21" y="692.54" width="207.93" height="117.65"/>
        <path class="cls-3" d="M1235.72,805.78h-210.89v-120.61h210.89v120.61Zm-207.93-2.96h204.97v-114.69h-204.97v114.69Z"/>
        <polygon class="cls-3" points="1109.19 722.16 1155.07 743.93 1109.19 768.04 1109.19 722.16"/>
        <rect class="cls-3" x="421.77" y="1086.22" width="500.21" height="2.96"/>
        <circle class="cls-3" cx="846.51" cy="1087.7" r="9.62"/>
        <g>
          <rect class="cls-5" x="272.3" y="913.07" width="241.97" height="377.38" rx="40" ry="40"/>
          <path class="cls-3" d="M472.09,1283.05h-182.77c-17.14,0-31.08-13.94-31.08-31.08v-318.18c0-17.14,13.94-31.08,31.08-31.08h182.77c17.14,0,31.08,13.94,31.08,31.08v318.18c0,17.14-13.94,31.08-31.08,31.08Zm-182.77-377.38c-15.5,0-28.12,12.61-28.12,28.12v318.18c0,15.5,12.61,28.12,28.12,28.12h182.77c15.5,0,28.12-12.61,28.12-28.12v-318.18c0-15.5-12.61-28.12-28.12-28.12h-182.77Z"/>
          <rect class="cls-2" x="293.76" y="955.99" width="184.25" height="136.89"/>
          <rect class="cls-1" x="293.76" y="955.99" width="184.25" height="10.36"/>
          <path class="cls-3" d="M472.09,1086.96h-187.21v-139.85h187.21v139.85Zm-184.25-2.96h181.29v-133.93h-181.29v133.93Z"/>
          <polygon class="cls-3" points="366.27 1004.82 391.43 1017.03 366.27 1029.98 366.27 1004.82"/>
          <rect class="cls-3" x="284.88" y="1109.9" width="2.96" height="17.76"/>
          <rect class="cls-3" x="299.68" y="1109.9" width="2.96" height="17.76"/>
          <rect class="cls-3" x="324.83" y="1113.6" width="149.47" height="2.96"/>
          <circle class="cls-3" cx="408.45" cy="1115.08" r="5.18"/>
          <rect class="cls-3" x="357.39" y="928.61" width="28.86" height="2.96"/>
          <rect class="cls-3" x="392.91" y="928.61" width="10.36" height="2.96"/>
          <rect class="cls-2" x="286.36" y="1149.86" width="92.49" height="48.84"/>
          <rect class="cls-3" x="391.43" y="1153.56" width="82.88" height="2.96"/>
          <rect class="cls-3" x="391.43" y="1168.36" width="82.88" height="2.96"/>
          <rect class="cls-3" x="391.43" y="1183.15" width="38.48" height="2.96"/>
          <polygon class="cls-3" points="324.83 1159.48 349.99 1171.68 324.83 1184.63 324.83 1159.48"/>
        </g>
        <rect class="cls-5" x="731.07" y="1256.41" width="190.91" height="30.34"/>
        <rect class="cls-5" x="1049.99" y="948.59" width="422.52" height="315.96" rx="30" ry="30"/>
        <path class="cls-3" d="M1435.51,1251.23h-378.12c-13.06,0-23.68-10.62-23.68-23.68v-271.56c0-13.06,10.62-23.68,23.68-23.68h378.12c13.06,0,23.68,10.62,23.68,23.68v271.56c0,13.06-10.62,23.68-23.68,23.68Zm-378.12-315.96c-11.42,0-20.72,9.29-20.72,20.72v271.56c0,11.42,9.29,20.72,20.72,20.72h378.12c11.42,0,20.72-9.29,20.72-20.72v-271.56c0-11.42-9.29-20.72-20.72-20.72h-378.12Z"/>
        <rect class="cls-2" x="1092.19" y="998.14" width="251.59" height="173.89"/>
        <rect class="cls-1" x="1090.69" y="999.64" width="251.59" height="17.76"/>
        <path class="cls-3" d="M1336.36,1167.62h-254.55v-176.85h254.55v176.85Zm-251.59-2.96h248.63v-170.93h-248.63v170.93Z"/>
        <polygon class="cls-3" points="1186.15 1055.88 1232.02 1077.65 1186.15 1101.76 1186.15 1055.88"/>
        <rect class="cls-3" x="1081.81" y="1192.03" width="2.96" height="14.06"/>
        <rect class="cls-3" x="1091.43" y="1192.03" width="2.96" height="14.06"/>
        <rect class="cls-3" x="1108.45" y="1197.21" width="232.35" height="2.96"/>
        <circle class="cls-3" cx="1191.33" cy="1198.69" r="5.18"/>
        <rect class="cls-2" x="1363.02" y="995.18" width="81.4" height="53.28"/>
        <rect class="cls-2" x="1363.02" y="1061.78" width="81.4" height="53.28"/>
        <rect class="cls-2" x="1361.52" y="1129.88" width="81.4" height="53.28"/>
        <path class="cls-3" d="M1439.95,1047h-84.36v-56.24h84.36v56.24Zm-81.4-2.96h78.44v-50.32h-78.44v50.32Z"/>
        <path class="cls-3" d="M1439.95,1113.6h-84.36v-56.24h84.36v56.24Zm-81.4-2.96h78.44v-50.32h-78.44v50.32Z"/>
        <path class="cls-3" d="M1439.95,1180.19h-84.36v-56.24h84.36v56.24Zm-81.4-2.96h78.44v-50.32h-78.44v50.32Z"/>
        <rect class="cls-2" x="984.88" y="1256.41" width="542.39" height="34.04"/>
        <path class="cls-3" d="M1521.35,1284.53H976v-37h545.35v37Zm-542.39-2.96h539.43v-31.08H978.96v31.08Z"/>
        <g>
          <rect class="cls-3" x="244.92" y="873.85" width="2.96" height="23.68"/>
          <rect class="cls-3" x="225.56" y="867.07" width="2.96" height="38.48" transform="translate(-560.22 420.14) rotate(-45)"/>
          <rect class="cls-3" x="214.73" y="903.82" width="23.68" height="2.96"/>
        </g>
        <g>
          <rect class="cls-3" x="1271.39" y="592.48" width="23.68" height="2.96"/>
          <rect class="cls-3" x="1263.37" y="573.12" width="38.48" height="2.96" transform="translate(-30.64 1075.24) rotate(-45)"/>
          <rect class="cls-3" x="1262.14" y="562.3" width="2.96" height="23.68"/>
        </g>
        <g>
          <rect class="cls-3" x="1463.78" y="935.82" width="23.68" height="2.96"/>
          <rect class="cls-3" x="1455.76" y="916.46" width="38.48" height="2.96" transform="translate(-217.07 1311.84) rotate(-45)"/>
          <rect class="cls-3" x="1454.53" y="905.64" width="2.96" height="23.68"/>
        </g>
        <g>
          <circle class="cls-2" cx="1400.98" cy="780.64" r="24.42" transform="translate(-37.38 71.23) rotate(-2.87)"/>
          <circle class="cls-2" cx="1373.95" cy="696.84" r="14.8" transform="translate(127.31 1601.95) rotate(-62.87)"/>
          <rect class="cls-3" x="1384.62" y="709.73" width="2.96" height="49.58" transform="translate(-158.54 460.89) rotate(-17.87)"/>
          <circle class="cls-2" cx="1341.92" cy="845.95" r="14.8" transform="translate(-40.73 68.35) rotate(-2.87)"/>
          <rect class="cls-3" x="1343.68" y="815.11" width="49.58" height="2.96" transform="translate(-155.04 1283.96) rotate(-47.88)"/>
          <circle class="cls-2" cx="1487.07" cy="799.14" r="14.8"/>
          <rect class="cls-3" x="1446.89" y="766.04" width="2.96" height="49.58" transform="translate(370.94 2040.75) rotate(-77.87)"/>
        </g>
      </g>
    </g>
  </g>
</svg>