<?xml version="1.0" encoding="UTF-8"?>
<svg id="Ebene_2" data-name="Ebene 2" xmlns="http://www.w3.org/2000/svg" xmlns:xlink="http://www.w3.org/1999/xlink" viewBox="0 0 730 600">
  <defs>
    <style>
      .cls-1 {
        fill: #fff;
      }

      .cls-2 {
        fill: #243c77;
      }

      .cls-3 {
        fill: url(#Unbenannter_Verlauf_7-2);
      }

      .cls-4 {
        fill: #57b037;
      }

      .cls-4, .cls-5, .cls-6 {
        stroke: #1d1d1b;
        stroke-miterlimit: 10;
      }

      .cls-7 {
        fill: url(#Unbenannter_Verlauf_7-5);
      }

      .cls-8 {
        fill: url(#Unbenannter_Verlauf_7);
      }

      .cls-5 {
        fill: #e8bf29;
      }

      .cls-6 {
        fill: #d02122;
      }

      .cls-9 {
        opacity: .1;
      }

      .cls-10 {
        clip-path: url(#clippath);
      }

      .cls-11 {
        fill: #50a4d8;
      }

      .cls-12 {
        fill: none;
      }

      .cls-13 {
        fill: url(#Unbenannter_Verlauf_7-4);
      }

      .cls-14 {
        fill: url(#Unbenannter_Verlauf_7-6);
      }

      .cls-15 {
        fill: url(#Unbenannter_Verlauf_7-3);
      }
    </style>
    <clipPath id="clippath">
      <rect class="cls-12" width="730" height="600"/>
    </clipPath>
    <radialGradient id="Unbenannter_Verlauf_7" data-name="Unbenannter Verlauf 7" cx="8791.53" cy="712.84" fx="8791.53" fy="712.84" r="289.29" gradientTransform="translate(-125.35 -43.16) scale(.08 .88)" gradientUnits="userSpaceOnUse">
      <stop offset="0" stop-color="#50a4d8"/>
      <stop offset=".16" stop-color="#4c9cd1"/>
      <stop offset=".41" stop-color="#4487bd"/>
      <stop offset=".7" stop-color="#35669e"/>
      <stop offset="1" stop-color="#243d78"/>
    </radialGradient>
    <radialGradient id="Unbenannter_Verlauf_7-2" data-name="Unbenannter Verlauf 7" cx="7031.41" cy="856.82" fx="7031.41" fy="856.82" r="289.29" gradientTransform="translate(-125.35 -81.25) scale(.08 .74)" xlink:href="#Unbenannter_Verlauf_7"/>
    <radialGradient id="Unbenannter_Verlauf_7-3" data-name="Unbenannter Verlauf 7" cx="5317.02" cy="1241.22" fx="5317.02" fy="1241.22" r="289.29" gradientTransform="translate(-125.35 31.59) scale(.08 .49)" xlink:href="#Unbenannter_Verlauf_7"/>
    <radialGradient id="Unbenannter_Verlauf_7-4" data-name="Unbenannter Verlauf 7" cx="1861.57" cy="1265.32" fx="1861.57" fy="1265.32" r="289.29" gradientTransform="translate(-125.35 21.92) scale(.08 .49)" xlink:href="#Unbenannter_Verlauf_7"/>
    <radialGradient id="Unbenannter_Verlauf_7-5" data-name="Unbenannter Verlauf 7" cx="10505.93" cy="553.91" fx="10505.93" fy="553.91" r="289.29" xlink:href="#Unbenannter_Verlauf_7"/>
    <radialGradient id="Unbenannter_Verlauf_7-6" data-name="Unbenannter Verlauf 7" cx="3548.88" cy="1321.03" fx="3548.88" fy="1321.03" r="289.29" gradientTransform="translate(-125.35 31.59) scale(.08 .49)" xlink:href="#Unbenannter_Verlauf_7"/>
  </defs>
  <g id="Ebene_1-2" data-name="Ebene 1">
    <g class="cls-10">
      <rect class="cls-2" width="730" height="600"/>
      <circle class="cls-6" cx="132.22" cy="212.83" r="28.34"/>
      <circle class="cls-5" cx="132.22" cy="313.66" r="28.34"/>
      <circle class="cls-4" cx="132.22" cy="433.49" r="28.34"/>
      <rect class="cls-8" x="560.99" y="218.07" width="12.63" height="730.98"/>
      <rect class="cls-3" x="422.31" y="246.32" width="12.63" height="617.44"/>
      <rect class="cls-15" x="287.24" y="436.24" width="12.63" height="407.56"/>
      <rect class="cls-13" x="15" y="436.24" width="12.63" height="405.46"/>
      <rect class="cls-7" x="696.06" y="78.34" width="12.63" height="730.98"/>
      <rect class="cls-14" x="147.94" y="475.37" width="12.63" height="407.56"/>
      <g class="cls-9">
        <g>
          <g>
            <g>
              <path class="cls-11" d="M128.48,4.64H10.19V-.5h118.29V4.64Zm-116.63-.49H126.81V-.01H11.85V4.15Z"/>
              <path class="cls-11" d="M232.63,4.59h-74.88V-.45h74.88V4.59Zm-73.56-.39h72.23V-.06h-72.23V4.2Z"/>
            </g>
            <g>
              <path class="cls-11" d="M371.88,4.64h-118.29V-.5h118.29V4.64Zm-116.63-.49h114.96V-.01h-114.96V4.15Z"/>
              <path class="cls-11" d="M476.03,4.59h-74.88V-.45h74.88V4.59Zm-73.56-.39h72.23V-.06h-72.23V4.2Z"/>
            </g>
            <g>
              <path class="cls-11" d="M615.28,4.64h-118.29V-.5h118.29V4.64Zm-116.63-.49h114.96V-.01h-114.96V4.15Z"/>
              <path class="cls-11" d="M719.44,4.59h-74.88V-.45h74.88V4.59Zm-73.56-.39h72.23V-.06h-72.23V4.2Z"/>
            </g>
          </g>
          <g>
            <g>
              <path class="cls-11" d="M128.48,18.22H10.19v-5.14h118.29v5.14Zm-116.63-.49H126.81v-4.17H11.85v4.17Z"/>
              <path class="cls-11" d="M232.63,18.17h-74.88v-5.04h74.88v5.04Zm-73.56-.39h72.23v-4.27h-72.23v4.27Z"/>
            </g>
            <g>
              <path class="cls-11" d="M371.88,18.22h-118.29v-5.14h118.29v5.14Zm-116.63-.49h114.96v-4.17h-114.96v4.17Z"/>
              <path class="cls-11" d="M476.03,18.17h-74.88v-5.04h74.88v5.04Zm-73.56-.39h72.23v-4.27h-72.23v4.27Z"/>
            </g>
            <g>
              <path class="cls-11" d="M615.28,18.22h-118.29v-5.14h118.29v5.14Zm-116.63-.49h114.96v-4.17h-114.96v4.17Z"/>
              <path class="cls-11" d="M719.44,18.17h-74.88v-5.04h74.88v5.04Zm-73.56-.39h72.23v-4.27h-72.23v4.27Z"/>
            </g>
          </g>
          <g>
            <g>
              <path class="cls-11" d="M719.61,58.95h-118.29v-5.14h118.29v5.14Zm-116.63-.49h114.96v-4.17h-114.96v4.17Z"/>
              <path class="cls-11" d="M572.04,58.9h-74.88v-5.04h74.88v5.04Zm-73.56-.39h72.23v-4.27h-72.23v4.27Z"/>
            </g>
            <g>
              <path class="cls-11" d="M476.21,58.95h-118.29v-5.14h118.29v5.14Zm-116.63-.49h114.96v-4.17h-114.96v4.17Z"/>
              <path class="cls-11" d="M328.64,58.9h-74.88v-5.04h74.88v5.04Zm-73.56-.39h72.23v-4.27h-72.23v4.27Z"/>
            </g>
            <g>
              <path class="cls-11" d="M232.8,58.95H114.51v-5.14h118.29v5.14Zm-116.63-.49h114.96v-4.17H116.18v4.17Z"/>
              <path class="cls-11" d="M85.23,58.9H10.36v-5.04H85.23v5.04Zm-73.56-.39H83.91v-4.27H11.68v4.27Z"/>
            </g>
          </g>
          <g>
            <g>
              <path class="cls-11" d="M128.48,45.38H10.19v-5.14h118.29v5.14Zm-116.63-.49H126.81v-4.17H11.85v4.17Z"/>
              <path class="cls-11" d="M232.63,45.33h-74.88v-5.04h74.88v5.04Zm-73.56-.39h72.23v-4.27h-72.23v4.27Z"/>
            </g>
            <g>
              <path class="cls-11" d="M371.88,45.38h-118.29v-5.14h118.29v5.14Zm-116.63-.49h114.96v-4.17h-114.96v4.17Z"/>
              <path class="cls-11" d="M476.03,45.33h-74.88v-5.04h74.88v5.04Zm-73.56-.39h72.23v-4.27h-72.23v4.27Z"/>
            </g>
            <g>
              <path class="cls-11" d="M615.28,45.38h-118.29v-5.14h118.29v5.14Zm-116.63-.49h114.96v-4.17h-114.96v4.17Z"/>
              <path class="cls-11" d="M719.44,45.33h-74.88v-5.04h74.88v5.04Zm-73.56-.39h72.23v-4.27h-72.23v4.27Z"/>
            </g>
          </g>
          <g>
            <g>
              <path class="cls-11" d="M719.61,31.8h-118.29v-5.14h118.29v5.14Zm-116.63-.49h114.96v-4.17h-114.96v4.17Z"/>
              <path class="cls-11" d="M572.04,31.75h-74.88v-5.04h74.88v5.04Zm-73.56-.39h72.23v-4.27h-72.23v4.27Z"/>
            </g>
            <g>
              <path class="cls-11" d="M476.21,31.8h-118.29v-5.14h118.29v5.14Zm-116.63-.49h114.96v-4.17h-114.96v4.17Z"/>
              <path class="cls-11" d="M328.64,31.75h-74.88v-5.04h74.88v5.04Zm-73.56-.39h72.23v-4.27h-72.23v4.27Z"/>
            </g>
            <g>
              <path class="cls-11" d="M232.8,31.8H114.51v-5.14h118.29v5.14Zm-116.63-.49h114.96v-4.17H116.18v4.17Z"/>
              <path class="cls-11" d="M85.23,31.75H10.36v-5.04H85.23v5.04Zm-73.56-.39H83.91v-4.27H11.68v4.27Z"/>
            </g>
          </g>
          <g>
            <g>
              <path class="cls-11" d="M128.48,72.53H10.19v-5.14h118.29v5.14Zm-116.63-.49H126.81v-4.17H11.85v4.17Z"/>
              <path class="cls-11" d="M232.63,72.48h-74.88v-5.04h74.88v5.04Zm-73.56-.39h72.23v-4.27h-72.23v4.27Z"/>
            </g>
            <g>
              <path class="cls-11" d="M371.88,72.53h-118.29v-5.14h118.29v5.14Zm-116.63-.49h114.96v-4.17h-114.96v4.17Z"/>
              <path class="cls-11" d="M476.03,72.48h-74.88v-5.04h74.88v5.04Zm-73.56-.39h72.23v-4.27h-72.23v4.27Z"/>
            </g>
            <g>
              <path class="cls-11" d="M615.28,72.53h-118.29v-5.14h118.29v5.14Zm-116.63-.49h114.96v-4.17h-114.96v4.17Z"/>
              <path class="cls-11" d="M719.44,72.48h-74.88v-5.04h74.88v5.04Zm-73.56-.39h72.23v-4.27h-72.23v4.27Z"/>
            </g>
          </g>
          <g>
            <g>
              <path class="cls-11" d="M128.48,86.11H10.19v-5.14h118.29v5.14Zm-116.63-.49H126.81v-4.17H11.85v4.17Z"/>
              <path class="cls-11" d="M232.63,86.06h-74.88v-5.04h74.88v5.04Zm-73.56-.39h72.23v-4.27h-72.23v4.27Z"/>
            </g>
            <g>
              <path class="cls-11" d="M371.88,86.11h-118.29v-5.14h118.29v5.14Zm-116.63-.49h114.96s0-4.17,0-4.17h-114.96v4.17Z"/>
              <path class="cls-11" d="M476.03,86.06h-74.88v-5.04h74.88v5.04Zm-73.56-.39h72.23v-4.27h-72.23v4.27Z"/>
            </g>
            <g>
              <path class="cls-11" d="M615.28,86.11h-118.29v-5.14h118.29v5.14Zm-116.63-.49h114.96v-4.17h-114.96v4.17Z"/>
              <path class="cls-11" d="M719.44,86.06h-74.88v-5.04h74.88v5.04Zm-73.56-.39h72.23v-4.27h-72.23v4.27Z"/>
            </g>
          </g>
        </g>
        <g>
          <g>
            <g>
              <path class="cls-11" d="M128.48,122.2H10.19v-5.69h118.29v5.69Zm-116.63-.54H126.81v-4.61H11.85v4.61Z"/>
              <path class="cls-11" d="M232.63,122.14h-74.88v-5.58h74.88v5.58Zm-73.56-.43h72.23v-4.72h-72.23v4.72Z"/>
            </g>
            <g>
              <path class="cls-11" d="M371.88,122.2h-118.29v-5.69h118.29v5.69Zm-116.63-.54h114.96v-4.61h-114.96v4.61Z"/>
              <path class="cls-11" d="M476.03,122.14h-74.88v-5.58h74.88v5.58Zm-73.56-.43h72.23v-4.72h-72.23v4.72Z"/>
            </g>
            <g>
              <path class="cls-11" d="M615.28,122.2h-118.29v-5.69h118.29v5.69Zm-116.63-.54h114.96v-4.61h-114.96v4.61Z"/>
              <path class="cls-11" d="M719.44,122.14h-74.88v-5.58h74.88v5.58Zm-73.56-.43h72.23v-4.72h-72.23v4.72Z"/>
            </g>
          </g>
          <g>
            <g>
              <path class="cls-11" d="M128.48,137.21H10.19v-5.69h118.29v5.69Zm-116.63-.54H126.81v-4.61H11.85v4.61Z"/>
              <path class="cls-11" d="M232.63,137.16h-74.88v-5.58h74.88v5.58Zm-73.56-.43h72.23v-4.72h-72.23v4.72Z"/>
            </g>
            <g>
              <path class="cls-11" d="M371.88,137.21h-118.29v-5.69h118.29v5.69Zm-116.63-.54h114.96v-4.61h-114.96v4.61Z"/>
              <path class="cls-11" d="M476.03,137.16h-74.88v-5.58h74.88v5.58Zm-73.56-.43h72.23v-4.72h-72.23v4.72Z"/>
            </g>
            <g>
              <path class="cls-11" d="M615.28,137.21h-118.29v-5.69h118.29v5.69Zm-116.63-.54h114.96v-4.61h-114.96v4.61Z"/>
              <path class="cls-11" d="M719.44,137.16h-74.88v-5.58h74.88v5.58Zm-73.56-.43h72.23v-4.72h-72.23v4.72Z"/>
            </g>
          </g>
          <g>
            <g>
              <path class="cls-11" d="M719.61,182.27h-118.29v-5.69h118.29v5.69Zm-116.63-.54h114.96v-4.61h-114.96v4.61Z"/>
              <path class="cls-11" d="M572.04,182.21h-74.88v-5.58h74.88v5.58Zm-73.56-.43h72.23v-4.72h-72.23v4.72Z"/>
            </g>
            <g>
              <path class="cls-11" d="M476.21,182.27h-118.29v-5.69h118.29v5.69Zm-116.63-.54h114.96v-4.61h-114.96v4.61Z"/>
              <path class="cls-11" d="M328.64,182.21h-74.88v-5.58h74.88v5.58Zm-73.56-.43h72.23v-4.72h-72.23v4.72Z"/>
            </g>
            <g>
              <path class="cls-11" d="M232.8,182.27H114.51v-5.69h118.29v5.69Zm-116.63-.54h114.96v-4.61H116.18v4.61Z"/>
              <path class="cls-11" d="M85.23,182.21H10.36v-5.58H85.23v5.58Zm-73.56-.43H83.91v-4.72H11.68v4.72Z"/>
            </g>
          </g>
          <g>
            <g>
              <path class="cls-11" d="M128.48,167.25H10.19v-5.69h118.29v5.69Zm-116.63-.54H126.81v-4.61H11.85v4.61Z"/>
              <path class="cls-11" d="M232.63,167.2h-74.88v-5.58h74.88v5.58Zm-73.56-.43h72.23v-4.72h-72.23v4.72Z"/>
            </g>
            <g>
              <path class="cls-11" d="M371.88,167.25h-118.29v-5.69h118.29v5.69Zm-116.63-.54h114.96v-4.61h-114.96v4.61Z"/>
              <path class="cls-11" d="M476.03,167.2h-74.88v-5.58h74.88v5.58Zm-73.56-.43h72.23v-4.72h-72.23v4.72Z"/>
            </g>
            <g>
              <path class="cls-11" d="M615.28,167.25h-118.29v-5.69h118.29v5.69Zm-116.63-.54h114.96v-4.61h-114.96v4.61Z"/>
              <path class="cls-11" d="M719.44,167.2h-74.88v-5.58h74.88v5.58Zm-73.56-.43h72.23v-4.72h-72.23v4.72Z"/>
            </g>
          </g>
          <g>
            <g>
              <path class="cls-11" d="M719.61,152.23h-118.29v-5.69h118.29v5.69Zm-116.63-.54h114.96v-4.61h-114.96v4.61Z"/>
              <path class="cls-11" d="M572.04,152.18h-74.88v-5.58h74.88v5.58Zm-73.56-.43h72.23v-4.72h-72.23v4.72Z"/>
            </g>
            <g>
              <path class="cls-11" d="M476.21,152.23h-118.29v-5.69h118.29v5.69Zm-116.63-.54h114.96v-4.61h-114.96v4.61Z"/>
              <path class="cls-11" d="M328.64,152.18h-74.88v-5.58h74.88v5.58Zm-73.56-.43h72.23v-4.72h-72.23v4.72Z"/>
            </g>
            <g>
              <path class="cls-11" d="M232.8,152.23H114.51v-5.69h118.29v5.69Zm-116.63-.54h114.96v-4.61H116.18v4.61Z"/>
              <path class="cls-11" d="M85.23,152.18H10.36v-5.58H85.23v5.58Zm-73.56-.43H83.91v-4.72H11.68v4.72Z"/>
            </g>
          </g>
          <g>
            <g>
              <path class="cls-11" d="M128.48,197.29H10.19v-5.69h118.29v5.69Zm-116.63-.54H126.81v-4.61H11.85v4.61Z"/>
              <path class="cls-11" d="M232.63,197.23h-74.88v-5.58h74.88v5.58Zm-73.56-.43h72.23v-4.72h-72.23v4.72Z"/>
            </g>
            <g>
              <path class="cls-11" d="M371.88,197.29h-118.29v-5.69h118.29v5.69Zm-116.63-.54h114.96v-4.61h-114.96v4.61Z"/>
              <path class="cls-11" d="M476.03,197.23h-74.88v-5.58h74.88v5.58Zm-73.56-.43h72.23v-4.72h-72.23v4.72Z"/>
            </g>
            <g>
              <path class="cls-11" d="M615.28,197.29h-118.29v-5.69h118.29v5.69Zm-116.63-.54h114.96v-4.61h-114.96v4.61Z"/>
              <path class="cls-11" d="M719.44,197.23h-74.88v-5.58h74.88v5.58Zm-73.56-.43h72.23v-4.72h-72.23v4.72Z"/>
            </g>
          </g>
          <g>
            <g>
              <path class="cls-11" d="M128.48,212.31H10.19v-5.69h118.29v5.69Zm-116.63-.54H126.81v-4.61H11.85v4.61Z"/>
              <path class="cls-11" d="M232.63,212.25h-74.88v-5.58h74.88v5.58Zm-73.56-.43h72.23v-4.72h-72.23v4.72Z"/>
            </g>
            <g>
              <path class="cls-11" d="M371.88,212.31h-118.29v-5.69h118.29v5.69Zm-116.63-.54h114.96s0-4.61,0-4.61h-114.96v4.61Z"/>
              <path class="cls-11" d="M476.03,212.25h-74.88v-5.58h74.88v5.58Zm-73.56-.43h72.23v-4.72h-72.23v4.72Z"/>
            </g>
            <g>
              <path class="cls-11" d="M615.28,212.31h-118.29v-5.69h118.29v5.69Zm-116.63-.54h114.96v-4.61h-114.96v4.61Z"/>
              <path class="cls-11" d="M719.44,212.25h-74.88v-5.58h74.88v5.58Zm-73.56-.43h72.23v-4.72h-72.23v4.72Z"/>
            </g>
          </g>
        </g>
        <g>
          <g>
            <g>
              <path class="cls-11" d="M128.48,240.47H10.19v-5.03h118.29v5.03Zm-116.63-.48H126.81v-4.08H11.85v4.08Z"/>
              <path class="cls-11" d="M232.63,240.42h-74.88v-4.94h74.88v4.94Zm-73.56-.38h72.23v-4.18h-72.23v4.18Z"/>
            </g>
            <g>
              <path class="cls-11" d="M371.88,240.47h-118.29v-5.03h118.29v5.03Zm-116.63-.48h114.96v-4.08h-114.96v4.08Z"/>
              <path class="cls-11" d="M476.03,240.42h-74.88v-4.94h74.88v4.94Zm-73.56-.38h72.23v-4.18h-72.23v4.18Z"/>
            </g>
            <g>
              <path class="cls-11" d="M615.28,240.47h-118.29v-5.03h118.29v5.03Zm-116.63-.48h114.96v-4.08h-114.96v4.08Z"/>
              <path class="cls-11" d="M719.44,240.42h-74.88v-4.94h74.88v4.94Zm-73.56-.38h72.23v-4.18h-72.23v4.18Z"/>
            </g>
          </g>
          <g>
            <g>
              <path class="cls-11" d="M128.48,253.76H10.19v-5.03h118.29v5.03Zm-116.63-.48H126.81v-4.08H11.85v4.08Z"/>
              <path class="cls-11" d="M232.63,253.71h-74.88v-4.94h74.88v4.94Zm-73.56-.38h72.23v-4.18h-72.23v4.18Z"/>
            </g>
            <g>
              <path class="cls-11" d="M371.88,253.76h-118.29v-5.03h118.29v5.03Zm-116.63-.48h114.96v-4.08h-114.96v4.08Z"/>
              <path class="cls-11" d="M476.03,253.71h-74.88v-4.94h74.88v4.94Zm-73.56-.38h72.23v-4.18h-72.23v4.18Z"/>
            </g>
            <g>
              <path class="cls-11" d="M615.28,253.76h-118.29v-5.03h118.29v5.03Zm-116.63-.48h114.96v-4.08h-114.96v4.08Z"/>
              <path class="cls-11" d="M719.44,253.71h-74.88v-4.94h74.88v4.94Zm-73.56-.38h72.23v-4.18h-72.23v4.18Z"/>
            </g>
          </g>
          <g>
            <g>
              <path class="cls-11" d="M719.61,293.63h-118.29v-5.03h118.29v5.03Zm-116.63-.48h114.96v-4.08h-114.96v4.08Z"/>
              <path class="cls-11" d="M572.04,293.59h-74.88v-4.94h74.88v4.94Zm-73.56-.38h72.23v-4.18h-72.23v4.18Z"/>
            </g>
            <g>
              <path class="cls-11" d="M476.21,293.63h-118.29v-5.03h118.29v5.03Zm-116.63-.48h114.96v-4.08h-114.96v4.08Z"/>
              <path class="cls-11" d="M328.64,293.59h-74.88v-4.94h74.88v4.94Zm-73.56-.38h72.23v-4.18h-72.23v4.18Z"/>
            </g>
            <g>
              <path class="cls-11" d="M232.8,293.63H114.51v-5.03h118.29v5.03Zm-116.63-.48h114.96v-4.08H116.18v4.08Z"/>
              <path class="cls-11" d="M85.23,293.59H10.36v-4.94H85.23v4.94Zm-73.56-.38H83.91v-4.18H11.68v4.18Z"/>
            </g>
          </g>
          <g>
            <g>
              <path class="cls-11" d="M128.48,280.34H10.19v-5.03h118.29v5.03Zm-116.63-.48H126.81v-4.08H11.85v4.08Z"/>
              <path class="cls-11" d="M232.63,280.29h-74.88v-4.94h74.88v4.94Zm-73.56-.38h72.23v-4.18h-72.23v4.18Z"/>
            </g>
            <g>
              <path class="cls-11" d="M371.88,280.34h-118.29v-5.03h118.29v5.03Zm-116.63-.48h114.96v-4.08h-114.96v4.08Z"/>
              <path class="cls-11" d="M476.03,280.29h-74.88v-4.94h74.88v4.94Zm-73.56-.38h72.23v-4.18h-72.23v4.18Z"/>
            </g>
            <g>
              <path class="cls-11" d="M615.28,280.34h-118.29v-5.03h118.29v5.03Zm-116.63-.48h114.96v-4.08h-114.96v4.08Z"/>
              <path class="cls-11" d="M719.44,280.29h-74.88v-4.94h74.88v4.94Zm-73.56-.38h72.23v-4.18h-72.23v4.18Z"/>
            </g>
          </g>
          <g>
            <g>
              <path class="cls-11" d="M719.61,267.05h-118.29v-5.03h118.29v5.03Zm-116.63-.48h114.96v-4.08h-114.96v4.08Z"/>
              <path class="cls-11" d="M572.04,267h-74.88v-4.94h74.88v4.94Zm-73.56-.38h72.23v-4.18h-72.23v4.18Z"/>
            </g>
            <g>
              <path class="cls-11" d="M476.21,267.05h-118.29v-5.03h118.29v5.03Zm-116.63-.48h114.96v-4.08h-114.96v4.08Z"/>
              <path class="cls-11" d="M328.64,267h-74.88v-4.94h74.88v4.94Zm-73.56-.38h72.23v-4.18h-72.23v4.18Z"/>
            </g>
            <g>
              <path class="cls-11" d="M232.8,267.05H114.51v-5.03h118.29v5.03Zm-116.63-.48h114.96v-4.08H116.18v4.08Z"/>
              <path class="cls-11" d="M85.23,267H10.36v-4.94H85.23v4.94Zm-73.56-.38H83.91v-4.18H11.68v4.18Z"/>
            </g>
          </g>
          <g>
            <g>
              <path class="cls-11" d="M128.48,306.92H10.19v-5.03h118.29v5.03Zm-116.63-.48H126.81v-4.08H11.85v4.08Z"/>
              <path class="cls-11" d="M232.63,306.88h-74.88v-4.94h74.88v4.94Zm-73.56-.38h72.23v-4.18h-72.23v4.18Z"/>
            </g>
            <g>
              <path class="cls-11" d="M371.88,306.92h-118.29v-5.03h118.29v5.03Zm-116.63-.48h114.96v-4.08h-114.96v4.08Z"/>
              <path class="cls-11" d="M476.03,306.88h-74.88v-4.94h74.88v4.94Zm-73.56-.38h72.23v-4.18h-72.23v4.18Z"/>
            </g>
            <g>
              <path class="cls-11" d="M615.28,306.92h-118.29v-5.03h118.29v5.03Zm-116.63-.48h114.96v-4.08h-114.96v4.08Z"/>
              <path class="cls-11" d="M719.44,306.88h-74.88v-4.94h74.88v4.94Zm-73.56-.38h72.23v-4.18h-72.23v4.18Z"/>
            </g>
          </g>
          <g>
            <g>
              <path class="cls-11" d="M128.48,320.21H10.19v-5.03h118.29v5.03Zm-116.63-.48H126.81v-4.08H11.85v4.08Z"/>
              <path class="cls-11" d="M232.63,320.17h-74.88v-4.94h74.88v4.94Zm-73.56-.38h72.23v-4.18h-72.23v4.18Z"/>
            </g>
            <g>
              <path class="cls-11" d="M371.88,320.21h-118.29v-5.03h118.29v5.03Zm-116.63-.48h114.96s0-4.08,0-4.08h-114.96v4.08Z"/>
              <path class="cls-11" d="M476.03,320.17h-74.88v-4.94h74.88v4.94Zm-73.56-.38h72.23v-4.18h-72.23v4.18Z"/>
            </g>
            <g>
              <path class="cls-11" d="M615.28,320.21h-118.29v-5.03h118.29v5.03Zm-116.63-.48h114.96v-4.08h-114.96v4.08Z"/>
              <path class="cls-11" d="M719.44,320.17h-74.88v-4.94h74.88v4.94Zm-73.56-.38h72.23v-4.18h-72.23v4.18Z"/>
            </g>
          </g>
        </g>
        <g>
          <g>
            <g>
              <path class="cls-11" d="M128.48,358.98H10.19v-5.67h118.29v5.67Zm-116.63-.54H126.81v-4.59H11.85v4.59Z"/>
              <path class="cls-11" d="M232.63,358.93h-74.88v-5.56h74.88v5.56Zm-73.56-.43h72.23v-4.7h-72.23v4.7Z"/>
            </g>
            <g>
              <path class="cls-11" d="M371.88,358.98h-118.29v-5.67h118.29v5.67Zm-116.63-.54h114.96v-4.59h-114.96v4.59Z"/>
              <path class="cls-11" d="M476.03,358.93h-74.88v-5.56h74.88v5.56Zm-73.56-.43h72.23v-4.7h-72.23v4.7Z"/>
            </g>
            <g>
              <path class="cls-11" d="M615.28,358.98h-118.29v-5.67h118.29v5.67Zm-116.63-.54h114.96v-4.59h-114.96v4.59Z"/>
              <path class="cls-11" d="M719.44,358.93h-74.88v-5.56h74.88v5.56Zm-73.56-.43h72.23v-4.7h-72.23v4.7Z"/>
            </g>
          </g>
          <g>
            <g>
              <path class="cls-11" d="M128.48,373.94H10.19v-5.67h118.29v5.67Zm-116.63-.54H126.81v-4.59H11.85v4.59Z"/>
              <path class="cls-11" d="M232.63,373.89h-74.88v-5.56h74.88v5.56Zm-73.56-.43h72.23v-4.7h-72.23v4.7Z"/>
            </g>
            <g>
              <path class="cls-11" d="M371.88,373.94h-118.29v-5.67h118.29v5.67Zm-116.63-.54h114.96v-4.59h-114.96v4.59Z"/>
              <path class="cls-11" d="M476.03,373.89h-74.88v-5.56h74.88v5.56Zm-73.56-.43h72.23v-4.7h-72.23v4.7Z"/>
            </g>
            <g>
              <path class="cls-11" d="M615.28,373.94h-118.29v-5.67h118.29v5.67Zm-116.63-.54h114.96v-4.59h-114.96v4.59Z"/>
              <path class="cls-11" d="M719.44,373.89h-74.88v-5.56h74.88v5.56Zm-73.56-.43h72.23v-4.7h-72.23v4.7Z"/>
            </g>
          </g>
          <g>
            <g>
              <path class="cls-11" d="M719.61,418.83h-118.29v-5.67h118.29v5.67Zm-116.63-.54h114.96v-4.59h-114.96v4.59Z"/>
              <path class="cls-11" d="M572.04,418.77h-74.88v-5.56h74.88v5.56Zm-73.56-.43h72.23v-4.7h-72.23v4.7Z"/>
            </g>
            <g>
              <path class="cls-11" d="M476.21,418.83h-118.29v-5.67h118.29v5.67Zm-116.63-.54h114.96v-4.59h-114.96v4.59Z"/>
              <path class="cls-11" d="M328.64,418.77h-74.88v-5.56h74.88v5.56Zm-73.56-.43h72.23v-4.7h-72.23v4.7Z"/>
            </g>
            <g>
              <path class="cls-11" d="M232.8,418.83H114.51v-5.67h118.29v5.67Zm-116.63-.54h114.96v-4.59H116.18v4.59Z"/>
              <path class="cls-11" d="M85.23,418.77H10.36v-5.56H85.23v5.56Zm-73.56-.43H83.91v-4.7H11.68v4.7Z"/>
            </g>
          </g>
          <g>
            <g>
              <path class="cls-11" d="M128.48,403.87H10.19v-5.67h118.29v5.67Zm-116.63-.54H126.81v-4.59H11.85v4.59Z"/>
              <path class="cls-11" d="M232.63,403.81h-74.88v-5.56h74.88v5.56Zm-73.56-.43h72.23v-4.7h-72.23v4.7Z"/>
            </g>
            <g>
              <path class="cls-11" d="M371.88,403.87h-118.29v-5.67h118.29v5.67Zm-116.63-.54h114.96v-4.59h-114.96v4.59Z"/>
              <path class="cls-11" d="M476.03,403.81h-74.88v-5.56h74.88v5.56Zm-73.56-.43h72.23v-4.7h-72.23v4.7Z"/>
            </g>
            <g>
              <path class="cls-11" d="M615.28,403.87h-118.29v-5.67h118.29v5.67Zm-116.63-.54h114.96v-4.59h-114.96v4.59Z"/>
              <path class="cls-11" d="M719.44,403.81h-74.88v-5.56h74.88v5.56Zm-73.56-.43h72.23v-4.7h-72.23v4.7Z"/>
            </g>
          </g>
          <g>
            <g>
              <path class="cls-11" d="M719.61,388.9h-118.29v-5.67h118.29v5.67Zm-116.63-.54h114.96v-4.59h-114.96v4.59Z"/>
              <path class="cls-11" d="M572.04,388.85h-74.88v-5.56h74.88v5.56Zm-73.56-.43h72.23v-4.7h-72.23v4.7Z"/>
            </g>
            <g>
              <path class="cls-11" d="M476.21,388.9h-118.29v-5.67h118.29v5.67Zm-116.63-.54h114.96v-4.59h-114.96v4.59Z"/>
              <path class="cls-11" d="M328.64,388.85h-74.88v-5.56h74.88v5.56Zm-73.56-.43h72.23v-4.7h-72.23v4.7Z"/>
            </g>
            <g>
              <path class="cls-11" d="M232.8,388.9H114.51v-5.67h118.29v5.67Zm-116.63-.54h114.96v-4.59H116.18v4.59Z"/>
              <path class="cls-11" d="M85.23,388.85H10.36v-5.56H85.23v5.56Zm-73.56-.43H83.91v-4.7H11.68v4.7Z"/>
            </g>
          </g>
          <g>
            <g>
              <path class="cls-11" d="M128.48,433.79H10.19v-5.67h118.29v5.67Zm-116.63-.54H126.81v-4.59H11.85v4.59Z"/>
              <path class="cls-11" d="M232.63,433.73h-74.88v-5.56h74.88v5.56Zm-73.56-.43h72.23v-4.7h-72.23v4.7Z"/>
            </g>
            <g>
              <path class="cls-11" d="M371.88,433.79h-118.29v-5.67h118.29v5.67Zm-116.63-.54h114.96v-4.59h-114.96v4.59Z"/>
              <path class="cls-11" d="M476.03,433.73h-74.88v-5.56h74.88v5.56Zm-73.56-.43h72.23v-4.7h-72.23v4.7Z"/>
            </g>
            <g>
              <path class="cls-11" d="M615.28,433.79h-118.29v-5.67h118.29v5.67Zm-116.63-.54h114.96v-4.59h-114.96v4.59Z"/>
              <path class="cls-11" d="M719.44,433.73h-74.88v-5.56h74.88v5.56Zm-73.56-.43h72.23v-4.7h-72.23v4.7Z"/>
            </g>
          </g>
          <g>
            <g>
              <path class="cls-11" d="M128.48,448.75H10.19v-5.67h118.29v5.67Zm-116.63-.54H126.81v-4.59H11.85v4.59Z"/>
              <path class="cls-11" d="M232.63,448.7h-74.88v-5.56h74.88v5.56Zm-73.56-.43h72.23v-4.7h-72.23v4.7Z"/>
            </g>
            <g>
              <path class="cls-11" d="M371.88,448.75h-118.29v-5.67h118.29v5.67Zm-116.63-.54h114.96s0-4.59,0-4.59h-114.96v4.59Z"/>
              <path class="cls-11" d="M476.03,448.7h-74.88v-5.56h74.88v5.56Zm-73.56-.43h72.23v-4.7h-72.23v4.7Z"/>
            </g>
            <g>
              <path class="cls-11" d="M615.28,448.75h-118.29v-5.67h118.29v5.67Zm-116.63-.54h114.96v-4.59h-114.96v4.59Z"/>
              <path class="cls-11" d="M719.44,448.7h-74.88v-5.56h74.88v5.56Zm-73.56-.43h72.23v-4.7h-72.23v4.7Z"/>
            </g>
          </g>
        </g>
        <g>
          <g>
            <g>
              <path class="cls-11" d="M128.48,507.79H10.19v-5.79h118.29v5.79Zm-116.63-.55H126.81v-4.69H11.85v4.69Z"/>
              <path class="cls-11" d="M232.63,507.73h-74.88v-5.68h74.88v5.68Zm-73.56-.44h72.23v-4.8h-72.23v4.8Z"/>
            </g>
            <g>
              <path class="cls-11" d="M371.88,507.79h-118.29v-5.79h118.29v5.79Zm-116.63-.55h114.96v-4.69h-114.96v4.69Z"/>
              <path class="cls-11" d="M476.03,507.73h-74.88v-5.68h74.88v5.68Zm-73.56-.44h72.23v-4.8h-72.23v4.8Z"/>
            </g>
            <g>
              <path class="cls-11" d="M615.28,507.79h-118.29v-5.79h118.29v5.79Zm-116.63-.55h114.96v-4.69h-114.96v4.69Z"/>
              <path class="cls-11" d="M719.44,507.73h-74.88v-5.68h74.88v5.68Zm-73.56-.44h72.23v-4.8h-72.23v4.8Z"/>
            </g>
          </g>
          <g>
            <g>
              <path class="cls-11" d="M128.48,523.07H10.19v-5.79h118.29v5.79Zm-116.63-.55H126.81v-4.69H11.85v4.69Z"/>
              <path class="cls-11" d="M232.63,523.02h-74.88v-5.68h74.88v5.68Zm-73.56-.44h72.23v-4.8h-72.23v4.8Z"/>
            </g>
            <g>
              <path class="cls-11" d="M371.88,523.07h-118.29v-5.79h118.29v5.79Zm-116.63-.55h114.96v-4.69h-114.96v4.69Z"/>
              <path class="cls-11" d="M476.03,523.02h-74.88v-5.68h74.88v5.68Zm-73.56-.44h72.23v-4.8h-72.23v4.8Z"/>
            </g>
            <g>
              <path class="cls-11" d="M615.28,523.07h-118.29v-5.79h118.29v5.79Zm-116.63-.55h114.96v-4.69h-114.96v4.69Z"/>
              <path class="cls-11" d="M719.44,523.02h-74.88v-5.68h74.88v5.68Zm-73.56-.44h72.23v-4.8h-72.23v4.8Z"/>
            </g>
          </g>
          <g>
            <g>
              <path class="cls-11" d="M719.61,568.93h-118.29v-5.79h118.29v5.79Zm-116.63-.55h114.96v-4.69h-114.96v4.69Z"/>
              <path class="cls-11" d="M572.04,568.87h-74.88v-5.68h74.88v5.68Zm-73.56-.44h72.23v-4.8h-72.23v4.8Z"/>
            </g>
            <g>
              <path class="cls-11" d="M476.21,568.93h-118.29v-5.79h118.29v5.79Zm-116.63-.55h114.96v-4.69h-114.96v4.69Z"/>
              <path class="cls-11" d="M328.64,568.87h-74.88v-5.68h74.88v5.68Zm-73.56-.44h72.23v-4.8h-72.23v4.8Z"/>
            </g>
            <g>
              <path class="cls-11" d="M232.8,568.93H114.51v-5.79h118.29v5.79Zm-116.63-.55h114.96v-4.69H116.18v4.69Z"/>
              <path class="cls-11" d="M85.23,568.87H10.36v-5.68H85.23v5.68Zm-73.56-.44H83.91v-4.8H11.68v4.8Z"/>
            </g>
          </g>
          <g>
            <g>
              <path class="cls-11" d="M128.48,553.64H10.19v-5.79h118.29v5.79Zm-116.63-.55H126.81v-4.69H11.85v4.69Z"/>
              <path class="cls-11" d="M232.63,553.59h-74.88v-5.68h74.88v5.68Zm-73.56-.44h72.23v-4.8h-72.23v4.8Z"/>
            </g>
            <g>
              <path class="cls-11" d="M371.88,553.64h-118.29v-5.79h118.29v5.79Zm-116.63-.55h114.96v-4.69h-114.96v4.69Z"/>
              <path class="cls-11" d="M476.03,553.59h-74.88v-5.68h74.88v5.68Zm-73.56-.44h72.23v-4.8h-72.23v4.8Z"/>
            </g>
            <g>
              <path class="cls-11" d="M615.28,553.64h-118.29v-5.79h118.29v5.79Zm-116.63-.55h114.96v-4.69h-114.96v4.69Z"/>
              <path class="cls-11" d="M719.44,553.59h-74.88v-5.68h74.88v5.68Zm-73.56-.44h72.23v-4.8h-72.23v4.8Z"/>
            </g>
          </g>
          <g>
            <g>
              <path class="cls-11" d="M719.61,538.36h-118.29v-5.79h118.29v5.79Zm-116.63-.55h114.96v-4.69h-114.96v4.69Z"/>
              <path class="cls-11" d="M572.04,538.3h-74.88v-5.68h74.88v5.68Zm-73.56-.44h72.23v-4.8h-72.23v4.8Z"/>
            </g>
            <g>
              <path class="cls-11" d="M476.21,538.36h-118.29v-5.79h118.29v5.79Zm-116.63-.55h114.96v-4.69h-114.96v4.69Z"/>
              <path class="cls-11" d="M328.64,538.3h-74.88v-5.68h74.88v5.68Zm-73.56-.44h72.23v-4.8h-72.23v4.8Z"/>
            </g>
            <g>
              <path class="cls-11" d="M232.8,538.36H114.51v-5.79h118.29v5.79Zm-116.63-.55h114.96v-4.69H116.18v4.69Z"/>
              <path class="cls-11" d="M85.23,538.3H10.36v-5.68H85.23v5.68Zm-73.56-.44H83.91v-4.8H11.68v4.8Z"/>
            </g>
          </g>
          <g>
            <g>
              <path class="cls-11" d="M128.48,584.21H10.19v-5.79h118.29v5.79Zm-116.63-.55H126.81v-4.69H11.85v4.69Z"/>
              <path class="cls-11" d="M232.63,584.16h-74.88v-5.68h74.88v5.68Zm-73.56-.44h72.23v-4.8h-72.23v4.8Z"/>
            </g>
            <g>
              <path class="cls-11" d="M371.88,584.21h-118.29v-5.79h118.29v5.79Zm-116.63-.55h114.96v-4.69h-114.96v4.69Z"/>
              <path class="cls-11" d="M476.03,584.16h-74.88v-5.68h74.88v5.68Zm-73.56-.44h72.23v-4.8h-72.23v4.8Z"/>
            </g>
            <g>
              <path class="cls-11" d="M615.28,584.21h-118.29v-5.79h118.29v5.79Zm-116.63-.55h114.96v-4.69h-114.96v4.69Z"/>
              <path class="cls-11" d="M719.44,584.16h-74.88v-5.68h74.88v5.68Zm-73.56-.44h72.23v-4.8h-72.23v4.8Z"/>
            </g>
          </g>
          <g>
            <g>
              <path class="cls-11" d="M128.48,599.5H10.19v-5.79h118.29v5.79Zm-116.63-.55H126.81v-4.69H11.85v4.69Z"/>
              <path class="cls-11" d="M232.63,599.44h-74.88v-5.68h74.88v5.68Zm-73.56-.44h72.23v-4.8h-72.23v4.8Z"/>
            </g>
            <g>
              <path class="cls-11" d="M371.88,599.5h-118.29v-5.79h118.29v5.79Zm-116.63-.55h114.96s0-4.69,0-4.69h-114.96v4.69Z"/>
              <path class="cls-11" d="M476.03,599.44h-74.88v-5.68h74.88v5.68Zm-73.56-.44h72.23v-4.8h-72.23v4.8Z"/>
            </g>
            <g>
              <path class="cls-11" d="M615.28,599.5h-118.29v-5.79h118.29v5.79Zm-116.63-.55h114.96v-4.69h-114.96v4.69Z"/>
              <path class="cls-11" d="M719.44,599.44h-74.88v-5.68h74.88v5.68Zm-73.56-.44h72.23v-4.8h-72.23v4.8Z"/>
            </g>
          </g>
        </g>
      </g>
      <g>
        <path class="cls-1" d="M198.7,313.7h-2.55l-2.91-6.66h-8.85l-2.64,6.66h-2.4l7.92-19.8h2.73l8.7,19.8Zm-13.47-8.76h7.08l-3.72-8.52-3.36,8.52Z"/>
        <path class="cls-1" d="M211.39,302.42c-.46-.34-1.12-.64-1.98-.92-.86-.27-1.72-.4-2.58-.4s-1.62,.15-2.23,.45c-.61,.3-1.12,.7-1.52,1.2-.4,.5-.69,1.08-.87,1.73-.18,.65-.27,1.33-.27,2.02,0,.78,.11,1.53,.33,2.25,.22,.72,.54,1.35,.97,1.89s.96,.97,1.59,1.29c.63,.32,1.37,.48,2.21,.48s1.62-.17,2.48-.51c.85-.34,1.55-.77,2.11-1.29l.42,1.95c-.56,.36-1.32,.7-2.29,1.02-.97,.32-2,.48-3.1,.48-1.16,0-2.17-.2-3.04-.6-.87-.4-1.59-.93-2.16-1.6s-1-1.45-1.29-2.34-.43-1.83-.43-2.83,.13-1.88,.4-2.75c.27-.87,.7-1.64,1.28-2.31,.58-.67,1.32-1.2,2.22-1.59,.9-.39,1.98-.58,3.24-.58,.96,0,1.9,.11,2.82,.33,.92,.22,1.66,.51,2.22,.87l-.51,1.77Z"/>
        <path class="cls-1" d="M225.31,313.7v-9.12c0-1.22-.27-2.08-.81-2.59s-1.23-.77-2.07-.77c-.5,0-1,.08-1.49,.24-.49,.16-.95,.4-1.37,.71-.42,.31-.79,.69-1.11,1.14-.32,.45-.57,.96-.75,1.54v8.85h-2.1v-22.2h2.1v10.98c.26-.84,.82-1.55,1.69-2.15,.87-.59,1.97-.88,3.32-.88,.64,0,1.25,.08,1.81,.25,.57,.17,1.07,.45,1.49,.83s.75,.88,1,1.5,.38,1.38,.38,2.28v9.39h-2.1Z"/>
        <path class="cls-1" d="M232.6,301.31h-2.31v-1.11l2.37-.3,.45-4.17h1.59v4.17h3.24v1.41h-3.24v9.57c0,.64,.09,1.06,.29,1.26,.19,.2,.48,.3,.88,.3,.46,0,.87-.07,1.23-.21,.36-.14,.68-.31,.96-.51l.42,1.59c-.34,.16-.79,.32-1.33,.48s-1.15,.24-1.81,.24-1.14-.09-1.5-.27c-.36-.18-.63-.42-.81-.72-.18-.3-.29-.63-.34-1s-.08-.74-.08-1.09v-9.63Z"/>
        <path class="cls-1" d="M243.31,299.9v9.12c0,.62,.08,1.14,.22,1.56,.15,.42,.35,.75,.6,1,.25,.25,.55,.43,.9,.54,.35,.11,.74,.17,1.16,.17,.5,0,1-.08,1.49-.22,.49-.15,.94-.38,1.36-.67,.42-.3,.79-.67,1.11-1.11,.32-.44,.57-.95,.75-1.53v-8.85h2.1v13.8h-1.65l-.24-2.58h-.12c-.26,.84-.84,1.54-1.74,2.1-.9,.56-2.02,.84-3.36,.84-.64,0-1.25-.08-1.82-.24-.57-.16-1.06-.42-1.48-.79s-.76-.86-1-1.47c-.25-.61-.38-1.37-.38-2.27v-9.39h2.1Z"/>
        <path class="cls-1" d="M267.37,313.7v-9.12c0-1.2-.27-2.06-.81-2.58-.54-.52-1.23-.78-2.07-.78-.5,0-1,.08-1.49,.24-.49,.16-.95,.4-1.37,.71-.42,.31-.79,.69-1.11,1.14-.32,.45-.57,.96-.75,1.54v8.85h-2.1v-13.8h1.65l.24,2.58h.12c.26-.84,.84-1.55,1.74-2.15,.9-.59,2.02-.88,3.36-.88,.64,0,1.25,.08,1.81,.25,.57,.17,1.07,.45,1.49,.83s.75,.88,1,1.5,.38,1.38,.38,2.28v9.39h-2.1Z"/>
        <path class="cls-1" d="M275.92,309.45c-.96-.38-1.65-.99-2.07-1.82s-.63-1.73-.63-2.69c0-.78,.13-1.5,.39-2.16s.63-1.24,1.12-1.74c.49-.5,1.08-.89,1.77-1.17,.69-.28,1.47-.42,2.35-.42,.52,0,1.04,.05,1.54,.15s.96,.24,1.33,.44c.84,0,1.62-.04,2.36-.12,.73-.08,1.41-.22,2.05-.4l.15,.12-.21,1.6-.15,.14h-2.73l-.03,.09c.52,.42,.9,.96,1.14,1.64,.24,.68,.36,1.33,.36,1.97s-.12,1.28-.38,1.88c-.25,.6-.62,1.12-1.1,1.56-.48,.45-1.08,.8-1.78,1.07-.71,.27-1.53,.4-2.45,.4h-1.02c-.42,.14-.73,.33-.94,.57s-.32,.44-.32,.6c0,.2,.13,.38,.41,.52,.27,.15,.71,.25,1.3,.31l2.91,.3c.66,.06,1.28,.19,1.84,.4,.57,.21,1.07,.48,1.49,.81s.75,.73,1,1.2,.38,1,.38,1.6-.13,1.17-.39,1.78c-.26,.61-.65,1.13-1.17,1.57-.52,.44-1.24,.8-2.16,1.08-.92,.28-1.98,.42-3.18,.42-1.02,0-1.94-.11-2.75-.31-.81-.21-1.49-.5-2.04-.87-.55-.37-.97-.79-1.26-1.27-.29-.48-.43-.99-.43-1.53,0-.4,.08-.79,.24-1.18,.16-.39,.37-.75,.63-1.09s.56-.64,.92-.9c.35-.26,.71-.46,1.09-.6v-.12c-.82-.38-1.23-.9-1.23-1.56,0-.42,.15-.8,.46-1.14,.31-.34,.69-.67,1.16-.99v-.12Zm2.1,4.51c-.46,0-.88,.09-1.28,.26-.39,.18-.73,.4-1.02,.68-.29,.27-.52,.58-.69,.93-.17,.34-.25,.68-.25,1.01,0,.74,.41,1.34,1.21,1.78,.81,.44,1.91,.66,3.29,.66,.66,0,1.28-.06,1.84-.17,.57-.11,1.06-.29,1.47-.52,.41-.23,.73-.52,.97-.86s.36-.74,.36-1.21c0-.92-.49-1.57-1.46-1.97-.97-.4-2.46-.6-4.46-.6Zm.96-5.48c.56,0,1.05-.09,1.49-.29,.43-.19,.79-.44,1.09-.75,.3-.31,.53-.67,.69-1.09s.24-.86,.24-1.32-.08-.93-.24-1.41c-.16-.48-.39-.92-.7-1.3-.31-.39-.7-.71-1.16-.95-.46-.24-.99-.36-1.59-.36s-1.09,.12-1.52,.35-.79,.52-1.08,.88-.5,.76-.64,1.2c-.14,.44-.21,.88-.21,1.32,0,.46,.08,.91,.22,1.35,.15,.44,.38,.83,.69,1.18,.31,.35,.69,.64,1.14,.86s.98,.33,1.58,.33Z"/>
        <path class="cls-1" d="M288.97,316.04l1.17-2.19h-.75v-2.7h2.37v3.15l-2.19,2.31-.6-.57Z"/>
        <path class="cls-1" d="M310.09,299.45c1.76,0,3.12,.45,4.08,1.33,.96,.89,1.44,2.15,1.44,3.76,0,.34-.02,.69-.06,1.04-.04,.35-.11,.61-.21,.77h-10.11v.3c0,.76,.1,1.49,.3,2.19,.2,.7,.5,1.32,.9,1.86,.4,.54,.9,.97,1.51,1.29,.61,.32,1.33,.48,2.17,.48,.48,0,.95-.05,1.41-.16,.46-.11,.9-.25,1.32-.42,.42-.17,.81-.35,1.17-.55,.36-.2,.68-.4,.96-.6l.36,1.71c-.26,.16-.58,.33-.96,.52-.38,.19-.8,.37-1.26,.53s-.96,.29-1.51,.41c-.55,.11-1.12,.17-1.73,.17-1.12,0-2.11-.2-2.97-.58-.86-.39-1.58-.92-2.16-1.59-.58-.67-1.02-1.44-1.32-2.32-.3-.88-.45-1.8-.45-2.76s.15-1.91,.46-2.8c.31-.89,.76-1.67,1.37-2.35,.6-.68,1.34-1.22,2.23-1.61s1.91-.58,3.04-.58Zm-.09,1.68c-1.32,0-2.34,.35-3.07,1.04-.73,.69-1.23,1.56-1.49,2.59h8.19c.02-.1,.03-.19,.03-.27v-.27c0-.5-.1-.94-.3-1.33-.2-.39-.47-.71-.81-.97-.34-.26-.73-.46-1.17-.58-.44-.13-.9-.2-1.38-.2Z"/>
        <path class="cls-1" d="M323.47,301.13c-.96,0-1.66,.18-2.08,.53s-.64,.83-.64,1.42c0,.2,.03,.41,.09,.63,.06,.22,.17,.43,.34,.62,.17,.19,.4,.37,.69,.54,.29,.17,.67,.3,1.16,.41l2.13,.48c.84,.18,1.51,.43,2.02,.74,.51,.31,.91,.64,1.19,1,.28,.36,.46,.73,.55,1.09,.09,.37,.13,.72,.13,1.04,0,.62-.12,1.2-.38,1.74s-.61,1.01-1.08,1.41-1.04,.71-1.72,.94c-.68,.23-1.44,.35-2.28,.35-1.06,0-2.04-.16-2.94-.47-.9-.31-1.62-.65-2.16-1.03l.54-1.95c.72,.66,1.52,1.14,2.4,1.44,.88,.3,1.67,.45,2.37,.45,1,0,1.76-.24,2.28-.73,.52-.49,.78-1.01,.78-1.55,0-.18-.01-.38-.03-.61-.02-.23-.1-.46-.24-.71s-.35-.46-.63-.67-.68-.38-1.2-.5l-2.88-.72c-.66-.16-1.2-.37-1.62-.63-.42-.26-.75-.54-.99-.85-.24-.31-.41-.64-.51-.99-.1-.35-.15-.71-.15-1.07,0-1.22,.45-2.19,1.36-2.92,.91-.73,2.12-1.09,3.65-1.09,.78,0,1.62,.11,2.52,.32,.9,.21,1.66,.51,2.28,.92l-.57,1.8c-.4-.34-1-.65-1.78-.93-.79-.28-1.66-.42-2.6-.42Z"/>
        <path class="cls-1" d="M345.64,304.76l5.88,8.94h-2.4l-4.95-7.5-2.07,2.07v5.43h-2.1v-22.2h2.1v14.22l6.06-5.82h2.4l-4.92,4.86Z"/>
        <path class="cls-1" d="M362.98,313.7l-.24-2.46h-.12c-.24,.38-.56,.74-.96,1.08-.4,.34-.85,.64-1.33,.9-.49,.26-1.02,.47-1.59,.62-.57,.15-1.14,.23-1.7,.23-1.32,0-2.31-.38-2.97-1.16-.66-.77-.99-1.74-.99-2.9s.29-2.05,.87-2.73c.58-.68,1.29-1.19,2.13-1.53,.84-.34,1.72-.56,2.66-.66,.93-.1,1.74-.15,2.44-.15h1.35v-.36c0-.76-.11-1.34-.32-1.74-.21-.4-.51-.74-.92-1.02-.34-.22-.71-.38-1.09-.46-.39-.09-.91-.14-1.54-.14-.84,0-1.58,.11-2.22,.33-.64,.22-1.26,.51-1.86,.87l-.48-1.8c1.34-.78,2.94-1.17,4.8-1.17,.74,0,1.44,.07,2.1,.2s1.24,.36,1.74,.67c.58,.36,1.04,.87,1.38,1.53,.34,.66,.51,1.48,.51,2.46v9.39h-1.65Zm-5.31-1.41c.82,0,1.69-.26,2.61-.78,.92-.52,1.67-1.27,2.25-2.25v-2.79h-.27c-.82,0-1.64,.03-2.46,.09-.82,.06-1.57,.21-2.24,.45-.67,.24-1.21,.58-1.63,1.04s-.63,1.07-.63,1.85,.21,1.38,.65,1.78c.43,.41,1,.62,1.72,.62Z"/>
        <path class="cls-1" d="M378.85,313.7v-9.12c0-1.2-.27-2.06-.81-2.58-.54-.52-1.23-.78-2.07-.78-.5,0-1,.08-1.49,.24-.49,.16-.95,.4-1.37,.71-.42,.31-.79,.69-1.11,1.14-.32,.45-.57,.96-.75,1.54v8.85h-2.1v-13.8h1.65l.24,2.58h.12c.26-.84,.84-1.55,1.74-2.15,.9-.59,2.02-.88,3.36-.88,.64,0,1.25,.08,1.81,.25,.57,.17,1.07,.45,1.49,.83s.75,.88,1,1.5,.38,1.38,.38,2.28v9.39h-2.1Z"/>
        <path class="cls-1" d="M395.2,313.7v-9.12c0-1.2-.27-2.06-.81-2.58-.54-.52-1.23-.78-2.07-.78-.5,0-1,.08-1.49,.24-.49,.16-.95,.4-1.37,.71-.42,.31-.79,.69-1.11,1.14-.32,.45-.57,.96-.75,1.54v8.85h-2.1v-13.8h1.65l.24,2.58h.12c.26-.84,.84-1.55,1.74-2.15,.9-.59,2.02-.88,3.36-.88,.64,0,1.25,.08,1.81,.25,.57,.17,1.07,.45,1.49,.83s.75,.88,1,1.5,.38,1.38,.38,2.28v9.39h-2.1Z"/>
        <path class="cls-1" d="M416.62,314.06c-1.28,0-2.38-.29-3.3-.86s-1.62-1.22-2.1-1.96h-.12l-.24,2.46h-1.65v-22.2h2.1v10.98c.26-.86,.83-1.58,1.71-2.16,.88-.58,1.97-.87,3.27-.87,1.06,0,1.99,.2,2.79,.6,.8,.4,1.46,.94,2,1.61,.53,.67,.93,1.46,1.2,2.35,.27,.9,.4,1.84,.4,2.82s-.12,1.88-.38,2.75-.62,1.63-1.12,2.29-1.13,1.19-1.89,1.59c-.76,.4-1.65,.6-2.67,.6Zm-.24-1.77c.76,0,1.4-.16,1.92-.48,.52-.32,.94-.74,1.26-1.25,.32-.51,.55-1.08,.69-1.73,.14-.64,.21-1.28,.21-1.92,0-.84-.1-1.61-.31-2.31s-.51-1.3-.89-1.8-.85-.89-1.41-1.17c-.56-.28-1.18-.42-1.86-.42-1.06,0-2.02,.32-2.87,.96-.85,.64-1.46,1.53-1.81,2.67v4.41c.58,.96,1.33,1.71,2.25,2.24,.92,.53,1.86,.79,2.82,.79Z"/>
        <path class="cls-1" d="M435.22,313.7l-.24-2.46h-.12c-.24,.38-.56,.74-.96,1.08-.4,.34-.85,.64-1.33,.9-.49,.26-1.02,.47-1.59,.62-.57,.15-1.14,.23-1.7,.23-1.32,0-2.31-.38-2.97-1.16-.66-.77-.99-1.74-.99-2.9s.29-2.05,.87-2.73c.58-.68,1.29-1.19,2.13-1.53,.84-.34,1.72-.56,2.66-.66,.93-.1,1.74-.15,2.44-.15h1.35v-.36c0-.76-.11-1.34-.32-1.74-.21-.4-.51-.74-.92-1.02-.34-.22-.71-.38-1.09-.46-.39-.09-.91-.14-1.54-.14-.84,0-1.58,.11-2.22,.33-.64,.22-1.26,.51-1.86,.87l-.48-1.8c1.34-.78,2.94-1.17,4.8-1.17,.74,0,1.44,.07,2.1,.2s1.24,.36,1.74,.67c.58,.36,1.04,.87,1.38,1.53,.34,.66,.51,1.48,.51,2.46v9.39h-1.65Zm-5.31-1.41c.82,0,1.69-.26,2.61-.78,.92-.52,1.67-1.27,2.25-2.25v-2.79h-.27c-.82,0-1.64,.03-2.46,.09-.82,.06-1.57,.21-2.24,.45-.67,.24-1.21,.58-1.63,1.04s-.63,1.07-.63,1.85,.21,1.38,.65,1.78c.43,.41,1,.62,1.72,.62Z"/>
        <path class="cls-1" d="M443.68,313.7h-2.1v-22.2h2.1v22.2Z"/>
        <path class="cls-1" d="M453.7,314.06c-1.02,0-1.91-.2-2.67-.6-.76-.4-1.39-.93-1.89-1.59-.5-.66-.88-1.42-1.12-2.29-.25-.87-.38-1.79-.38-2.75s.13-1.92,.4-2.82c.27-.9,.67-1.68,1.2-2.35,.53-.67,1.2-1.21,2-1.61,.8-.4,1.73-.6,2.79-.6,1.34,0,2.44,.29,3.3,.87,.86,.58,1.42,1.3,1.68,2.16v-10.98h2.1v22.2h-1.65l-.24-2.46h-.12c-.48,.74-1.18,1.39-2.1,1.96s-2.02,.86-3.3,.86Zm.24-1.77c.96,0,1.9-.26,2.83-.78,.93-.52,1.67-1.27,2.23-2.25v-4.41c-.36-1.14-.96-2.03-1.81-2.67-.85-.64-1.81-.96-2.87-.96-.7,0-1.33,.14-1.88,.42s-1.02,.67-1.39,1.17c-.38,.5-.68,1.1-.89,1.8s-.31,1.47-.31,2.31c0,.64,.07,1.28,.21,1.92,.14,.64,.37,1.22,.69,1.73,.32,.51,.74,.92,1.26,1.25,.52,.32,1.16,.48,1.92,.48Z"/>
        <path class="cls-1" d="M472.06,311.9l7.29-10.23h-6.99v-1.77h9.42v1.74l-7.35,10.29h7.65v1.77h-10.02v-1.8Z"/>
        <path class="cls-1" d="M487.6,299.9v9.12c0,.62,.08,1.14,.22,1.56,.15,.42,.35,.75,.6,1,.25,.25,.55,.43,.9,.54,.35,.11,.74,.17,1.16,.17,.5,0,1-.08,1.49-.22,.49-.15,.94-.38,1.36-.67,.42-.3,.79-.67,1.11-1.11,.32-.44,.57-.95,.75-1.53v-8.85h2.1v13.8h-1.65l-.24-2.58h-.12c-.26,.84-.84,1.54-1.74,2.1-.9,.56-2.02,.84-3.36,.84-.64,0-1.25-.08-1.82-.24-.57-.16-1.06-.42-1.48-.79s-.76-.86-1-1.47c-.25-.61-.38-1.37-.38-2.27v-9.39h2.1Z"/>
        <path class="cls-1" d="M515.5,299.45c1.76,0,3.12,.45,4.08,1.33,.96,.89,1.44,2.15,1.44,3.76,0,.34-.02,.69-.06,1.04-.04,.35-.11,.61-.21,.77h-10.11v.3c0,.76,.1,1.49,.3,2.19,.2,.7,.5,1.32,.9,1.86,.4,.54,.9,.97,1.51,1.29,.61,.32,1.33,.48,2.17,.48,.48,0,.95-.05,1.41-.16,.46-.11,.9-.25,1.32-.42,.42-.17,.81-.35,1.17-.55,.36-.2,.68-.4,.96-.6l.36,1.71c-.26,.16-.58,.33-.96,.52-.38,.19-.8,.37-1.26,.53s-.96,.29-1.51,.41c-.55,.11-1.12,.17-1.73,.17-1.12,0-2.11-.2-2.97-.58-.86-.39-1.58-.92-2.16-1.59-.58-.67-1.02-1.44-1.32-2.32-.3-.88-.45-1.8-.45-2.76s.15-1.91,.46-2.8c.31-.89,.76-1.67,1.37-2.35,.6-.68,1.34-1.22,2.23-1.61s1.91-.58,3.04-.58Zm-.09,1.68c-1.32,0-2.34,.35-3.07,1.04-.73,.69-1.23,1.56-1.49,2.59h8.19c.02-.1,.03-.19,.03-.27v-.27c0-.5-.1-.94-.3-1.33-.2-.39-.47-.71-.81-.97-.34-.26-.73-.46-1.17-.58-.44-.13-.9-.2-1.38-.2Z"/>
        <path class="cls-1" d="M524.38,294.86c0-.4,.15-.76,.44-1.08,.29-.32,.64-.48,1.06-.48s.76,.16,1.08,.48c.32,.32,.48,.68,.48,1.08s-.16,.78-.48,1.06c-.32,.29-.68,.44-1.08,.44s-.78-.14-1.06-.44c-.29-.29-.44-.64-.44-1.06Zm2.55,18.84h-2.1v-13.8h2.1v13.8Z"/>
        <path class="cls-1" d="M541.3,313.7v-9.12c0-1.2-.27-2.06-.81-2.58-.54-.52-1.23-.78-2.07-.78-.5,0-1,.08-1.49,.24-.49,.16-.95,.4-1.37,.71-.42,.31-.79,.69-1.11,1.14-.32,.45-.57,.96-.75,1.54v8.85h-2.1v-13.8h1.65l.24,2.58h.12c.26-.84,.84-1.55,1.74-2.15,.9-.59,2.02-.88,3.36-.88,.64,0,1.25,.08,1.81,.25,.57,.17,1.07,.45,1.49,.83s.75,.88,1,1.5,.38,1.38,.38,2.28v9.39h-2.1Z"/>
        <path class="cls-1" d="M554.13,299.45c1.76,0,3.12,.45,4.08,1.33,.96,.89,1.44,2.15,1.44,3.76,0,.34-.02,.69-.06,1.04-.04,.35-.11,.61-.21,.77h-10.11v.3c0,.76,.1,1.49,.3,2.19,.2,.7,.5,1.32,.9,1.86,.4,.54,.9,.97,1.51,1.29,.61,.32,1.33,.48,2.17,.48,.48,0,.95-.05,1.41-.16,.46-.11,.9-.25,1.32-.42,.42-.17,.81-.35,1.17-.55,.36-.2,.68-.4,.96-.6l.36,1.71c-.26,.16-.58,.33-.96,.52-.38,.19-.8,.37-1.26,.53s-.96,.29-1.51,.41c-.55,.11-1.12,.17-1.73,.17-1.12,0-2.11-.2-2.97-.58-.86-.39-1.58-.92-2.16-1.59-.58-.67-1.02-1.44-1.32-2.32-.3-.88-.45-1.8-.45-2.76s.15-1.91,.46-2.8c.31-.89,.76-1.67,1.37-2.35,.6-.68,1.34-1.22,2.23-1.61s1.91-.58,3.04-.58Zm-.09,1.68c-1.32,0-2.34,.35-3.07,1.04-.73,.69-1.23,1.56-1.49,2.59h8.19c.02-.1,.03-.19,.03-.27v-.27c0-.5-.1-.94-.3-1.33-.2-.39-.47-.71-.81-.97-.34-.26-.73-.46-1.17-.58-.44-.13-.9-.2-1.38-.2Z"/>
        <path class="cls-1" d="M573.04,313.7v-9.12c0-1.22-.28-2.08-.84-2.59-.56-.51-1.26-.77-2.1-.77-1.02,0-1.94,.32-2.76,.95s-1.41,1.53-1.77,2.69v8.85h-2.1v-13.8h1.65l.24,2.58h.12c.26-.84,.81-1.55,1.64-2.15,.83-.59,1.9-.88,3.22-.88,1.2,0,2.21,.27,3.01,.79,.81,.53,1.33,1.28,1.54,2.24,.2-.4,.45-.78,.75-1.14,.3-.36,.66-.68,1.08-.96,.42-.28,.9-.5,1.44-.67s1.15-.25,1.83-.25c.62,0,1.21,.08,1.79,.25,.57,.17,1.07,.45,1.5,.83,.43,.38,.77,.88,1.04,1.5,.26,.62,.39,1.38,.39,2.28v9.39h-2.1v-9.12c0-1.22-.28-2.08-.84-2.59s-1.26-.77-2.1-.77c-1.02,0-1.94,.32-2.76,.95-.82,.63-1.41,1.53-1.77,2.69v8.85h-2.1Z"/>
        <path class="cls-1" d="M194.65,344h-6.33v17.7h-2.25v-17.7h-6.33v-2.1h14.91v2.1Z"/>
        <path class="cls-1" d="M202.15,350.12c-.32-.18-.64-.33-.96-.43-.32-.11-.63-.17-.93-.17-.4,0-.78,.11-1.14,.33-.36,.22-.69,.52-.99,.9s-.57,.82-.79,1.32c-.23,.5-.41,1.02-.52,1.56v8.07h-2.1v-13.8h1.65l.24,3.03h.12c.14-.46,.33-.9,.56-1.32,.23-.42,.51-.79,.84-1.11,.33-.32,.71-.57,1.12-.76s.9-.29,1.44-.29c.38,0,.78,.07,1.2,.2s.72,.29,.9,.5l-.63,1.98Z"/>
        <path class="cls-1" d="M211.3,347.45c1.76,0,3.12,.45,4.08,1.33,.96,.89,1.44,2.15,1.44,3.76,0,.34-.02,.69-.06,1.04-.04,.35-.11,.61-.21,.77h-10.11v.3c0,.76,.1,1.49,.3,2.19,.2,.7,.5,1.32,.9,1.86,.4,.54,.9,.97,1.51,1.29,.61,.32,1.33,.48,2.17,.48,.48,0,.95-.05,1.41-.16,.46-.11,.9-.25,1.32-.42,.42-.17,.81-.35,1.17-.55,.36-.2,.68-.4,.96-.6l.36,1.71c-.26,.16-.58,.33-.96,.52-.38,.19-.8,.37-1.26,.53s-.96,.29-1.51,.41c-.55,.11-1.12,.17-1.73,.17-1.12,0-2.11-.2-2.97-.58-.86-.39-1.58-.92-2.16-1.59-.58-.67-1.02-1.44-1.32-2.32-.3-.88-.45-1.8-.45-2.76s.15-1.91,.46-2.8c.31-.89,.76-1.67,1.37-2.35,.6-.68,1.34-1.22,2.23-1.61s1.91-.58,3.04-.58Zm-.09,1.68c-1.32,0-2.34,.35-3.07,1.04-.73,.69-1.23,1.56-1.49,2.59h8.19c.02-.1,.03-.19,.03-.27v-.27c0-.5-.1-.94-.3-1.33-.2-.39-.47-.71-.81-.97-.34-.26-.73-.46-1.17-.58-.44-.13-.9-.2-1.38-.2Z"/>
        <path class="cls-1" d="M230.32,361.7v-9.12c0-1.2-.27-2.06-.81-2.58-.54-.52-1.23-.78-2.07-.78-.5,0-1,.08-1.49,.24-.49,.16-.95,.4-1.37,.71-.42,.31-.79,.69-1.11,1.14-.32,.45-.57,.96-.75,1.54v8.85h-2.1v-13.8h1.65l.24,2.58h.12c.26-.84,.84-1.55,1.74-2.15,.9-.59,2.02-.88,3.36-.88,.64,0,1.25,.08,1.81,.25,.57,.17,1.07,.45,1.49,.83s.75,.88,1,1.5,.38,1.38,.38,2.28v9.39h-2.1Z"/>
        <path class="cls-1" d="M242.14,362.06c-1.02,0-1.91-.2-2.67-.6-.76-.4-1.39-.93-1.89-1.59-.5-.66-.88-1.42-1.12-2.29-.25-.87-.38-1.79-.38-2.75s.13-1.92,.4-2.82c.27-.9,.67-1.68,1.2-2.35,.53-.67,1.2-1.21,2-1.61,.8-.4,1.73-.6,2.79-.6,1.34,0,2.44,.29,3.3,.87,.86,.58,1.42,1.3,1.68,2.16v-10.98h2.1v22.2h-1.65l-.24-2.46h-.12c-.48,.74-1.18,1.39-2.1,1.96s-2.02,.86-3.3,.86Zm.24-1.77c.96,0,1.9-.26,2.83-.78,.93-.52,1.67-1.27,2.23-2.25v-4.41c-.36-1.14-.96-2.03-1.81-2.67-.85-.64-1.81-.96-2.87-.96-.7,0-1.33,.14-1.88,.42s-1.02,.67-1.39,1.17c-.38,.5-.68,1.1-.89,1.8s-.31,1.47-.31,2.31c0,.64,.07,1.28,.21,1.92,.14,.64,.37,1.22,.69,1.73,.32,.51,.74,.92,1.26,1.25,.52,.32,1.16,.48,1.92,.48Z"/>
        <path class="cls-1" d="M270.85,361.7h-2.85l-3.75-10.8-3.96,10.8h-2.85l-5.07-13.8h2.22l4.32,11.76,4.32-11.76h2.22l4.05,11.76,4.59-11.76h2.13l-5.37,13.8Z"/>
        <path class="cls-1" d="M284.95,347.45c1.76,0,3.12,.45,4.08,1.33,.96,.89,1.44,2.15,1.44,3.76,0,.34-.02,.69-.06,1.04-.04,.35-.11,.61-.21,.77h-10.11v.3c0,.76,.1,1.49,.3,2.19,.2,.7,.5,1.32,.9,1.86,.4,.54,.9,.97,1.51,1.29,.61,.32,1.33,.48,2.17,.48,.48,0,.95-.05,1.41-.16,.46-.11,.9-.25,1.32-.42,.42-.17,.81-.35,1.17-.55,.36-.2,.68-.4,.96-.6l.36,1.71c-.26,.16-.58,.33-.96,.52-.38,.19-.8,.37-1.26,.53s-.96,.29-1.51,.41c-.55,.11-1.12,.17-1.73,.17-1.12,0-2.11-.2-2.97-.58-.86-.39-1.58-.92-2.16-1.59-.58-.67-1.02-1.44-1.32-2.32-.3-.88-.45-1.8-.45-2.76s.15-1.91,.46-2.8c.31-.89,.76-1.67,1.37-2.35,.6-.68,1.34-1.22,2.23-1.61s1.91-.58,3.04-.58Zm-.09,1.68c-1.32,0-2.34,.35-3.07,1.04-.73,.69-1.23,1.56-1.49,2.59h8.19c.02-.1,.03-.19,.03-.27v-.27c0-.5-.1-.94-.3-1.33-.2-.39-.47-.71-.81-.97-.34-.26-.73-.46-1.17-.58-.44-.13-.9-.2-1.38-.2Z"/>
        <path class="cls-1" d="M305.05,350.42c-.46-.34-1.12-.64-1.98-.92-.86-.27-1.72-.4-2.58-.4s-1.62,.15-2.23,.45c-.61,.3-1.12,.7-1.52,1.2-.4,.5-.69,1.08-.87,1.73-.18,.65-.27,1.33-.27,2.02,0,.78,.11,1.53,.33,2.25,.22,.72,.54,1.35,.97,1.89s.96,.97,1.59,1.29c.63,.32,1.37,.48,2.21,.48s1.62-.17,2.48-.51c.85-.34,1.55-.77,2.11-1.29l.42,1.95c-.56,.36-1.32,.7-2.29,1.02-.97,.32-2,.48-3.1,.48-1.16,0-2.17-.2-3.04-.6-.87-.4-1.59-.93-2.16-1.6s-1-1.45-1.29-2.34-.43-1.83-.43-2.83,.13-1.88,.4-2.75c.27-.87,.7-1.64,1.28-2.31,.58-.67,1.32-1.2,2.22-1.59,.9-.39,1.98-.58,3.24-.58,.96,0,1.9,.11,2.82,.33,.92,.22,1.66,.51,2.22,.87l-.51,1.77Z"/>
        <path class="cls-1" d="M318.97,361.7v-9.12c0-1.22-.27-2.08-.81-2.59s-1.23-.77-2.07-.77c-.5,0-1,.08-1.49,.24-.49,.16-.95,.4-1.37,.71-.42,.31-.79,.69-1.11,1.14-.32,.45-.57,.96-.75,1.54v8.85h-2.1v-22.2h2.1v10.98c.26-.84,.82-1.55,1.69-2.15,.87-.59,1.97-.88,3.32-.88,.64,0,1.25,.08,1.81,.25,.57,.17,1.07,.45,1.49,.83s.75,.88,1,1.5,.38,1.38,.38,2.28v9.39h-2.1Z"/>
        <path class="cls-1" d="M329.68,349.13c-.96,0-1.66,.18-2.08,.53s-.64,.83-.64,1.42c0,.2,.03,.41,.09,.63,.06,.22,.17,.43,.34,.62,.17,.19,.4,.37,.69,.54,.29,.17,.67,.3,1.16,.41l2.13,.48c.84,.18,1.51,.43,2.02,.74,.51,.31,.91,.64,1.19,1,.28,.36,.46,.73,.55,1.09,.09,.37,.13,.72,.13,1.04,0,.62-.12,1.2-.38,1.74s-.61,1.01-1.08,1.41-1.04,.71-1.72,.94c-.68,.23-1.44,.35-2.28,.35-1.06,0-2.04-.16-2.94-.47-.9-.31-1.62-.65-2.16-1.03l.54-1.95c.72,.66,1.52,1.14,2.4,1.44,.88,.3,1.67,.45,2.37,.45,1,0,1.76-.24,2.28-.73,.52-.49,.78-1.01,.78-1.55,0-.18-.01-.38-.03-.61-.02-.23-.1-.46-.24-.71s-.35-.46-.63-.67-.68-.38-1.2-.5l-2.88-.72c-.66-.16-1.2-.37-1.62-.63-.42-.26-.75-.54-.99-.85-.24-.31-.41-.64-.51-.99-.1-.35-.15-.71-.15-1.07,0-1.22,.45-2.19,1.36-2.92,.91-.73,2.12-1.09,3.65-1.09,.78,0,1.62,.11,2.52,.32,.9,.21,1.66,.51,2.28,.92l-.57,1.8c-.4-.34-1-.65-1.78-.93-.79-.28-1.66-.42-2.6-.42Z"/>
        <path class="cls-1" d="M345.04,347.45c1.76,0,3.12,.45,4.08,1.33,.96,.89,1.44,2.15,1.44,3.76,0,.34-.02,.69-.06,1.04-.04,.35-.11,.61-.21,.77h-10.11v.3c0,.76,.1,1.49,.3,2.19,.2,.7,.5,1.32,.9,1.86,.4,.54,.9,.97,1.51,1.29,.61,.32,1.33,.48,2.17,.48,.48,0,.95-.05,1.41-.16,.46-.11,.9-.25,1.32-.42,.42-.17,.81-.35,1.17-.55,.36-.2,.68-.4,.96-.6l.36,1.71c-.26,.16-.58,.33-.96,.52-.38,.19-.8,.37-1.26,.53s-.96,.29-1.51,.41c-.55,.11-1.12,.17-1.73,.17-1.12,0-2.11-.2-2.97-.58-.86-.39-1.58-.92-2.16-1.59-.58-.67-1.02-1.44-1.32-2.32-.3-.88-.45-1.8-.45-2.76s.15-1.91,.46-2.8c.31-.89,.76-1.67,1.37-2.35,.6-.68,1.34-1.22,2.23-1.61s1.91-.58,3.04-.58Zm-.09,1.68c-1.32,0-2.34,.35-3.07,1.04-.73,.69-1.23,1.56-1.49,2.59h8.19c.02-.1,.03-.19,.03-.27v-.27c0-.5-.1-.94-.3-1.33-.2-.39-.47-.71-.81-.97-.34-.26-.73-.46-1.17-.58-.44-.13-.9-.2-1.38-.2Z"/>
        <path class="cls-1" d="M356.65,361.7h-2.1v-22.2h2.1v22.2Z"/>
        <path class="cls-1" d="M374.5,352.76l5.88,8.94h-2.4l-4.95-7.5-2.07,2.07v5.43h-2.1v-22.2h2.1v14.22l6.06-5.82h2.4l-4.92,4.86Z"/>
        <path class="cls-1" d="M388.63,347.45c1.22,0,2.27,.21,3.15,.62s1.61,.96,2.17,1.65c.57,.69,.99,1.48,1.26,2.37,.27,.89,.4,1.83,.4,2.81s-.13,1.9-.4,2.77c-.27,.87-.69,1.63-1.25,2.28-.56,.65-1.28,1.17-2.15,1.54s-1.89,.57-3.08,.57-2.27-.2-3.16-.6c-.89-.4-1.63-.93-2.21-1.6-.58-.67-1.01-1.45-1.29-2.33-.28-.88-.42-1.81-.42-2.79s.14-1.91,.42-2.79c.28-.88,.71-1.65,1.27-2.33,.57-.67,1.29-1.2,2.17-1.59s1.91-.58,3.09-.58Zm.09,13.02c.8,0,1.49-.15,2.08-.45,.59-.3,1.08-.71,1.47-1.21,.39-.51,.67-1.1,.86-1.77,.18-.67,.27-1.38,.27-2.12s-.09-1.49-.29-2.19-.49-1.32-.88-1.85c-.4-.53-.91-.95-1.51-1.27-.61-.32-1.33-.48-2.18-.48s-1.52,.15-2.1,.45-1.06,.7-1.44,1.2-.66,1.08-.84,1.75c-.18,.67-.27,1.38-.27,2.12s.09,1.49,.29,2.19c.19,.7,.48,1.32,.87,1.86,.39,.54,.89,.97,1.5,1.29,.61,.32,1.33,.48,2.17,.48Z"/>
        <path class="cls-1" d="M408.97,361.7v-9.12c0-1.22-.28-2.08-.84-2.59-.56-.51-1.26-.77-2.1-.77-1.02,0-1.94,.32-2.76,.95s-1.41,1.53-1.77,2.69v8.85h-2.1v-13.8h1.65l.24,2.58h.12c.26-.84,.81-1.55,1.64-2.15,.83-.59,1.9-.88,3.22-.88,1.2,0,2.21,.27,3.01,.79,.81,.53,1.33,1.28,1.54,2.24,.2-.4,.45-.78,.75-1.14,.3-.36,.66-.68,1.08-.96,.42-.28,.9-.5,1.44-.67s1.15-.25,1.83-.25c.62,0,1.21,.08,1.79,.25,.57,.17,1.07,.45,1.5,.83,.43,.38,.77,.88,1.04,1.5,.26,.62,.39,1.38,.39,2.28v9.39h-2.1v-9.12c0-1.22-.28-2.08-.84-2.59s-1.26-.77-2.1-.77c-1.02,0-1.94,.32-2.76,.95-.82,.63-1.41,1.53-1.77,2.69v8.85h-2.1Z"/>
        <path class="cls-1" d="M434.74,361.7v-9.12c0-1.22-.28-2.08-.84-2.59-.56-.51-1.26-.77-2.1-.77-1.02,0-1.94,.32-2.76,.95s-1.41,1.53-1.77,2.69v8.85h-2.1v-13.8h1.65l.24,2.58h.12c.26-.84,.81-1.55,1.64-2.15,.83-.59,1.9-.88,3.22-.88,1.2,0,2.21,.27,3.01,.79,.81,.53,1.33,1.28,1.54,2.24,.2-.4,.45-.78,.75-1.14,.3-.36,.66-.68,1.08-.96,.42-.28,.9-.5,1.44-.67s1.15-.25,1.83-.25c.62,0,1.21,.08,1.79,.25,.57,.17,1.07,.45,1.5,.83,.43,.38,.77,.88,1.04,1.5,.26,.62,.39,1.38,.39,2.28v9.39h-2.1v-9.12c0-1.22-.28-2.08-.84-2.59s-1.26-.77-2.1-.77c-1.02,0-1.94,.32-2.76,.95-.82,.63-1.41,1.53-1.77,2.69v8.85h-2.1Z"/>
        <path class="cls-1" d="M457.12,347.45c1.76,0,3.12,.45,4.08,1.33,.96,.89,1.44,2.15,1.44,3.76,0,.34-.02,.69-.06,1.04-.04,.35-.11,.61-.21,.77h-10.11v.3c0,.76,.1,1.49,.3,2.19,.2,.7,.5,1.32,.9,1.86,.4,.54,.9,.97,1.51,1.29,.61,.32,1.33,.48,2.17,.48,.48,0,.95-.05,1.41-.16,.46-.11,.9-.25,1.32-.42,.42-.17,.81-.35,1.17-.55,.36-.2,.68-.4,.96-.6l.36,1.71c-.26,.16-.58,.33-.96,.52-.38,.19-.8,.37-1.26,.53s-.96,.29-1.51,.41c-.55,.11-1.12,.17-1.73,.17-1.12,0-2.11-.2-2.97-.58-.86-.39-1.58-.92-2.16-1.59-.58-.67-1.02-1.44-1.32-2.32-.3-.88-.45-1.8-.45-2.76s.15-1.91,.46-2.8c.31-.89,.76-1.67,1.37-2.35,.6-.68,1.34-1.22,2.23-1.61s1.91-.58,3.04-.58Zm-.09,1.68c-1.32,0-2.34,.35-3.07,1.04-.73,.69-1.23,1.56-1.49,2.59h8.19c.02-.1,.03-.19,.03-.27v-.27c0-.5-.1-.94-.3-1.33-.2-.39-.47-.71-.81-.97-.34-.26-.73-.46-1.17-.58-.44-.13-.9-.2-1.38-.2Z"/>
        <path class="cls-1" d="M476.14,361.7v-9.12c0-1.2-.27-2.06-.81-2.58-.54-.52-1.23-.78-2.07-.78-.5,0-1,.08-1.49,.24-.49,.16-.95,.4-1.37,.71-.42,.31-.79,.69-1.11,1.14-.32,.45-.57,.96-.75,1.54v8.85h-2.1v-13.8h1.65l.24,2.58h.12c.26-.84,.84-1.55,1.74-2.15,.9-.59,2.02-.88,3.36-.88,.64,0,1.25,.08,1.81,.25,.57,.17,1.07,.45,1.49,.83s.75,.88,1,1.5,.38,1.38,.38,2.28v9.39h-2.1Z"/>
        <path class="cls-1" d="M482.59,360.65c0-.38,.13-.71,.39-1s.59-.44,.99-.44,.71,.15,1,.44,.44,.62,.44,1-.15,.71-.44,.97c-.29,.27-.62,.41-1,.41-.4,0-.73-.13-.99-.41-.26-.27-.39-.59-.39-.97Z"/>
      </g>
      <g>
        <path class="cls-1" d="M185.74,438.14h-2.25v-15.78l-2.88,1.38-.66-2.1,5.79-3.3v19.8Z"/>
        <path class="cls-1" d="M198.46,418.19c1.28,0,2.42,.27,3.41,.81,.99,.54,1.82,1.27,2.5,2.21,.68,.93,1.19,2,1.54,3.22,.35,1.22,.53,2.5,.53,3.84s-.18,2.59-.54,3.83c-.36,1.23-.89,2.32-1.58,3.27-.69,.95-1.54,1.71-2.57,2.28-1.02,.57-2.19,.86-3.51,.86s-2.44-.27-3.41-.81-1.78-1.27-2.42-2.19-1.12-1.99-1.46-3.2-.5-2.49-.5-3.83c0-1.42,.18-2.75,.54-4,.36-1.25,.88-2.34,1.56-3.27,.68-.93,1.51-1.67,2.5-2.21s2.12-.81,3.38-.81Zm-.15,18.33c.98,0,1.83-.21,2.55-.63,.72-.42,1.31-1,1.77-1.74,.46-.74,.8-1.6,1.02-2.59,.22-.99,.33-2.05,.33-3.2,0-1.22-.12-2.33-.34-3.33-.23-1-.58-1.86-1.05-2.58-.47-.72-1.05-1.28-1.75-1.68-.7-.4-1.52-.6-2.46-.6s-1.79,.19-2.48,.58c-.69,.39-1.25,.94-1.68,1.65-.43,.71-.75,1.56-.95,2.54-.2,.98-.3,2.06-.3,3.24,0,2.76,.46,4.84,1.4,6.24,.93,1.4,2.24,2.1,3.94,2.1Z"/>
        <path class="cls-1" d="M217.93,418.19c1.28,0,2.42,.27,3.41,.81,.99,.54,1.82,1.27,2.5,2.21,.68,.93,1.19,2,1.54,3.22,.35,1.22,.53,2.5,.53,3.84s-.18,2.59-.54,3.83c-.36,1.23-.89,2.32-1.58,3.27-.69,.95-1.54,1.71-2.57,2.28-1.02,.57-2.19,.86-3.51,.86s-2.44-.27-3.41-.81-1.78-1.27-2.42-2.19-1.12-1.99-1.46-3.2-.5-2.49-.5-3.83c0-1.42,.18-2.75,.54-4,.36-1.25,.88-2.34,1.56-3.27,.68-.93,1.51-1.67,2.5-2.21s2.12-.81,3.38-.81Zm-.15,18.33c.98,0,1.83-.21,2.55-.63,.72-.42,1.31-1,1.77-1.74,.46-.74,.8-1.6,1.02-2.59,.22-.99,.33-2.05,.33-3.2,0-1.22-.12-2.33-.34-3.33-.23-1-.58-1.86-1.05-2.58-.47-.72-1.05-1.28-1.75-1.68-.7-.4-1.52-.6-2.46-.6s-1.79,.19-2.48,.58c-.69,.39-1.25,.94-1.68,1.65-.43,.71-.75,1.56-.95,2.54-.2,.98-.3,2.06-.3,3.24,0,2.76,.46,4.84,1.4,6.24,.93,1.4,2.24,2.1,3.94,2.1Z"/>
        <path class="cls-1" d="M240.58,418.19c.7,0,1.32,.15,1.88,.45,.55,.3,1.01,.7,1.38,1.2s.66,1.08,.86,1.75c.2,.67,.3,1.38,.3,2.12s-.1,1.42-.3,2.1c-.2,.68-.49,1.28-.87,1.8-.38,.52-.86,.94-1.43,1.25-.57,.31-1.21,.46-1.93,.46s-1.32-.14-1.86-.43-.99-.68-1.35-1.19c-.36-.5-.63-1.08-.81-1.75-.18-.67-.27-1.38-.27-2.11,0-.78,.1-1.52,.3-2.21,.2-.69,.49-1.29,.87-1.8,.38-.51,.84-.91,1.38-1.2s1.16-.44,1.86-.44Zm-.09,9.78c.5,0,.93-.11,1.29-.33,.36-.22,.65-.52,.88-.9,.23-.38,.4-.82,.51-1.33,.11-.51,.17-1.05,.17-1.63,0-1.26-.23-2.28-.69-3.06-.46-.78-1.17-1.17-2.13-1.17s-1.67,.38-2.07,1.15c-.4,.77-.6,1.75-.6,2.96,0,1.44,.23,2.52,.69,3.24s1.11,1.08,1.95,1.08Zm.78,10.89h-1.95l13.89-21.45h1.95l-13.89,21.45Zm12.75-11.64c.7,0,1.33,.15,1.88,.45,.55,.3,1.01,.7,1.38,1.2,.37,.5,.65,1.08,.85,1.75s.3,1.38,.3,2.11-.1,1.42-.3,2.1-.49,1.28-.87,1.8c-.38,.52-.85,.94-1.42,1.25s-1.21,.46-1.93,.46-1.32-.15-1.86-.43c-.54-.29-.99-.69-1.35-1.19-.36-.5-.63-1.08-.81-1.75s-.27-1.38-.27-2.12c0-.78,.1-1.51,.3-2.21,.2-.69,.49-1.29,.87-1.8,.38-.51,.84-.91,1.38-1.2,.54-.29,1.16-.43,1.86-.43Zm-.09,9.78c.5,0,.93-.11,1.29-.33,.36-.22,.66-.52,.89-.9,.23-.38,.4-.83,.51-1.33,.11-.51,.17-1.05,.17-1.63,0-1.26-.23-2.28-.69-3.06-.46-.78-1.17-1.17-2.13-1.17s-1.67,.39-2.07,1.16c-.4,.77-.6,1.75-.6,2.96,0,1.44,.23,2.52,.69,3.24,.46,.72,1.11,1.08,1.95,1.08Z"/>
        <path class="cls-1" d="M268.78,419.3c0-.4,.15-.76,.44-1.08,.29-.32,.64-.48,1.06-.48s.76,.16,1.08,.48c.32,.32,.48,.68,.48,1.08s-.16,.78-.48,1.06c-.32,.29-.68,.44-1.08,.44s-.78-.14-1.06-.44c-.29-.29-.44-.64-.44-1.06Zm2.55,18.84h-2.1v-13.8h2.1v13.8Z"/>
        <path class="cls-1" d="M285.7,438.14v-9.12c0-1.2-.27-2.06-.81-2.58-.54-.52-1.23-.78-2.07-.78-.5,0-1,.08-1.49,.24-.49,.16-.95,.4-1.37,.71-.42,.31-.79,.69-1.11,1.14-.32,.45-.57,.96-.75,1.54v8.85h-2.1v-13.8h1.65l.24,2.58h.12c.26-.84,.84-1.55,1.74-2.15,.9-.59,2.02-.88,3.36-.88,.64,0,1.25,.08,1.81,.25,.57,.17,1.07,.45,1.49,.83s.75,.88,1,1.5,.38,1.38,.38,2.28v9.39h-2.1Z"/>
        <path class="cls-1" d="M299.17,438.14h-2.67l-6.27-13.8h2.28l5.37,11.82,5.37-11.82h2.19l-6.27,13.8Z"/>
        <path class="cls-1" d="M314.02,423.89c1.76,0,3.12,.45,4.08,1.33,.96,.89,1.44,2.15,1.44,3.76,0,.34-.02,.69-.06,1.04-.04,.35-.11,.61-.21,.77h-10.11v.3c0,.76,.1,1.49,.3,2.19,.2,.7,.5,1.32,.9,1.86,.4,.54,.9,.97,1.51,1.29,.61,.32,1.33,.48,2.17,.48,.48,0,.95-.05,1.41-.16,.46-.11,.9-.25,1.32-.42,.42-.17,.81-.35,1.17-.55,.36-.2,.68-.4,.96-.6l.36,1.71c-.26,.16-.58,.33-.96,.52-.38,.19-.8,.37-1.26,.53s-.96,.29-1.51,.41c-.55,.11-1.12,.17-1.73,.17-1.12,0-2.11-.2-2.97-.58-.86-.39-1.58-.92-2.16-1.59-.58-.67-1.02-1.44-1.32-2.32-.3-.88-.45-1.8-.45-2.76s.15-1.91,.46-2.8c.31-.89,.76-1.67,1.37-2.35,.6-.68,1.34-1.22,2.23-1.61s1.91-.58,3.04-.58Zm-.09,1.68c-1.32,0-2.34,.35-3.07,1.04-.73,.69-1.23,1.56-1.49,2.59h8.19c.02-.1,.03-.19,.03-.27v-.27c0-.5-.1-.94-.3-1.33-.2-.39-.47-.71-.81-.97-.34-.26-.73-.46-1.17-.58-.44-.13-.9-.2-1.38-.2Z"/>
        <path class="cls-1" d="M327.4,425.57c-.96,0-1.66,.18-2.08,.53s-.64,.83-.64,1.42c0,.2,.03,.41,.09,.63,.06,.22,.17,.43,.34,.62,.17,.19,.4,.37,.69,.54,.29,.17,.67,.3,1.16,.41l2.13,.48c.84,.18,1.51,.43,2.02,.74,.51,.31,.91,.64,1.19,1,.28,.36,.46,.73,.55,1.09,.09,.37,.13,.72,.13,1.04,0,.62-.12,1.2-.38,1.74s-.61,1.01-1.08,1.41-1.04,.71-1.72,.94c-.68,.23-1.44,.35-2.28,.35-1.06,0-2.04-.16-2.94-.47-.9-.31-1.62-.65-2.16-1.03l.54-1.95c.72,.66,1.52,1.14,2.4,1.44,.88,.3,1.67,.45,2.37,.45,1,0,1.76-.24,2.28-.73,.52-.49,.78-1.01,.78-1.55,0-.18-.01-.38-.03-.61-.02-.23-.1-.46-.24-.71s-.35-.46-.63-.67-.68-.38-1.2-.5l-2.88-.72c-.66-.16-1.2-.37-1.62-.63-.42-.26-.75-.54-.99-.85-.24-.31-.41-.64-.51-.99-.1-.35-.15-.71-.15-1.07,0-1.22,.45-2.19,1.36-2.92,.91-.73,2.12-1.09,3.65-1.09,.78,0,1.62,.11,2.52,.32,.9,.21,1.66,.51,2.28,.92l-.57,1.8c-.4-.34-1-.65-1.78-.93-.79-.28-1.66-.42-2.6-.42Z"/>
        <path class="cls-1" d="M337.21,425.75h-2.31v-1.11l2.37-.3,.45-4.17h1.59v4.17h3.24v1.41h-3.24v9.57c0,.64,.09,1.06,.29,1.26,.19,.2,.48,.3,.88,.3,.46,0,.87-.07,1.23-.21,.36-.14,.68-.31,.96-.51l.42,1.59c-.34,.16-.79,.32-1.33,.48s-1.15,.24-1.81,.24-1.14-.09-1.5-.27c-.36-.18-.63-.42-.81-.72-.18-.3-.29-.63-.34-1s-.08-.74-.08-1.09v-9.63Z"/>
        <path class="cls-1" d="M345.52,419.3c0-.4,.15-.76,.44-1.08,.29-.32,.64-.48,1.06-.48s.76,.16,1.08,.48c.32,.32,.48,.68,.48,1.08s-.16,.78-.48,1.06c-.32,.29-.68,.44-1.08,.44s-.78-.14-1.06-.44c-.29-.29-.44-.64-.44-1.06Zm2.55,18.84h-2.1v-13.8h2.1v13.8Z"/>
        <path class="cls-1" d="M358.93,423.89c1.76,0,3.12,.45,4.08,1.33,.96,.89,1.44,2.15,1.44,3.76,0,.34-.02,.69-.06,1.04-.04,.35-.11,.61-.21,.77h-10.11v.3c0,.76,.1,1.49,.3,2.19,.2,.7,.5,1.32,.9,1.86,.4,.54,.9,.97,1.51,1.29,.61,.32,1.33,.48,2.17,.48,.48,0,.95-.05,1.41-.16,.46-.11,.9-.25,1.32-.42,.42-.17,.81-.35,1.17-.55,.36-.2,.68-.4,.96-.6l.36,1.71c-.26,.16-.58,.33-.96,.52-.38,.19-.8,.37-1.26,.53s-.96,.29-1.51,.41c-.55,.11-1.12,.17-1.73,.17-1.12,0-2.11-.2-2.97-.58-.86-.39-1.58-.92-2.16-1.59-.58-.67-1.02-1.44-1.32-2.32-.3-.88-.45-1.8-.45-2.76s.15-1.91,.46-2.8c.31-.89,.76-1.67,1.37-2.35,.6-.68,1.34-1.22,2.23-1.61s1.91-.58,3.04-.58Zm-.09,1.68c-1.32,0-2.34,.35-3.07,1.04-.73,.69-1.23,1.56-1.49,2.59h8.19c.02-.1,.03-.19,.03-.27v-.27c0-.5-.1-.94-.3-1.33-.2-.39-.47-.71-.81-.97-.34-.26-.73-.46-1.17-.58-.44-.13-.9-.2-1.38-.2Z"/>
        <path class="cls-1" d="M375.7,426.56c-.32-.18-.64-.33-.96-.43-.32-.11-.63-.17-.93-.17-.4,0-.78,.11-1.14,.33-.36,.22-.69,.52-.99,.9s-.57,.82-.79,1.32c-.23,.5-.41,1.02-.52,1.56v8.07h-2.1v-13.8h1.65l.24,3.03h.12c.14-.46,.33-.9,.56-1.32,.23-.42,.51-.79,.84-1.11,.33-.32,.71-.57,1.12-.76s.9-.29,1.44-.29c.38,0,.78,.07,1.2,.2s.72,.29,.9,.5l-.63,1.98Z"/>
        <path class="cls-1" d="M379.6,425.75h-2.31v-1.11l2.37-.3,.45-4.17h1.59v4.17h3.24v1.41h-3.24v9.57c0,.64,.09,1.06,.29,1.26,.19,.2,.48,.3,.88,.3,.46,0,.87-.07,1.23-.21,.36-.14,.68-.31,.96-.51l.42,1.59c-.34,.16-.79,.32-1.33,.48s-1.15,.24-1.81,.24-1.14-.09-1.5-.27c-.36-.18-.63-.42-.81-.72-.18-.3-.29-.63-.34-1s-.08-.74-.08-1.09v-9.63Z"/>
        <path class="cls-1" d="M388.24,425.9c0-.38,.13-.71,.39-.99,.26-.28,.59-.42,.99-.42s.71,.14,1.01,.42c.29,.28,.43,.61,.43,.99,0,.4-.15,.74-.43,1-.29,.27-.63,.41-1.01,.41-.4,0-.73-.13-.99-.41-.26-.27-.39-.6-.39-1Zm0,11.19c0-.38,.13-.71,.39-1,.26-.29,.59-.44,.99-.44s.71,.15,1.01,.44c.29,.29,.43,.62,.43,1s-.15,.71-.43,.97c-.29,.27-.63,.41-1.01,.41-.4,0-.73-.13-.99-.41-.26-.27-.39-.59-.39-.97Z"/>
        <path class="cls-1" d="M403.6,418.28h6.54c1.42,0,2.71,.2,3.88,.59,1.17,.4,2.17,.94,2.99,1.64,1.06,.95,1.83,2.11,2.31,3.48,.48,1.37,.72,2.85,.72,4.46,0,1.35-.19,2.62-.57,3.82s-.96,2.25-1.75,3.17-1.79,1.64-2.99,2.17c-1.2,.53-2.62,.8-4.26,.8h-3.83c-1.13,0-2.14-.08-3.04-.25v-19.88Zm6.72,1.95h-4.47v16.11c1.26,.12,2.77,.18,4.53,.18,2.38,0,4.17-.7,5.37-2.09,1.2-1.4,1.8-3.46,1.8-6.19,0-1.2-.12-2.29-.38-3.27-.25-.99-.66-1.83-1.23-2.53-.57-.7-1.32-1.24-2.24-1.63s-2.05-.58-3.39-.58Z"/>
        <path class="cls-1" d="M423.43,419.3c0-.4,.15-.76,.44-1.08,.29-.32,.64-.48,1.06-.48s.76,.16,1.08,.48c.32,.32,.48,.68,.48,1.08s-.16,.78-.48,1.06c-.32,.29-.68,.44-1.08,.44s-.78-.14-1.06-.44c-.29-.29-.44-.64-.44-1.06Zm2.55,18.84h-2.1v-13.8h2.1v13.8Z"/>
        <path class="cls-1" d="M436.84,423.89c1.76,0,3.12,.45,4.08,1.33,.96,.89,1.44,2.15,1.44,3.76,0,.34-.02,.69-.06,1.04-.04,.35-.11,.61-.21,.77h-10.11v.3c0,.76,.1,1.49,.3,2.19,.2,.7,.5,1.32,.9,1.86,.4,.54,.9,.97,1.51,1.29,.61,.32,1.33,.48,2.17,.48,.48,0,.95-.05,1.41-.16,.46-.11,.9-.25,1.32-.42,.42-.17,.81-.35,1.17-.55,.36-.2,.68-.4,.96-.6l.36,1.71c-.26,.16-.58,.33-.96,.52-.38,.19-.8,.37-1.26,.53s-.96,.29-1.51,.41c-.55,.11-1.12,.17-1.73,.17-1.12,0-2.11-.2-2.97-.58-.86-.39-1.58-.92-2.16-1.59-.58-.67-1.02-1.44-1.32-2.32-.3-.88-.45-1.8-.45-2.76s.15-1.91,.46-2.8c.31-.89,.76-1.67,1.37-2.35,.6-.68,1.34-1.22,2.23-1.61s1.91-.58,3.04-.58Zm-.09,1.68c-1.32,0-2.34,.35-3.07,1.04-.73,.69-1.23,1.56-1.49,2.59h8.19c.02-.1,.03-.19,.03-.27v-.27c0-.5-.1-.94-.3-1.33-.2-.39-.47-.71-.81-.97-.34-.26-.73-.46-1.17-.58-.44-.13-.9-.2-1.38-.2Z"/>
        <path class="cls-1" d="M454.15,418.25h4.62c1.78,0,3.21,.43,4.29,1.3s1.62,2.14,1.62,3.83c0,.8-.17,1.52-.5,2.16s-.84,1.2-1.54,1.65c1.2,.4,2.14,1.03,2.82,1.89,.68,.86,1.02,1.95,1.02,3.27,0,.84-.15,1.63-.45,2.37-.3,.74-.76,1.39-1.38,1.95s-1.39,1-2.31,1.33-2,.5-3.24,.5c-.98,0-1.89-.04-2.73-.11-.84-.07-1.58-.16-2.22-.25v-19.89Zm4.08,8.43c1.26,0,2.24-.32,2.92-.96,.69-.64,1.04-1.5,1.04-2.6,0-.88-.24-1.58-.72-2.12-.48-.54-1.32-.81-2.52-.81h-2.55v6.45c.28,.02,.58,.03,.89,.03h.94Zm.78,9.84c1.62,0,2.85-.37,3.71-1.12,.85-.75,1.27-1.84,1.27-3.27,0-1.14-.38-2.04-1.15-2.71-.77-.67-2.07-1-3.89-1h-2.55v8.01c.78,.06,1.65,.09,2.61,.09Z"/>
        <path class="cls-1" d="M476.35,423.89c1.22,0,2.27,.21,3.15,.62s1.61,.96,2.17,1.65c.57,.69,.99,1.48,1.26,2.37,.27,.89,.4,1.83,.4,2.81s-.13,1.9-.4,2.77c-.27,.87-.69,1.63-1.25,2.28-.56,.65-1.28,1.17-2.15,1.54s-1.89,.57-3.08,.57-2.27-.2-3.16-.6c-.89-.4-1.63-.93-2.21-1.6-.58-.67-1.01-1.45-1.29-2.33-.28-.88-.42-1.81-.42-2.79s.14-1.91,.42-2.79c.28-.88,.71-1.65,1.27-2.33,.57-.67,1.29-1.2,2.17-1.59s1.91-.58,3.09-.58Zm.09,13.02c.8,0,1.49-.15,2.08-.45,.59-.3,1.08-.71,1.47-1.21,.39-.51,.67-1.1,.86-1.77,.18-.67,.27-1.38,.27-2.12s-.09-1.49-.29-2.19-.49-1.32-.88-1.85c-.4-.53-.91-.95-1.51-1.27-.61-.32-1.33-.48-2.18-.48s-1.52,.15-2.1,.45-1.06,.7-1.44,1.2-.66,1.08-.84,1.75c-.18,.67-.27,1.38-.27,2.12s.09,1.49,.29,2.19c.19,.7,.48,1.32,.87,1.86,.39,.54,.89,.97,1.5,1.29,.61,.32,1.33,.48,2.17,.48Zm-3.66-17.55c0-.36,.12-.67,.36-.94,.24-.27,.53-.41,.87-.41s.63,.13,.89,.41c.25,.27,.38,.58,.38,.94,0,.38-.12,.7-.38,.95-.25,.25-.55,.38-.89,.38s-.63-.12-.87-.38c-.24-.25-.36-.56-.36-.95Zm4.71,0c0-.36,.12-.67,.36-.94,.24-.27,.53-.41,.87-.41s.63,.13,.89,.41c.25,.27,.38,.58,.38,.94,0,.38-.12,.7-.38,.95-.25,.25-.55,.38-.89,.38s-.63-.12-.87-.38c-.24-.25-.36-.56-.36-.95Z"/>
        <path class="cls-1" d="M494.56,426.56c-.32-.18-.64-.33-.96-.43-.32-.11-.63-.17-.93-.17-.4,0-.78,.11-1.14,.33-.36,.22-.69,.52-.99,.9s-.57,.82-.79,1.32c-.23,.5-.41,1.02-.52,1.56v8.07h-2.1v-13.8h1.65l.24,3.03h.12c.14-.46,.33-.9,.56-1.32,.23-.42,.51-.79,.84-1.11,.33-.32,.71-.57,1.12-.76s.9-.29,1.44-.29c.38,0,.78,.07,1.2,.2s.72,.29,.9,.5l-.63,1.98Z"/>
        <path class="cls-1" d="M501.88,425.57c-.96,0-1.66,.18-2.08,.53s-.64,.83-.64,1.42c0,.2,.03,.41,.09,.63,.06,.22,.17,.43,.34,.62,.17,.19,.4,.37,.69,.54,.29,.17,.67,.3,1.16,.41l2.13,.48c.84,.18,1.51,.43,2.02,.74,.51,.31,.91,.64,1.19,1,.28,.36,.46,.73,.55,1.09,.09,.37,.13,.72,.13,1.04,0,.62-.12,1.2-.38,1.74s-.61,1.01-1.08,1.41-1.04,.71-1.72,.94c-.68,.23-1.44,.35-2.28,.35-1.06,0-2.04-.16-2.94-.47-.9-.31-1.62-.65-2.16-1.03l.54-1.95c.72,.66,1.52,1.14,2.4,1.44,.88,.3,1.67,.45,2.37,.45,1,0,1.76-.24,2.28-.73,.52-.49,.78-1.01,.78-1.55,0-.18-.01-.38-.03-.61-.02-.23-.1-.46-.24-.71s-.35-.46-.63-.67-.68-.38-1.2-.5l-2.88-.72c-.66-.16-1.2-.37-1.62-.63-.42-.26-.75-.54-.99-.85-.24-.31-.41-.64-.51-.99-.1-.35-.15-.71-.15-1.07,0-1.22,.45-2.19,1.36-2.92,.91-.73,2.12-1.09,3.65-1.09,.78,0,1.62,.11,2.52,.32,.9,.21,1.66,.51,2.28,.92l-.57,1.8c-.4-.34-1-.65-1.78-.93-.79-.28-1.66-.42-2.6-.42Z"/>
        <path class="cls-1" d="M517.24,423.89c1.76,0,3.12,.45,4.08,1.33,.96,.89,1.44,2.15,1.44,3.76,0,.34-.02,.69-.06,1.04-.04,.35-.11,.61-.21,.77h-10.11v.3c0,.76,.1,1.49,.3,2.19,.2,.7,.5,1.32,.9,1.86,.4,.54,.9,.97,1.51,1.29,.61,.32,1.33,.48,2.17,.48,.48,0,.95-.05,1.41-.16,.46-.11,.9-.25,1.32-.42,.42-.17,.81-.35,1.17-.55,.36-.2,.68-.4,.96-.6l.36,1.71c-.26,.16-.58,.33-.96,.52-.38,.19-.8,.37-1.26,.53s-.96,.29-1.51,.41c-.55,.11-1.12,.17-1.73,.17-1.12,0-2.11-.2-2.97-.58-.86-.39-1.58-.92-2.16-1.59-.58-.67-1.02-1.44-1.32-2.32-.3-.88-.45-1.8-.45-2.76s.15-1.91,.46-2.8c.31-.89,.76-1.67,1.37-2.35,.6-.68,1.34-1.22,2.23-1.61s1.91-.58,3.04-.58Zm-.09,1.68c-1.32,0-2.34,.35-3.07,1.04-.73,.69-1.23,1.56-1.49,2.59h8.19c.02-.1,.03-.19,.03-.27v-.27c0-.5-.1-.94-.3-1.33-.2-.39-.47-.71-.81-.97-.34-.26-.73-.46-1.17-.58-.44-.13-.9-.2-1.38-.2Z"/>
        <path class="cls-1" d="M536.26,438.14v-9.12c0-1.2-.27-2.06-.81-2.58-.54-.52-1.23-.78-2.07-.78-.5,0-1,.08-1.49,.24-.49,.16-.95,.4-1.37,.71-.42,.31-.79,.69-1.11,1.14-.32,.45-.57,.96-.75,1.54v8.85h-2.1v-13.8h1.65l.24,2.58h.12c.26-.84,.84-1.55,1.74-2.15,.9-.59,2.02-.88,3.36-.88,.64,0,1.25,.08,1.81,.25,.57,.17,1.07,.45,1.49,.83s.75,.88,1,1.5,.38,1.38,.38,2.28v9.39h-2.1Z"/>
        <path class="cls-1" d="M185.59,473.57c-.96,0-1.66,.18-2.08,.53s-.64,.83-.64,1.42c0,.2,.03,.41,.09,.63,.06,.22,.17,.43,.34,.62,.17,.19,.4,.37,.69,.54,.29,.17,.67,.3,1.16,.41l2.13,.48c.84,.18,1.51,.43,2.02,.74,.51,.31,.91,.64,1.19,1,.28,.36,.46,.73,.55,1.09,.09,.37,.13,.72,.13,1.04,0,.62-.12,1.2-.38,1.74s-.61,1.01-1.08,1.41-1.04,.71-1.72,.94c-.68,.23-1.44,.35-2.28,.35-1.06,0-2.04-.16-2.94-.47-.9-.31-1.62-.65-2.16-1.03l.54-1.95c.72,.66,1.52,1.14,2.4,1.44,.88,.3,1.67,.45,2.37,.45,1,0,1.76-.24,2.28-.73,.52-.49,.78-1.01,.78-1.55,0-.18-.01-.38-.03-.61-.02-.23-.1-.46-.24-.71s-.35-.46-.63-.67-.68-.38-1.2-.5l-2.88-.72c-.66-.16-1.2-.37-1.62-.63-.42-.26-.75-.54-.99-.85-.24-.31-.41-.64-.51-.99-.1-.35-.15-.71-.15-1.07,0-1.22,.45-2.19,1.36-2.92,.91-.73,2.12-1.09,3.65-1.09,.78,0,1.62,.11,2.52,.32,.9,.21,1.66,.51,2.28,.92l-.57,1.8c-.4-.34-1-.65-1.78-.93-.79-.28-1.66-.42-2.6-.42Z"/>
        <path class="cls-1" d="M195.4,473.75h-2.31v-1.11l2.37-.3,.45-4.17h1.59v4.17h3.24v1.41h-3.24v9.57c0,.64,.09,1.06,.29,1.26,.19,.2,.48,.3,.88,.3,.46,0,.87-.07,1.23-.21,.36-.14,.68-.31,.96-.51l.42,1.59c-.34,.16-.79,.32-1.33,.48s-1.15,.24-1.81,.24-1.14-.09-1.5-.27c-.36-.18-.63-.42-.81-.72-.18-.3-.29-.63-.34-1s-.08-.74-.08-1.09v-9.63Z"/>
        <path class="cls-1" d="M210.34,471.89c1.76,0,3.12,.45,4.08,1.33,.96,.89,1.44,2.15,1.44,3.76,0,.34-.02,.69-.06,1.04-.04,.35-.11,.61-.21,.77h-10.11v.3c0,.76,.1,1.49,.3,2.19,.2,.7,.5,1.32,.9,1.86,.4,.54,.9,.97,1.51,1.29,.61,.32,1.33,.48,2.17,.48,.48,0,.95-.05,1.41-.16,.46-.11,.9-.25,1.32-.42,.42-.17,.81-.35,1.17-.55,.36-.2,.68-.4,.96-.6l.36,1.71c-.26,.16-.58,.33-.96,.52-.38,.19-.8,.37-1.26,.53s-.96,.29-1.51,.41c-.55,.11-1.12,.17-1.73,.17-1.12,0-2.11-.2-2.97-.58-.86-.39-1.58-.92-2.16-1.59-.58-.67-1.02-1.44-1.32-2.32-.3-.88-.45-1.8-.45-2.76s.15-1.91,.46-2.8c.31-.89,.76-1.67,1.37-2.35,.6-.68,1.34-1.22,2.23-1.61s1.91-.58,3.04-.58Zm-.09,1.68c-1.32,0-2.34,.35-3.07,1.04-.73,.69-1.23,1.56-1.49,2.59h8.19c.02-.1,.03-.19,.03-.27v-.27c0-.5-.1-.94-.3-1.33-.2-.39-.47-.71-.81-.97-.34-.26-.73-.46-1.17-.58-.44-.13-.9-.2-1.38-.2Z"/>
        <path class="cls-1" d="M219.22,467.3c0-.4,.15-.76,.44-1.08,.29-.32,.64-.48,1.06-.48s.76,.16,1.08,.48c.32,.32,.48,.68,.48,1.08s-.16,.78-.48,1.06c-.32,.29-.68,.44-1.08,.44s-.78-.14-1.06-.44c-.29-.29-.44-.64-.44-1.06Zm2.55,18.84h-2.1v-13.8h2.1v13.8Z"/>
        <path class="cls-1" d="M228.34,481.9c-.96-.38-1.65-.99-2.07-1.82s-.63-1.73-.63-2.69c0-.78,.13-1.5,.39-2.16s.63-1.24,1.12-1.74c.49-.5,1.08-.89,1.77-1.17,.69-.28,1.47-.42,2.35-.42,.52,0,1.04,.05,1.54,.15s.96,.24,1.33,.44c.84,0,1.62-.04,2.36-.12,.73-.08,1.41-.22,2.05-.4l.15,.12-.21,1.6-.15,.14h-2.73l-.03,.09c.52,.42,.9,.96,1.14,1.64,.24,.68,.36,1.33,.36,1.97s-.12,1.28-.38,1.88c-.25,.6-.62,1.12-1.1,1.56-.48,.45-1.08,.8-1.78,1.07-.71,.27-1.53,.4-2.45,.4h-1.02c-.42,.14-.73,.33-.94,.57s-.32,.44-.32,.6c0,.2,.13,.38,.41,.52,.27,.15,.71,.25,1.3,.31l2.91,.3c.66,.06,1.28,.19,1.84,.4,.57,.21,1.07,.48,1.49,.81s.75,.73,1,1.2,.38,1,.38,1.6-.13,1.17-.39,1.78c-.26,.61-.65,1.13-1.17,1.57-.52,.44-1.24,.8-2.16,1.08-.92,.28-1.98,.42-3.18,.42-1.02,0-1.94-.11-2.75-.31-.81-.21-1.49-.5-2.04-.87-.55-.37-.97-.79-1.26-1.27-.29-.48-.43-.99-.43-1.53,0-.4,.08-.79,.24-1.18,.16-.39,.37-.75,.63-1.09s.56-.64,.92-.9c.35-.26,.71-.46,1.09-.6v-.12c-.82-.38-1.23-.9-1.23-1.56,0-.42,.15-.8,.46-1.14,.31-.34,.69-.67,1.16-.99v-.12Zm2.1,4.51c-.46,0-.88,.09-1.28,.26-.39,.18-.73,.4-1.02,.68-.29,.27-.52,.58-.69,.93-.17,.34-.25,.68-.25,1.01,0,.74,.41,1.34,1.21,1.78,.81,.44,1.91,.66,3.29,.66,.66,0,1.28-.06,1.84-.17,.57-.11,1.06-.29,1.47-.52,.41-.23,.73-.52,.97-.86s.36-.74,.36-1.21c0-.92-.49-1.57-1.46-1.97-.97-.4-2.46-.6-4.46-.6Zm.96-5.48c.56,0,1.05-.09,1.49-.29,.43-.19,.79-.44,1.09-.75,.3-.31,.53-.67,.69-1.09s.24-.86,.24-1.32-.08-.93-.24-1.41c-.16-.48-.39-.92-.7-1.3-.31-.39-.7-.71-1.16-.95-.46-.24-.99-.36-1.59-.36s-1.09,.12-1.52,.35-.79,.52-1.08,.88-.5,.76-.64,1.2c-.14,.44-.21,.88-.21,1.32,0,.46,.08,.91,.22,1.35,.15,.44,.38,.83,.69,1.18,.31,.35,.69,.64,1.14,.86s.98,.33,1.58,.33Z"/>
        <path class="cls-1" d="M247.87,471.89c1.76,0,3.12,.45,4.08,1.33,.96,.89,1.44,2.15,1.44,3.76,0,.34-.02,.69-.06,1.04-.04,.35-.11,.61-.21,.77h-10.11v.3c0,.76,.1,1.49,.3,2.19,.2,.7,.5,1.32,.9,1.86,.4,.54,.9,.97,1.51,1.29,.61,.32,1.33,.48,2.17,.48,.48,0,.95-.05,1.41-.16,.46-.11,.9-.25,1.32-.42,.42-.17,.81-.35,1.17-.55,.36-.2,.68-.4,.96-.6l.36,1.71c-.26,.16-.58,.33-.96,.52-.38,.19-.8,.37-1.26,.53s-.96,.29-1.51,.41c-.55,.11-1.12,.17-1.73,.17-1.12,0-2.11-.2-2.97-.58-.86-.39-1.58-.92-2.16-1.59-.58-.67-1.02-1.44-1.32-2.32-.3-.88-.45-1.8-.45-2.76s.15-1.91,.46-2.8c.31-.89,.76-1.67,1.37-2.35,.6-.68,1.34-1.22,2.23-1.61s1.91-.58,3.04-.58Zm-.09,1.68c-1.32,0-2.34,.35-3.07,1.04-.73,.69-1.23,1.56-1.49,2.59h8.19c.02-.1,.03-.19,.03-.27v-.27c0-.5-.1-.94-.3-1.33-.2-.39-.47-.71-.81-.97-.34-.26-.73-.46-1.17-.58-.44-.13-.9-.2-1.38-.2Z"/>
        <path class="cls-1" d="M266.89,486.14v-9.12c0-1.2-.27-2.06-.81-2.58-.54-.52-1.23-.78-2.07-.78-.5,0-1,.08-1.49,.24-.49,.16-.95,.4-1.37,.71-.42,.31-.79,.69-1.11,1.14-.32,.45-.57,.96-.75,1.54v8.85h-2.1v-13.8h1.65l.24,2.58h.12c.26-.84,.84-1.55,1.74-2.15,.9-.59,2.02-.88,3.36-.88,.64,0,1.25,.08,1.81,.25,.57,.17,1.07,.45,1.49,.83s.75,.88,1,1.5,.38,1.38,.38,2.28v9.39h-2.1Z"/>
        <path class="cls-1" d="M273.34,485.09c0-.38,.13-.71,.39-1s.59-.44,.99-.44,.71,.15,1,.44,.44,.62,.44,1-.15,.71-.44,.97c-.29,.27-.62,.41-1,.41-.4,0-.73-.13-.99-.41-.26-.27-.39-.59-.39-.97Z"/>
      </g>
      <g>
        <path class="cls-1" d="M185.74,218.07h-2.25v-15.78l-2.88,1.38-.66-2.1,5.79-3.3v19.8Z"/>
        <path class="cls-1" d="M198.46,198.12c1.28,0,2.42,.27,3.41,.81,.99,.54,1.82,1.27,2.5,2.21,.68,.93,1.19,2,1.54,3.22,.35,1.22,.53,2.5,.53,3.84s-.18,2.59-.54,3.83c-.36,1.23-.89,2.32-1.58,3.27-.69,.95-1.54,1.71-2.57,2.28-1.02,.57-2.19,.86-3.51,.86s-2.44-.27-3.41-.81-1.78-1.27-2.42-2.19-1.12-1.99-1.46-3.2-.5-2.49-.5-3.83c0-1.42,.18-2.75,.54-4,.36-1.25,.88-2.34,1.56-3.27,.68-.93,1.51-1.67,2.5-2.21s2.12-.81,3.38-.81Zm-.15,18.33c.98,0,1.83-.21,2.55-.63,.72-.42,1.31-1,1.77-1.74,.46-.74,.8-1.6,1.02-2.59,.22-.99,.33-2.05,.33-3.2,0-1.22-.12-2.33-.34-3.33-.23-1-.58-1.86-1.05-2.58-.47-.72-1.05-1.28-1.75-1.68-.7-.4-1.52-.6-2.46-.6s-1.79,.19-2.48,.58c-.69,.39-1.25,.94-1.68,1.65-.43,.71-.75,1.56-.95,2.54-.2,.98-.3,2.06-.3,3.24,0,2.76,.46,4.84,1.4,6.24,.93,1.4,2.24,2.1,3.94,2.1Z"/>
        <path class="cls-1" d="M217.93,198.12c1.28,0,2.42,.27,3.41,.81,.99,.54,1.82,1.27,2.5,2.21,.68,.93,1.19,2,1.54,3.22,.35,1.22,.53,2.5,.53,3.84s-.18,2.59-.54,3.83c-.36,1.23-.89,2.32-1.58,3.27-.69,.95-1.54,1.71-2.57,2.28-1.02,.57-2.19,.86-3.51,.86s-2.44-.27-3.41-.81-1.78-1.27-2.42-2.19-1.12-1.99-1.46-3.2-.5-2.49-.5-3.83c0-1.42,.18-2.75,.54-4,.36-1.25,.88-2.34,1.56-3.27,.68-.93,1.51-1.67,2.5-2.21s2.12-.81,3.38-.81Zm-.15,18.33c.98,0,1.83-.21,2.55-.63,.72-.42,1.31-1,1.77-1.74,.46-.74,.8-1.6,1.02-2.59,.22-.99,.33-2.05,.33-3.2,0-1.22-.12-2.33-.34-3.33-.23-1-.58-1.86-1.05-2.58-.47-.72-1.05-1.28-1.75-1.68-.7-.4-1.52-.6-2.46-.6s-1.79,.19-2.48,.58c-.69,.39-1.25,.94-1.68,1.65-.43,.71-.75,1.56-.95,2.54-.2,.98-.3,2.06-.3,3.24,0,2.76,.46,4.84,1.4,6.24,.93,1.4,2.24,2.1,3.94,2.1Z"/>
        <path class="cls-1" d="M240.58,198.12c.7,0,1.32,.15,1.88,.45,.55,.3,1.01,.7,1.38,1.2s.66,1.08,.86,1.75c.2,.67,.3,1.38,.3,2.12s-.1,1.42-.3,2.1c-.2,.68-.49,1.28-.87,1.8-.38,.52-.86,.94-1.43,1.25-.57,.31-1.21,.46-1.93,.46s-1.32-.14-1.86-.43-.99-.68-1.35-1.19c-.36-.5-.63-1.08-.81-1.75-.18-.67-.27-1.38-.27-2.11,0-.78,.1-1.52,.3-2.21,.2-.69,.49-1.29,.87-1.8,.38-.51,.84-.91,1.38-1.2s1.16-.44,1.86-.44Zm-.09,9.78c.5,0,.93-.11,1.29-.33,.36-.22,.65-.52,.88-.9,.23-.38,.4-.82,.51-1.33,.11-.51,.17-1.05,.17-1.63,0-1.26-.23-2.28-.69-3.06-.46-.78-1.17-1.17-2.13-1.17s-1.67,.38-2.07,1.15c-.4,.77-.6,1.75-.6,2.96,0,1.44,.23,2.52,.69,3.24s1.11,1.08,1.95,1.08Zm.78,10.89h-1.95l13.89-21.45h1.95l-13.89,21.45Zm12.75-11.64c.7,0,1.33,.15,1.88,.45,.55,.3,1.01,.7,1.38,1.2,.37,.5,.65,1.08,.85,1.75s.3,1.38,.3,2.11-.1,1.42-.3,2.1-.49,1.28-.87,1.8c-.38,.52-.85,.94-1.42,1.25s-1.21,.46-1.93,.46-1.32-.15-1.86-.43c-.54-.29-.99-.69-1.35-1.19-.36-.5-.63-1.08-.81-1.75s-.27-1.38-.27-2.12c0-.78,.1-1.51,.3-2.21,.2-.69,.49-1.29,.87-1.8,.38-.51,.84-.91,1.38-1.2,.54-.29,1.16-.43,1.86-.43Zm-.09,9.78c.5,0,.93-.11,1.29-.33,.36-.22,.66-.52,.89-.9,.23-.38,.4-.83,.51-1.33,.11-.51,.17-1.05,.17-1.63,0-1.26-.23-2.28-.69-3.06-.46-.78-1.17-1.17-2.13-1.17s-1.67,.39-2.07,1.16c-.4,.77-.6,1.75-.6,2.96,0,1.44,.23,2.52,.69,3.24,.46,.72,1.11,1.08,1.95,1.08Z"/>
        <path class="cls-1" d="M283.9,201.57c-.64-.42-1.43-.77-2.37-1.05s-2.01-.42-3.21-.42c-1.34,0-2.47,.19-3.39,.58-.92,.39-1.67,.93-2.24,1.63-.57,.7-.98,1.54-1.23,2.54-.25,.99-.38,2.08-.38,3.29,0,2.74,.6,4.81,1.8,6.21,1.2,1.4,2.99,2.1,5.37,2.1,1.26,0,2.42-.18,3.48-.54,1.06-.36,1.91-.8,2.55-1.32l.6,2.01c-.8,.48-1.77,.91-2.89,1.27-1.13,.37-2.41,.56-3.83,.56-1.64,0-3.06-.27-4.26-.81-1.2-.54-2.19-1.27-2.98-2.19s-1.38-1.99-1.75-3.2c-.38-1.21-.57-2.5-.57-3.86s.21-2.75,.63-3.99,1.04-2.33,1.88-3.25c.83-.93,1.86-1.67,3.09-2.21,1.23-.54,2.67-.81,4.31-.81,1.08,0,2.16,.12,3.24,.34,1.08,.23,2.01,.55,2.79,.95l-.63,2.16Z"/>
        <path class="cls-1" d="M297.25,218.07l-.24-2.46h-.12c-.24,.38-.56,.74-.96,1.08-.4,.34-.85,.64-1.33,.9-.49,.26-1.02,.47-1.59,.62-.57,.15-1.14,.23-1.7,.23-1.32,0-2.31-.38-2.97-1.16-.66-.77-.99-1.74-.99-2.9s.29-2.05,.87-2.73c.58-.68,1.29-1.19,2.13-1.53,.84-.34,1.72-.56,2.66-.66,.93-.1,1.74-.15,2.44-.15h1.35v-.36c0-.76-.11-1.34-.32-1.74-.21-.4-.51-.74-.92-1.02-.34-.22-.71-.38-1.09-.46-.39-.09-.91-.14-1.54-.14-.84,0-1.58,.11-2.22,.33-.64,.22-1.26,.51-1.86,.87l-.48-1.8c1.34-.78,2.94-1.17,4.8-1.17,.74,0,1.44,.07,2.1,.2s1.24,.36,1.74,.67c.58,.36,1.04,.87,1.38,1.53,.34,.66,.51,1.48,.51,2.46v9.39h-1.65Zm-5.31-1.41c.82,0,1.69-.26,2.61-.78,.92-.52,1.67-1.27,2.25-2.25v-2.79h-.27c-.82,0-1.64,.03-2.46,.09-.82,.06-1.57,.21-2.24,.45-.67,.24-1.21,.58-1.63,1.04s-.63,1.07-.63,1.85,.21,1.38,.65,1.78c.43,.41,1,.62,1.72,.62Z"/>
        <path class="cls-1" d="M307.48,205.5c-.96,0-1.66,.18-2.08,.53s-.64,.83-.64,1.42c0,.2,.03,.41,.09,.63,.06,.22,.17,.43,.34,.62,.17,.19,.4,.37,.69,.54,.29,.17,.67,.3,1.16,.41l2.13,.48c.84,.18,1.51,.43,2.02,.74,.51,.31,.91,.64,1.19,1,.28,.36,.46,.73,.55,1.09,.09,.37,.13,.72,.13,1.04,0,.62-.12,1.2-.38,1.74s-.61,1.01-1.08,1.41-1.04,.71-1.72,.94c-.68,.23-1.44,.35-2.28,.35-1.06,0-2.04-.16-2.94-.47-.9-.31-1.62-.65-2.16-1.03l.54-1.95c.72,.66,1.52,1.14,2.4,1.44,.88,.3,1.67,.45,2.37,.45,1,0,1.76-.24,2.28-.73,.52-.49,.78-1.01,.78-1.55,0-.18-.01-.38-.03-.61-.02-.23-.1-.46-.24-.71s-.35-.46-.63-.67-.68-.38-1.2-.5l-2.88-.72c-.66-.16-1.2-.37-1.62-.63-.42-.26-.75-.54-.99-.85-.24-.31-.41-.64-.51-.99-.1-.35-.15-.71-.15-1.07,0-1.22,.45-2.19,1.36-2.92,.91-.73,2.12-1.09,3.65-1.09,.78,0,1.62,.11,2.52,.32,.9,.21,1.66,.51,2.28,.92l-.57,1.8c-.4-.34-1-.65-1.78-.93-.79-.28-1.66-.42-2.6-.42Z"/>
        <path class="cls-1" d="M326.35,218.07v-9.12c0-1.22-.27-2.08-.81-2.59s-1.23-.77-2.07-.77c-.5,0-1,.08-1.49,.24-.49,.16-.95,.4-1.37,.71-.42,.31-.79,.69-1.11,1.14-.32,.45-.57,.96-.75,1.54v8.85h-2.1v-22.2h2.1v10.98c.26-.84,.82-1.55,1.69-2.15,.87-.59,1.97-.88,3.32-.88,.64,0,1.25,.08,1.81,.25,.57,.17,1.07,.45,1.49,.83s.75,.88,1,1.5,.38,1.38,.38,2.28v9.39h-2.1Z"/>
        <path class="cls-1" d="M332.89,205.83c0-.38,.13-.71,.39-.99,.26-.28,.59-.42,.99-.42s.71,.14,1.01,.42c.29,.28,.43,.61,.43,.99,0,.4-.15,.74-.43,1-.29,.27-.63,.41-1.01,.41-.4,0-.73-.13-.99-.41-.26-.27-.39-.6-.39-1Zm0,11.19c0-.38,.13-.71,.39-1,.26-.29,.59-.44,.99-.44s.71,.15,1.01,.44c.29,.29,.43,.62,.43,1s-.15,.71-.43,.97c-.29,.27-.63,.41-1.01,.41-.4,0-.73-.13-.99-.41-.26-.27-.39-.59-.39-.97Z"/>
        <path class="cls-1" d="M348.25,198.21h6.54c1.42,0,2.71,.2,3.88,.59,1.17,.4,2.17,.94,2.99,1.64,1.06,.95,1.83,2.11,2.31,3.48,.48,1.37,.72,2.85,.72,4.46,0,1.35-.19,2.62-.57,3.82s-.96,2.25-1.75,3.17-1.79,1.64-2.99,2.17c-1.2,.53-2.62,.8-4.26,.8h-3.83c-1.13,0-2.14-.08-3.04-.25v-19.88Zm6.72,1.95h-4.47v16.11c1.26,.12,2.77,.18,4.53,.18,2.38,0,4.17-.7,5.37-2.09,1.2-1.4,1.8-3.46,1.8-6.19,0-1.2-.12-2.29-.38-3.27-.25-.99-.66-1.83-1.23-2.53-.57-.7-1.32-1.24-2.24-1.63s-2.05-.58-3.39-.58Z"/>
        <path class="cls-1" d="M368.08,199.23c0-.4,.15-.76,.44-1.08,.29-.32,.64-.48,1.06-.48s.76,.16,1.08,.48c.32,.32,.48,.68,.48,1.08s-.16,.78-.48,1.06c-.32,.29-.68,.44-1.08,.44s-.78-.14-1.06-.44c-.29-.29-.44-.64-.44-1.06Zm2.55,18.84h-2.1v-13.8h2.1v13.8Z"/>
        <path class="cls-1" d="M381.49,203.82c1.76,0,3.12,.45,4.08,1.33,.96,.89,1.44,2.15,1.44,3.76,0,.34-.02,.69-.06,1.04-.04,.35-.11,.61-.21,.77h-10.11v.3c0,.76,.1,1.49,.3,2.19,.2,.7,.5,1.32,.9,1.86,.4,.54,.9,.97,1.51,1.29,.61,.32,1.33,.48,2.17,.48,.48,0,.95-.05,1.41-.16,.46-.11,.9-.25,1.32-.42,.42-.17,.81-.35,1.17-.55,.36-.2,.68-.4,.96-.6l.36,1.71c-.26,.16-.58,.33-.96,.52-.38,.19-.8,.37-1.26,.53s-.96,.29-1.51,.41c-.55,.11-1.12,.17-1.73,.17-1.12,0-2.11-.2-2.97-.58-.86-.39-1.58-.92-2.16-1.59-.58-.67-1.02-1.44-1.32-2.32-.3-.88-.45-1.8-.45-2.76s.15-1.91,.46-2.8c.31-.89,.76-1.67,1.37-2.35,.6-.68,1.34-1.22,2.23-1.61s1.91-.58,3.04-.58Zm-.09,1.68c-1.32,0-2.34,.35-3.07,1.04-.73,.69-1.23,1.56-1.49,2.59h8.19c.02-.1,.03-.19,.03-.27v-.27c0-.5-.1-.94-.3-1.33-.2-.39-.47-.71-.81-.97-.34-.26-.73-.46-1.17-.58-.44-.13-.9-.2-1.38-.2Z"/>
        <path class="cls-1" d="M398.8,198.18h4.62c1.78,0,3.21,.43,4.29,1.3s1.62,2.14,1.62,3.83c0,.8-.17,1.52-.5,2.16s-.84,1.2-1.54,1.65c1.2,.4,2.14,1.03,2.82,1.89,.68,.86,1.02,1.95,1.02,3.27,0,.84-.15,1.63-.45,2.37-.3,.74-.76,1.39-1.38,1.95s-1.39,1-2.31,1.33-2,.5-3.24,.5c-.98,0-1.89-.04-2.73-.11-.84-.07-1.58-.16-2.22-.25v-19.89Zm4.08,8.43c1.26,0,2.24-.32,2.92-.96,.69-.64,1.04-1.5,1.04-2.6,0-.88-.24-1.58-.72-2.12-.48-.54-1.32-.81-2.52-.81h-2.55v6.45c.28,.02,.58,.03,.89,.03h.94Zm.78,9.84c1.62,0,2.85-.37,3.71-1.12,.85-.75,1.27-1.84,1.27-3.27,0-1.14-.38-2.04-1.15-2.71-.77-.67-2.07-1-3.89-1h-2.55v8.01c.78,.06,1.65,.09,2.61,.09Z"/>
        <path class="cls-1" d="M421,203.82c1.22,0,2.27,.21,3.15,.62s1.61,.96,2.17,1.65c.57,.69,.99,1.48,1.26,2.37,.27,.89,.4,1.83,.4,2.81s-.13,1.9-.4,2.77c-.27,.87-.69,1.63-1.25,2.28-.56,.65-1.28,1.17-2.15,1.54s-1.89,.57-3.08,.57-2.27-.2-3.16-.6c-.89-.4-1.63-.93-2.21-1.6-.58-.67-1.01-1.45-1.29-2.33-.28-.88-.42-1.81-.42-2.79s.14-1.91,.42-2.79c.28-.88,.71-1.65,1.27-2.33,.57-.67,1.29-1.2,2.17-1.59s1.91-.58,3.09-.58Zm.09,13.02c.8,0,1.49-.15,2.08-.45,.59-.3,1.08-.71,1.47-1.21,.39-.51,.67-1.1,.86-1.77,.18-.67,.27-1.38,.27-2.12s-.09-1.49-.29-2.19-.49-1.32-.88-1.85c-.4-.53-.91-.95-1.51-1.27-.61-.32-1.33-.48-2.18-.48s-1.52,.15-2.1,.45-1.06,.7-1.44,1.2-.66,1.08-.84,1.75c-.18,.67-.27,1.38-.27,2.12s.09,1.49,.29,2.19c.19,.7,.48,1.32,.87,1.86,.39,.54,.89,.97,1.5,1.29,.61,.32,1.33,.48,2.17,.48Zm-3.66-17.55c0-.36,.12-.67,.36-.94,.24-.27,.53-.41,.87-.41s.63,.13,.89,.41c.25,.27,.38,.58,.38,.94,0,.38-.12,.7-.38,.95-.25,.25-.55,.38-.89,.38s-.63-.12-.87-.38c-.24-.25-.36-.56-.36-.95Zm4.71,0c0-.36,.12-.67,.36-.94,.24-.27,.53-.41,.87-.41s.63,.13,.89,.41c.25,.27,.38,.58,.38,.94,0,.38-.12,.7-.38,.95-.25,.25-.55,.38-.89,.38s-.63-.12-.87-.38c-.24-.25-.36-.56-.36-.95Z"/>
        <path class="cls-1" d="M439.21,206.49c-.32-.18-.64-.33-.96-.43-.32-.11-.63-.17-.93-.17-.4,0-.78,.11-1.14,.33-.36,.22-.69,.52-.99,.9s-.57,.82-.79,1.32c-.23,.5-.41,1.02-.52,1.56v8.07h-2.1v-13.8h1.65l.24,3.03h.12c.14-.46,.33-.9,.56-1.32,.23-.42,.51-.79,.84-1.11,.33-.32,.71-.57,1.12-.76s.9-.29,1.44-.29c.38,0,.78,.07,1.2,.2s.72,.29,.9,.5l-.63,1.98Z"/>
        <path class="cls-1" d="M446.53,205.5c-.96,0-1.66,.18-2.08,.53s-.64,.83-.64,1.42c0,.2,.03,.41,.09,.63,.06,.22,.17,.43,.34,.62,.17,.19,.4,.37,.69,.54,.29,.17,.67,.3,1.16,.41l2.13,.48c.84,.18,1.51,.43,2.02,.74,.51,.31,.91,.64,1.19,1,.28,.36,.46,.73,.55,1.09,.09,.37,.13,.72,.13,1.04,0,.62-.12,1.2-.38,1.74s-.61,1.01-1.08,1.41-1.04,.71-1.72,.94c-.68,.23-1.44,.35-2.28,.35-1.06,0-2.04-.16-2.94-.47-.9-.31-1.62-.65-2.16-1.03l.54-1.95c.72,.66,1.52,1.14,2.4,1.44,.88,.3,1.67,.45,2.37,.45,1,0,1.76-.24,2.28-.73,.52-.49,.78-1.01,.78-1.55,0-.18-.01-.38-.03-.61-.02-.23-.1-.46-.24-.71s-.35-.46-.63-.67-.68-.38-1.2-.5l-2.88-.72c-.66-.16-1.2-.37-1.62-.63-.42-.26-.75-.54-.99-.85-.24-.31-.41-.64-.51-.99-.1-.35-.15-.71-.15-1.07,0-1.22,.45-2.19,1.36-2.92,.91-.73,2.12-1.09,3.65-1.09,.78,0,1.62,.11,2.52,.32,.9,.21,1.66,.51,2.28,.92l-.57,1.8c-.4-.34-1-.65-1.78-.93-.79-.28-1.66-.42-2.6-.42Z"/>
        <path class="cls-1" d="M461.89,203.82c1.76,0,3.12,.45,4.08,1.33,.96,.89,1.44,2.15,1.44,3.76,0,.34-.02,.69-.06,1.04-.04,.35-.11,.61-.21,.77h-10.11v.3c0,.76,.1,1.49,.3,2.19,.2,.7,.5,1.32,.9,1.86,.4,.54,.9,.97,1.51,1.29,.61,.32,1.33,.48,2.17,.48,.48,0,.95-.05,1.41-.16,.46-.11,.9-.25,1.32-.42,.42-.17,.81-.35,1.17-.55,.36-.2,.68-.4,.96-.6l.36,1.71c-.26,.16-.58,.33-.96,.52-.38,.19-.8,.37-1.26,.53s-.96,.29-1.51,.41c-.55,.11-1.12,.17-1.73,.17-1.12,0-2.11-.2-2.97-.58-.86-.39-1.58-.92-2.16-1.59-.58-.67-1.02-1.44-1.32-2.32-.3-.88-.45-1.8-.45-2.76s.15-1.91,.46-2.8c.31-.89,.76-1.67,1.37-2.35,.6-.68,1.34-1.22,2.23-1.61s1.91-.58,3.04-.58Zm-.09,1.68c-1.32,0-2.34,.35-3.07,1.04-.73,.69-1.23,1.56-1.49,2.59h8.19c.02-.1,.03-.19,.03-.27v-.27c0-.5-.1-.94-.3-1.33-.2-.39-.47-.71-.81-.97-.34-.26-.73-.46-1.17-.58-.44-.13-.9-.2-1.38-.2Z"/>
        <path class="cls-1" d="M480.91,218.07v-9.12c0-1.2-.27-2.06-.81-2.58-.54-.52-1.23-.78-2.07-.78-.5,0-1,.08-1.49,.24-.49,.16-.95,.4-1.37,.71-.42,.31-.79,.69-1.11,1.14-.32,.45-.57,.96-.75,1.54v8.85h-2.1v-13.8h1.65l.24,2.58h.12c.26-.84,.84-1.55,1.74-2.15,.9-.59,2.02-.88,3.36-.88,.64,0,1.25,.08,1.81,.25,.57,.17,1.07,.45,1.49,.83s.75,.88,1,1.5,.38,1.38,.38,2.28v9.39h-2.1Z"/>
        <path class="cls-1" d="M495.64,205.68h-2.31v-1.11l2.31-.27c0-1.12,.04-2.08,.11-2.88,.07-.8,.17-1.47,.29-2.02s.25-1,.41-1.35c.15-.35,.29-.63,.43-.85,.38-.56,.85-.95,1.41-1.16,.56-.21,1.14-.31,1.74-.31h.42c.2,0,.42,.02,.67,.05,.25,.03,.5,.08,.76,.16s.51,.17,.75,.3l-.51,1.77c-.06,0-.2-.03-.42-.1-.22-.07-.46-.15-.74-.24-.27-.09-.56-.17-.87-.25-.31-.08-.58-.12-.82-.12-.3,0-.55,.08-.75,.25-.2,.17-.36,.45-.47,.84-.11,.39-.19,.91-.24,1.54-.05,.64-.08,1.43-.08,2.37v1.98h3.24v1.41h-3.24v12.39h-2.1v-12.39Z"/>
        <path class="cls-1" d="M512.62,218.07l-.24-2.46h-.12c-.24,.38-.56,.74-.96,1.08-.4,.34-.85,.64-1.33,.9-.49,.26-1.02,.47-1.59,.62-.57,.15-1.14,.23-1.7,.23-1.32,0-2.31-.38-2.97-1.16-.66-.77-.99-1.74-.99-2.9s.29-2.05,.87-2.73c.58-.68,1.29-1.19,2.13-1.53,.84-.34,1.72-.56,2.66-.66,.93-.1,1.74-.15,2.44-.15h1.35v-.36c0-.76-.11-1.34-.32-1.74-.21-.4-.51-.74-.92-1.02-.34-.22-.71-.38-1.09-.46-.39-.09-.91-.14-1.54-.14-.84,0-1.58,.11-2.22,.33-.64,.22-1.26,.51-1.86,.87l-.48-1.8c1.34-.78,2.94-1.17,4.8-1.17,.74,0,1.44,.07,2.1,.2s1.24,.36,1.74,.67c.58,.36,1.04,.87,1.38,1.53,.34,.66,.51,1.48,.51,2.46v9.39h-1.65Zm-5.31-1.41c.82,0,1.69-.26,2.61-.78,.92-.52,1.67-1.27,2.25-2.25v-2.79h-.27c-.82,0-1.64,.03-2.46,.09-.82,.06-1.57,.21-2.24,.45-.67,.24-1.21,.58-1.63,1.04s-.63,1.07-.63,1.85,.21,1.38,.65,1.78c.43,.41,1,.62,1.72,.62Z"/>
        <path class="cls-1" d="M521.08,218.07h-2.1v-22.2h2.1v22.2Z"/>
        <path class="cls-1" d="M528.22,218.07h-2.1v-22.2h2.1v22.2Z"/>
        <path class="cls-1" d="M539.25,203.82c1.76,0,3.12,.45,4.08,1.33,.96,.89,1.44,2.15,1.44,3.76,0,.34-.02,.69-.06,1.04-.04,.35-.11,.61-.21,.77h-10.11v.3c0,.76,.1,1.49,.3,2.19,.2,.7,.5,1.32,.9,1.86,.4,.54,.9,.97,1.51,1.29,.61,.32,1.33,.48,2.17,.48,.48,0,.95-.05,1.41-.16,.46-.11,.9-.25,1.32-.42,.42-.17,.81-.35,1.17-.55,.36-.2,.68-.4,.96-.6l.36,1.71c-.26,.16-.58,.33-.96,.52-.38,.19-.8,.37-1.26,.53s-.96,.29-1.51,.41c-.55,.11-1.12,.17-1.73,.17-1.12,0-2.11-.2-2.97-.58-.86-.39-1.58-.92-2.16-1.59-.58-.67-1.02-1.44-1.32-2.32-.3-.88-.45-1.8-.45-2.76s.15-1.91,.46-2.8c.31-.89,.76-1.67,1.37-2.35,.6-.68,1.34-1.22,2.23-1.61s1.91-.58,3.04-.58Zm-.09,1.68c-1.32,0-2.34,.35-3.07,1.04-.73,.69-1.23,1.56-1.49,2.59h8.19c.02-.1,.03-.19,.03-.27v-.27c0-.5-.1-.94-.3-1.33-.2-.39-.47-.71-.81-.97-.34-.26-.73-.46-1.17-.58-.44-.13-.9-.2-1.38-.2Z"/>
        <path class="cls-1" d="M558.28,218.07v-9.12c0-1.2-.27-2.06-.81-2.58-.54-.52-1.23-.78-2.07-.78-.5,0-1,.08-1.49,.24-.49,.16-.95,.4-1.37,.71-.42,.31-.79,.69-1.11,1.14-.32,.45-.57,.96-.75,1.54v8.85h-2.1v-13.8h1.65l.24,2.58h.12c.26-.84,.84-1.55,1.74-2.15,.9-.59,2.02-.88,3.36-.88,.64,0,1.25,.08,1.81,.25,.57,.17,1.07,.45,1.49,.83s.75,.88,1,1.5,.38,1.38,.38,2.28v9.39h-2.1Z"/>
        <path class="cls-1" d="M564.72,217.02c0-.38,.13-.71,.39-1s.59-.44,.99-.44,.71,.15,1,.44,.44,.62,.44,1-.15,.71-.44,.97c-.29,.27-.62,.41-1,.41-.4,0-.73-.13-.99-.41-.26-.27-.39-.59-.39-.97Z"/>
      </g>
      <g>
        <path class="cls-1" d="M141.06,114.17c0,2.72-.98,4.95-2.93,6.7-1.95,1.75-4.45,2.62-7.49,2.62h-14.11v-31.68h11.23c2.94,0,5.35,.82,7.22,2.47,1.87,1.65,2.81,3.77,2.81,6.36,0,2.34-.78,4.24-2.35,5.71,3.74,1.38,5.62,3.98,5.62,7.82Zm-13.82-16.8h-4.46v7.25h4.46c1.31,0,2.33-.32,3.05-.96,.72-.64,1.08-1.54,1.08-2.69s-.36-2-1.08-2.64c-.72-.64-1.74-.96-3.05-.96Zm7.44,16.56c0-1.22-.4-2.18-1.2-2.9s-1.9-1.08-3.31-1.08h-7.39v7.97h7.39c1.41,0,2.51-.35,3.31-1.06,.8-.7,1.2-1.68,1.2-2.93Z"/>
        <path class="cls-1" d="M144.56,111.58c-.06-3.39,1.17-6.32,3.7-8.78,2.53-2.46,5.54-3.66,9.02-3.6,3.49-.06,6.5,1.14,9.05,3.6,2.54,2.46,3.78,5.39,3.72,8.78,.06,3.39-1.18,6.33-3.74,8.81-2.56,2.48-5.58,3.69-9.07,3.62-3.49,.06-6.49-1.14-9-3.62-2.51-2.48-3.74-5.42-3.67-8.81Zm4.27-17.9c-.77-.74-1.15-1.62-1.15-2.64s.38-1.9,1.15-2.64c.77-.74,1.7-1.1,2.78-1.1,1.02,0,1.92,.37,2.69,1.1,.77,.74,1.15,1.62,1.15,2.64s-.38,1.9-1.15,2.64c-.77,.74-1.66,1.1-2.69,1.1-1.09,0-2.02-.37-2.78-1.1Zm12.84,22.56c1.17-1.22,1.75-2.75,1.75-4.61s-.58-3.41-1.75-4.66c-1.17-1.25-2.63-1.87-4.39-1.87s-3.26,.62-4.42,1.85c-1.15,1.23-1.73,2.79-1.73,4.68s.58,3.39,1.73,4.61c1.15,1.22,2.62,1.82,4.42,1.82s3.22-.61,4.39-1.82Zm-1.42-22.56c-.77-.74-1.15-1.62-1.15-2.64s.38-1.9,1.15-2.64c.77-.74,1.7-1.1,2.78-1.1,1.02,0,1.92,.37,2.69,1.1s1.15,1.62,1.15,2.64-.38,1.9-1.15,2.64-1.66,1.1-2.69,1.1c-1.09,0-2.02-.37-2.78-1.1Z"/>
        <path class="cls-1" d="M189.68,99.72v5.71h-1.73c-1.98,0-3.54,.53-4.68,1.58-1.14,1.06-1.7,2.59-1.7,4.61v11.86h-6.48v-23.76h5.95v2.83c1.66-2.08,3.84-3.12,6.53-3.12,.8,0,1.5,.1,2.11,.29Z"/>
        <path class="cls-1" d="M191.55,119.45l3.26-3.94c2.05,2.14,4.27,3.22,6.67,3.22,.9,0,1.62-.17,2.18-.5s.84-.82,.84-1.46c0-.48-.17-.86-.5-1.13s-.98-.62-1.94-1.03l-2.54-1.06c-2.27-.93-3.92-1.94-4.94-3.05-1.02-1.1-1.54-2.5-1.54-4.2,0-2.21,.8-3.94,2.4-5.21,1.6-1.26,3.71-1.9,6.34-1.9,3.52,0,6.37,1.18,8.54,3.55l-3.26,3.98c-1.6-1.5-3.38-2.26-5.33-2.26-1.7,0-2.54,.56-2.54,1.68,0,.45,.17,.82,.53,1.1,.35,.29,1.01,.62,1.97,1.01l2.3,.96c2.37,.96,4.07,1.98,5.11,3.07s1.56,2.48,1.56,4.18c0,2.37-.88,4.22-2.64,5.57-1.73,1.34-3.94,2.02-6.62,2.02-4.26,0-7.54-1.54-9.84-4.61Z"/>
        <path class="cls-1" d="M237.39,113.79h-16.66c.38,1.5,1.16,2.66,2.33,3.48,1.17,.82,2.62,1.22,4.34,1.22,2.33,0,4.54-.8,6.62-2.4l2.69,4.42c-2.85,2.37-6.02,3.55-9.5,3.55-3.65,.06-6.74-1.13-9.29-3.58s-3.78-5.4-3.72-8.86c-.06-3.42,1.14-6.37,3.6-8.83,2.46-2.46,5.41-3.66,8.83-3.6,3.26,0,5.94,1.06,8.04,3.17s3.14,4.74,3.14,7.87c0,1.15-.14,2.34-.43,3.55Zm-16.66-4.56h10.8c-.03-1.44-.54-2.6-1.51-3.48-.98-.88-2.18-1.32-3.62-1.32s-2.58,.43-3.6,1.3c-1.02,.86-1.71,2.03-2.06,3.5Z"/>
        <path class="cls-1" d="M264.7,108.75v14.74h-6.43v-13.87c0-1.38-.41-2.49-1.22-3.34-.82-.85-1.88-1.27-3.19-1.27s-2.39,.42-3.24,1.27c-.85,.85-1.27,1.96-1.27,3.34v13.87h-6.48v-23.76h5.95v2.16c1.79-1.79,4.11-2.69,6.96-2.69s4.93,.86,6.53,2.59c1.6,1.73,2.4,4.05,2.4,6.96Z"/>
        <path class="cls-1" d="M290.86,109.37v14.11h-5.95v-2.3c-1.86,1.92-4.27,2.88-7.25,2.88-2.5,0-4.49-.66-5.98-1.97s-2.23-3.02-2.23-5.14,.81-3.83,2.42-5.06c1.62-1.23,3.8-1.85,6.55-1.85h5.95v-1.06c0-1.34-.38-2.38-1.13-3.1-.75-.72-1.85-1.08-3.29-1.08-1.18,0-2.26,.26-3.22,.77-.96,.51-1.99,1.34-3.07,2.5l-3.36-3.98c2.75-3.26,6.21-4.9,10.37-4.9,3.14,0,5.62,.89,7.44,2.66,1.82,1.78,2.74,4.28,2.74,7.51Zm-6.48,5.23v-.29h-5.09c-2.21,0-3.31,.8-3.31,2.4,0,.8,.31,1.43,.94,1.9s1.45,.7,2.47,.7c1.44,0,2.63-.44,3.58-1.32,.94-.88,1.42-2.01,1.42-3.38Z"/>
        <path class="cls-1" d="M333.73,108.75v14.74h-6.48v-13.82c0-1.41-.38-2.53-1.15-3.36s-1.79-1.25-3.07-1.25-2.33,.42-3.14,1.25c-.82,.83-1.22,1.9-1.22,3.22v13.97h-6.48v-13.82c0-1.41-.38-2.53-1.15-3.36-.77-.83-1.79-1.25-3.07-1.25s-2.37,.42-3.17,1.25c-.8,.83-1.2,1.95-1.2,3.36v13.82h-6.48v-23.76h5.95v2.11c1.66-1.76,3.9-2.64,6.72-2.64,3.1,0,5.46,1.14,7.06,3.41,2.02-2.27,4.66-3.41,7.92-3.41,2.75,0,4.94,.86,6.55,2.59,1.62,1.73,2.42,4.05,2.42,6.96Z"/>
        <path class="cls-1" d="M361.74,102.72c2.19,2.35,3.29,5.3,3.29,8.86s-1.1,6.52-3.29,8.9c-2.19,2.38-4.94,3.58-8.23,3.58-2.98,0-5.34-.96-7.1-2.88v10.94h-6.48v-32.4h5.95v2.98c1.63-2.33,4.18-3.5,7.63-3.5s6.04,1.18,8.23,3.53Zm-3.29,8.9c0-1.95-.58-3.54-1.73-4.75-1.15-1.22-2.62-1.82-4.42-1.82s-3.16,.58-4.3,1.73-1.7,2.75-1.7,4.8,.57,3.66,1.7,4.82c1.14,1.17,2.57,1.75,4.3,1.75s3.22-.61,4.39-1.82c1.17-1.22,1.75-2.78,1.75-4.7Z"/>
        <path class="cls-1" d="M391.95,113.79h-16.66c.38,1.5,1.16,2.66,2.33,3.48,1.17,.82,2.62,1.22,4.34,1.22,2.33,0,4.54-.8,6.62-2.4l2.69,4.42c-2.85,2.37-6.02,3.55-9.5,3.55-3.65,.06-6.74-1.13-9.29-3.58s-3.78-5.4-3.72-8.86c-.06-3.42,1.14-6.37,3.6-8.83,2.46-2.46,5.41-3.66,8.83-3.6,3.26,0,5.94,1.06,8.04,3.17s3.14,4.74,3.14,7.87c0,1.15-.14,2.34-.43,3.55Zm-16.66-4.56h10.8c-.03-1.44-.54-2.6-1.51-3.48-.98-.88-2.18-1.32-3.62-1.32s-2.58,.43-3.6,1.3c-1.02,.86-1.71,2.03-2.06,3.5Z"/>
        <path class="cls-1" d="M397.42,123.48v-36h6.48v36h-6.48Z"/>
        <path class="cls-1" d="M417.92,96.41v3.31h5.23v5.47h-5.23v18.29h-6.48v-18.29h-3.36v-5.47h3.36v-3.89c0-2.94,.8-5.17,2.4-6.67,1.6-1.5,3.86-2.26,6.77-2.26,1.22,0,2.4,.18,3.55,.53v5.42c-.7-.1-1.34-.14-1.92-.14-1.5,0-2.6,.29-3.29,.86-.69,.58-1.03,1.52-1.03,2.83Z"/>
        <path class="cls-1" d="M446.67,109.37v14.11h-5.95v-2.3c-1.86,1.92-4.27,2.88-7.25,2.88-2.5,0-4.49-.66-5.98-1.97s-2.23-3.02-2.23-5.14,.81-3.83,2.42-5.06c1.62-1.23,3.8-1.85,6.55-1.85h5.95v-1.06c0-1.34-.38-2.38-1.13-3.1-.75-.72-1.85-1.08-3.29-1.08-1.18,0-2.26,.26-3.22,.77-.96,.51-1.99,1.34-3.07,2.5l-3.36-3.98c2.75-3.26,6.21-4.9,10.37-4.9,3.14,0,5.62,.89,7.44,2.66,1.82,1.78,2.74,4.28,2.74,7.51Zm-6.48,5.23v-.29h-5.09c-2.21,0-3.31,.8-3.31,2.4,0,.8,.31,1.43,.94,1.9s1.45,.7,2.47,.7c1.44,0,2.63-.44,3.58-1.32,.94-.88,1.42-2.01,1.42-3.38Z"/>
        <path class="cls-1" d="M467.5,99.72v5.71h-1.73c-1.98,0-3.54,.53-4.68,1.58-1.14,1.06-1.7,2.59-1.7,4.61v11.86h-6.48v-23.76h5.95v2.83c1.66-2.08,3.84-3.12,6.53-3.12,.8,0,1.5,.1,2.11,.29Z"/>
        <path class="cls-1" d="M493.37,102.72c2.18,2.35,3.26,5.32,3.26,8.9s-1.09,6.55-3.26,8.9c-2.18,2.35-4.93,3.53-8.26,3.53s-5.9-1.17-7.63-3.5v2.93h-5.95v-36h6.48v14.54c1.73-1.89,4.1-2.83,7.1-2.83,3.33,0,6.08,1.18,8.26,3.53Zm-3.31,8.86c0-1.92-.58-3.49-1.75-4.7-1.17-1.22-2.63-1.82-4.39-1.82s-3.16,.58-4.3,1.75-1.7,2.78-1.7,4.82,.57,3.65,1.7,4.8c1.14,1.15,2.57,1.73,4.3,1.73s3.26-.61,4.42-1.82c1.15-1.22,1.73-2.8,1.73-4.75Z"/>
        <path class="cls-1" d="M523.57,113.79h-16.66c.38,1.5,1.16,2.66,2.33,3.48,1.17,.82,2.62,1.22,4.34,1.22,2.33,0,4.54-.8,6.62-2.4l2.69,4.42c-2.85,2.37-6.02,3.55-9.5,3.55-3.65,.06-6.74-1.13-9.29-3.58s-3.78-5.4-3.72-8.86c-.06-3.42,1.14-6.37,3.6-8.83,2.46-2.46,5.41-3.66,8.83-3.6,3.26,0,5.94,1.06,8.04,3.17s3.14,4.74,3.14,7.87c0,1.15-.14,2.34-.43,3.55Zm-16.66-4.56h10.8c-.03-1.44-.54-2.6-1.51-3.48-.98-.88-2.18-1.32-3.62-1.32s-2.58,.43-3.6,1.3c-1.02,.86-1.71,2.03-2.06,3.5Z"/>
        <path class="cls-1" d="M550.88,108.75v14.74h-6.43v-13.87c0-1.38-.41-2.49-1.22-3.34-.82-.85-1.88-1.27-3.19-1.27s-2.39,.42-3.24,1.27c-.85,.85-1.27,1.96-1.27,3.34v13.87h-6.48v-23.76h5.95v2.16c1.79-1.79,4.11-2.69,6.96-2.69s4.93,.86,6.53,2.59c1.6,1.73,2.4,4.05,2.4,6.96Z"/>
      </g>
    </g>
  </g>
</svg>