<?xml version="1.0" encoding="UTF-8"?>
<svg id="Ebene_2" data-name="Ebene 2" xmlns="http://www.w3.org/2000/svg" viewBox="0 0 1748 1748">
  <defs>
    <style>
      .cls-1 {
        fill: #fff;
      }

      .cls-2 {
        fill: #7ebf86;
      }

      .cls-3 {
        fill: #e8f8ff;
      }

      .cls-4 {
        fill: #ebad60;
      }

      .cls-5 {
        fill: #b4dced;
      }

      .cls-6 {
        opacity: .2;
      }

      .cls-7 {
        fill: #685c79;
      }

      .cls-8 {
        fill: #8cb302;
      }

      .cls-9 {
        fill: #b4d7aa;
      }

      .cls-10 {
        fill: #7abaf2;
      }

      .cls-11 {
        fill: #f5cf66;
      }

      .cls-12 {
        fill: #e27a3f;
      }

      .cls-13 {
        fill: #1d52f2;
      }

      .cls-13, .cls-14 {
        opacity: .25;
      }

      .cls-15 {
        fill: #ff6b35;
      }

      .cls-16 {
        fill: #c6e070;
      }
    </style>
  </defs>
  <g id="Artwork">
    <g>
      <circle class="cls-15" cx="874" cy="874" r="874"/>
      <path class="cls-7" d="M432.5,441h845c27.6,0,50,22.4,50,50v695H382.5V491c0-27.6,22.4-50,50-50Z"/>
      <rect class="cls-1" x="532.5" y="391" width="645" height="845" rx="20" ry="20" transform="translate(1668.5 -41.5) rotate(90)"/>
      <path class="cls-1" d="M270,1186H1478v36c0,16.56-13.44,30-30,30H300c-16.56,0-30-13.44-30-30v-36h0Z"/>
      <path class="cls-9" d="M1277,506.6c-2-8.93-9.97-15.6-19.5-15.6H452.5c-11.05,0-20,8.95-20,20v58h844.5v-62.4Z"/>
      <rect class="cls-2" x="432" y="569" width="845" height="14"/>
      <rect class="cls-5" x="480" y="638" width="425" height="413" rx="30" ry="30"/>
      <rect class="cls-5" x="943" y="638" width="274" height="274" rx="30" ry="30"/>
      <path class="cls-5" d="M1206.5,961h-253c-5.77,0-10.5-4.73-10.5-10.5h0c0-5.77,4.73-10.5,10.5-10.5h253c5.77,0,10.5,4.73,10.5,10.5h0c0,5.77-4.73,10.5-10.5,10.5Z"/>
      <path class="cls-5" d="M1206.5,1001h-253c-5.77,0-10.5-4.73-10.5-10.5h0c0-5.77,4.73-10.5,10.5-10.5h253c5.77,0,10.5,4.73,10.5,10.5h0c0,5.77-4.73,10.5-10.5,10.5Z"/>
      <path class="cls-5" d="M1069.5,1041h-116c-5.8,0-10.5-4.7-10.5-10.5h0c0-5.8,4.7-10.5,10.5-10.5h116c5.8,0,10.5,4.7,10.5,10.5h0c0,5.8-4.7,10.5-10.5,10.5Z"/>
      <circle class="cls-1" cx="1237" cy="530" r="9"/>
      <circle class="cls-1" cx="1197" cy="530" r="9"/>
      <circle class="cls-1" cx="1167" cy="530" r="9"/>
      <g class="cls-14">
        <polygon class="cls-1" points="480 880.06 592.88 638 545.43 638 480 778.31 480 880.06"/>
        <polygon class="cls-1" points="622.93 1051 815.51 638 710.25 638 517.67 1051 622.93 1051"/>
      </g>
      <path class="cls-10" d="M875,638H510c-16.5,0-30,13.5-30,30v10c0-16.5,13.5-30,30-30h365c16.5,0,30,13.5,30,30v-10c0-16.5-13.5-30-30-30Z"/>
      <g class="cls-14">
        <polygon class="cls-1" points="1012.95 912 1140.72 638 1109.83 638 982.06 912 1012.95 912"/>
        <polygon class="cls-1" points="943 874.13 1053.11 638 979.47 638 943 716.22 943 874.13"/>
      </g>
      <path class="cls-10" d="M1187,638h-214c-16.5,0-30,13.5-30,30v10c0-16.5,13.5-30,30-30h214c16.5,0,30,13.5,30,30v-10c0-16.5-13.5-30-30-30Z"/>
      <path class="cls-3" d="M949,1219h-176c-18.23,0-33-14.77-33-33h242c0,18.23-14.77,33-33,33Z"/>
      <g>
        <path class="cls-11" d="M1516.05,1060.05h0c9.37-9.37,9.37-24.57,0-33.94l-89.8-89.8-33.94,33.94,89.8,89.8c9.37,9.37,24.57,9.37,33.94,0Z"/>
        <rect class="cls-4" x="1410.74" y="966.74" width="48" height="24" transform="translate(-271.85 1301.18) rotate(-45)"/>
        <path class="cls-11" d="M1426.96,681.04c-80.06-80.06-209.86-80.06-289.91,0-80.06,80.06-80.06,209.86,0,289.91,80.06,80.06,209.86,80.06,289.91,0s80.06-209.86,0-289.91Zm-35.43,254.48c-60.49,60.49-158.56,60.49-219.05,0-60.49-60.49-60.49-158.56,0-219.05,60.49-60.49,158.56-60.49,219.05,0,60.49,60.49,60.49,158.56,0,219.05Z"/>
        <circle class="cls-13" cx="1282" cy="826" r="155"/>
        <g class="cls-6">
          <path class="cls-1" d="M1221.9,780.9c-3.84,0-7.68-1.46-10.61-4.39-5.86-5.86-5.86-15.36,0-21.21,25.16-25.16,62.17-35.09,96.59-25.9,8,2.14,12.76,10.36,10.62,18.36-2.14,8-10.36,12.76-18.36,10.62-24.1-6.44-50.02,.51-67.64,18.13-2.93,2.93-6.77,4.39-10.61,4.39Z"/>
        </g>
      </g>
      <path class="cls-9" d="M1472.6,534.69h-4.69c-1.16-3.57-2.72-6.96-4.63-10.13l2.63-2.63c1.33-1.33,1.33-3.48,0-4.81l-14.43-14.43c-1.33-1.33-3.48-1.33-4.81,0l-3.32,3.32c-3.28-1.67-6.78-2.98-10.43-3.89v-3.72c0-1.88-1.52-3.4-3.4-3.4h-20.41c-1.88,0-3.4,1.52-3.4,3.4v4.69c-3.57,1.16-6.96,2.72-10.13,4.63l-2.63-2.63c-1.33-1.33-3.48-1.33-4.81,0l-14.43,14.43c-1.33,1.33-1.33,3.48,0,4.81l3.32,3.32c-1.67,3.28-2.98,6.78-3.89,10.43h-3.72c-1.88,0-3.4,1.52-3.4,3.4v20.41c0,1.88,1.52,3.4,3.4,3.4h4.69c1.16,3.57,2.72,6.96,4.63,10.13l-2.63,2.63c-1.33,1.33-1.33,3.48,0,4.81l14.43,14.43c1.33,1.33,3.48,1.33,4.81,0l3.32-3.32c3.28,1.67,6.78,2.98,10.43,3.89v3.72c0,1.88,1.52,3.4,3.4,3.4h20.41c1.88,0,3.4-1.52,3.4-3.4v-4.69c3.57-1.16,6.96-2.72,10.13-4.63l2.63,2.63c1.33,1.33,3.48,1.33,4.81,0l14.43-14.43c1.33-1.33,1.33-3.48,0-4.81l-3.32-3.32c1.67-3.28,2.98-6.78,3.89-10.43h3.72c1.88,0,3.4-1.52,3.4-3.4v-20.41c0-1.88-1.52-3.4-3.4-3.4Zm-51.6,49.33c-18.79,0-34.02-15.23-34.02-34.02s15.23-34.02,34.02-34.02,34.02,15.23,34.02,34.02-15.23,34.02-34.02,34.02Z"/>
      <g>
        <path class="cls-1" d="M791,713h-40c0,33.69-27.31,61-61,61s-61-27.31-61-61h-99v77h59v195h202v-195h59v-77h-59Z"/>
        <path class="cls-3" d="M791,985v-195h59v-77h-99c0,33.69-27.31,61-61,61v211h101Z"/>
      </g>
      <g>
        <rect class="cls-16" x="186" y="834" width="353" height="270" rx="20" ry="20"/>
        <rect class="cls-1" x="186" y="907" width="353" height="34"/>
        <rect class="cls-8" x="186" y="941" width="353" height="9"/>
        <g>
          <path class="cls-1" d="M496,1002h-30c-2.76,0-5-2.24-5-5h0c0-2.76,2.24-5,5-5h30c2.76,0,5,2.24,5,5h0c0,2.76-2.24,5-5,5Z"/>
          <path class="cls-1" d="M416,1002h-30c-2.76,0-5-2.24-5-5h0c0-2.76,2.24-5,5-5h30c2.76,0,5,2.24,5,5h0c0,2.76-2.24,5-5,5Z"/>
          <path class="cls-1" d="M336,1002h-30c-2.76,0-5-2.24-5-5h0c0-2.76,2.24-5,5-5h30c2.76,0,5,2.24,5,5h0c0,2.76-2.24,5-5,5Z"/>
          <path class="cls-1" d="M256,1002h-30c-2.76,0-5-2.24-5-5h0c0-2.76,2.24-5,5-5h30c2.76,0,5,2.24,5,5h0c0,2.76-2.24,5-5,5Z"/>
        </g>
      </g>
      <g>
        <path class="cls-1" d="M236,550c-59.65,0-108,48.35-108,108s48.35,108,108,108,108-48.35,108-108-48.35-108-108-108Zm0,177c-38.11,0-69-30.89-69-69s30.89-69,69-69,69,30.89,69,69-30.89,69-69,69Z"/>
        <path class="cls-16" d="M236,550v39c38.11,0,69,30.89,69,69h39c0-59.65-48.35-108-108-108Z"/>
        <path class="cls-12" d="M305,658c0,38.11-30.89,69-69,69-19.05,0-36.3-7.72-48.79-20.21l-27.58,27.58c19.54,19.54,46.54,31.63,76.37,31.63,59.65,0,108-48.35,108-108h-39Z"/>
      </g>
      <g>
        <circle class="cls-1" cx="1566" cy="671" r="69"/>
        <path class="cls-16" d="M1566,602v69h69c0-38.11-30.89-69-69-69Z"/>
        <path class="cls-12" d="M1635,671h-69l-48.79,48.79c12.49,12.49,29.74,20.21,48.79,20.21,38.11,0,69-30.89,69-69Z"/>
      </g>
    </g>
  </g>
</svg>