<?xml version="1.0" encoding="UTF-8"?>
<svg id="Ebene_2" data-name="Ebene 2" xmlns="http://www.w3.org/2000/svg" viewBox="0 0 100 100">
  <defs>
    <style>
      .cls-1 {
        stroke: #ff6b35;
        stroke-linecap: round;
        stroke-linejoin: round;
      }

      .cls-1, .cls-2 {
        fill: #ff6b35;
      }
    </style>
  </defs>
  <g id="Ebene_1-2" data-name="Ebene 1">
    <g>
      <g>
        <path class="cls-2" d="M0,72.38c.97-5.26,1.87-10.51,5.12-15.13,2.25-3.2,4.54-6.27,7.83-8.59,1.98-1.4,4.33-2.14,6.29-3.53,4.29-3.03,9.04-5.55,12.23-9.84,1.46-1.96,2.7-3.93,3.41-6.36,.4-1.35,.76-2.66,.97-4.07,.17-1.14-1.33-2.67,.81-3.44,.32-.12-.16-.54-.33-.82-3.04-4.84-6.07-9.67-10.59-13.44-.43-.36-.73-.8-.89-1.35-.21-.72-1.42-1.48-.63-2.05,.71-.52,1.81-.92,2.96-.7,2.7,.52,5.36,1.41,7.58,2.81,3.1,1.95,5.5,.83,8.04-.67,3.56-2.11,7.21-2.33,10.95-.55,1.92,.92,3.72,1.26,5.7,.03,3.98-2.48,8.77-2.89,13.08-4.56,.97-.38,1.71,.14,2.24,.73,.71,.79-.29,1.19-.73,1.59-4.21,3.9-8.21,7.99-11.61,12.58-.73,.99-1.54,1.94-1.67,3.22-.04,.37-.41,.82,.13,1.07,1.23,.57,1.14,1.64,1.03,2.64-.41,3.6,1.9,6.05,3.97,8.52,2.55,3.04,6.06,5.03,9.42,7.11,5.38,3.32,10.68,6.75,14.91,11.42,2.83,3.13,4.78,6.76,5.95,10.77,1.6,5.49,2.44,11.1,2.91,16.77,.09,1.05,1.1,1.94,.86,3.17-.67,3.41-1.12,6.85-3.38,9.79-1.35,1.76-3.34,2.23-5.21,2.6-3.19,.64-6.52,.62-9.74,1.18-5.61,.97-11.29,1.39-16.9,2.42-3.38,.62-6.85,1.09-10.31,1.41-4.59,.42-9.17,.92-13.76,1.43-2.87,.32-5.77,.13-8.62,.7-4.16,.84-8.4,.82-12.61,.66-3.69-.14-7.35-.69-10.5-2.74-2.22-1.45-3.42-3.7-4.44-6-1.86-4.21-1.72-8.93-3.53-13.14-.8-1.86-.9-3.69-.97-5.65Zm37.88,23.8c5.13-.76,10.32-.88,15.48-1.49,6.13-.72,12.23-1.56,18.33-2.45,5.9-.86,11.79-1.61,17.73-2.12,2.31-.2,4.64-.78,5.9-3.02,1.31-2.33,1.76-4.96,1.56-7.47-.33-4.15-.77-8.31-1.41-12.45-.98-6.39-3.18-12.15-7.65-17.05-3.72-4.07-8.47-6.91-13.02-9.95-4.91-3.28-10.29-5.98-13.17-11.41-.51-.96-1.56-.74-2.46-.77-7.05-.26-14.04,.66-21.06,1.03-1.1,.06-1.18,.72-1.45,1.4-1.33,3.32-3.11,6.42-5.84,8.85-3.1,2.75-6.62,5.02-9.99,7.45-1.83,1.32-4.07,1.72-5.92,3.03-3.79,2.68-6.62,6.12-8.84,9.96-2.83,4.92-4.5,10.24-3.24,15.96,.94,4.29,2,8.56,3.3,12.76,1.94,6.25,5.23,8.62,12.4,8.82,6.48,.18,12.92-.35,19.35-1.09ZM68.75,3.79c-2.63,.6-5.14,1.22-7.4,2.53-2.26,1.31-4.73,2.07-7.24,1.01-4.35-1.85-8.42-1.84-12.37,.92-2.09,1.46-4.29,1.39-6.57,.28-2.09-1.02-4.25-1.88-6.38-2.81,3.8,4.37,7.03,8.94,9.68,13.89,.53,1,1.3,1.24,2.39,1.26,5.38,.12,10.58-1.29,15.89-1.74,.93-.08,1.14-.84,1.43-1.57,.69-1.77,1.69-3.33,2.87-4.89,2.37-3.12,5.24-5.81,7.69-8.89Zm-15.59,21.95c1.55,0,3.1,0,4.64,0,.69,0,1.52,.21,1.83-.61,.37-.96-.05-2.44-.57-2.59-1.13-.32-2.1-1.34-3.5-.89-3.56,1.15-7.25,1.42-10.99,1.46-1.67,.02-3.35,.31-5.01,.55-1.19,.17-1.01,1.13-.99,1.92,.02,.84,.44,1.18,1.37,1.04,4.38-.65,8.8-.79,13.22-.88Z"/>
        <path class="cls-2" d="M42.56,61.84c-.2,1.9,.89,2.99,2.6,3.46,2.5,.68,5.05,1.18,7.58,1.75,3.41,.77,6.57,2.04,9.11,4.43,3.04,2.87,2.58,7.33-1.04,9.55-1.59,.98-3.33,1.82-5.12,2.38-1.31,.42-1.76,.83-1.27,2.12,.43,1.12,.32,2.27-.31,3.34-.3,.51-.7,.88-1.35,.74-.62-.14-.9-.57-.98-1.18-.16-1.19,.43-2.56-.43-3.56-.97-1.12-2.41,.13-3.6-.33-1.51-.58-3.2-.45-4.69-1.14-.71-.33-1.41-.64-1.82-1.32-.29-.48-.52-1-.1-1.51,.41-.5,1.01-.55,1.53-.26,3.31,1.88,6.8,1.83,10.42,1.06,2.39-.51,4.58-1.42,6.43-2.89,2.22-1.77,1.86-4.3-.67-5.92-3.23-2.06-6.86-3.13-10.63-3.75-1.33-.22-2.6-.58-3.87-.97-2.37-.74-4.22-1.99-4.59-4.52-.41-2.81,.43-5.22,2.87-6.99,.11-.08,.22-.19,.35-.23,3.37-1.12,5.21-2.92,3.47-6.59-.34-.73,.06-1.73,1.12-1.83,.98-.09,1.24,.69,1.32,1.5,.06,.61,.18,1.21,.25,1.81,.21,1.81,.71,3.33,3.15,2.95,.25-.04,.56,.1,.8,.22,.76,.38,1.67,.82,1.34,1.79-.32,.94-1.33,.69-2.02,.47-2.95-.92-5.4,.21-7.71,1.71-1.31,.85-2.34,1.99-2.12,3.71Z"/>
      </g>
      <g>
        <path class="cls-1" d="M84.57,32.42c1.81-.28,4-.43,6.47-.21,.91,.08,1.77,.21,2.57,.36-2.42,1.86-4.84,3.72-7.25,5.57-1.4,.42-3.21,.81-5.33,.93-1.42,.08-2.7,0-3.8-.12,2.45-2.18,4.9-4.35,7.34-6.53h0Z"/>
        <path class="cls-1" d="M73.54,30.9c.3-1.45,.8-3.15,1.67-4.96,.32-.67,.66-1.28,1-1.84,.72,2.36,1.45,4.71,2.17,7.07-.08,1.18-.29,2.66-.81,4.3-.35,1.1-.76,2.05-1.16,2.84-.96-2.47-1.91-4.94-2.87-7.4h0Z"/>
      </g>
    </g>
  </g>
</svg>