<?xml version="1.0" encoding="UTF-8"?>
<svg id="Ebene_2" data-name="Ebene 2" xmlns="http://www.w3.org/2000/svg" viewBox="0 0 100 100.5">
  <defs>
    <style>
      .cls-1 {
        stroke: #ff6b35;
        stroke-linecap: round;
        stroke-linejoin: round;
      }

      .cls-1, .cls-2 {
        fill: #ff6b35;
      }
    </style>
  </defs>
  <g id="Ebene_1-2" data-name="Ebene 1">
    <g>
      <g>
        <path class="cls-2" d="M47.18,100.5c-8.95-.52-17.97-.48-26.82-2.18-3.14-.6-5.32-2.54-6.28-5.75-.93-3.14-1.95-6.19-1.61-9.58,.36-3.59,1.89-6.05,5.31-7.56,10.69-4.72,22.01-6.29,33.55-6.3,7.7,0,15.37-.59,23.06-.82,7.45-.22,18.06,6.94,20.04,14.46,.83,3.17,.6,6.37-.3,9.47-.6,2.07-2.44,2.83-4.49,3.23-9.56,1.9-19.24,2.9-28.91,4.05-4.51,.54-9,.96-13.55,.97Zm-5.27-28.38c-5.53-.08-10.64,1.73-15.62,4.46-3.75,2.06-6.92,4.2-8.36,8.48-1.35,4.02,.3,7.98,4.36,9.23,1.07,.33,2.28,.47,3.12,1.26,1.39,1.3,2.67,1.13,4.31,.34,2.7-1.3,5.29-2.5,8.68-1.28,2.61,.94,5.59,2.11,8.59,.76,4.55-2.04,9.45-2.33,14.32-2.59,5.42-.29,10.87,.35,16.3-.42,1.32-.19,2.72-.28,4.04,.18,3.68,1.3,7.01-.22,8.4-3.86,1.2-3.15-.24-8.13-3.39-10.16-5.39-3.47-10.96-6.69-17.86-5.91-1.04,.12-2.17,.2-3.09-.44-1.22-.85-2.47-.76-3.88-.62-2.18,.22-4.49,1.08-6.47-.76-.41-.38-1-.37-1.46,.03-.45,.39-.39,.88-.31,1.43,.55,3.89,1.06,7.78,1.56,11.68,.15,1.21-.76,1.83-1.68,2.08-1.12,.3-1.38-.7-1.46-1.52-.37-3.77-1.35-7.49-1.24-11.3,.05-1.64-.57-2.12-2.15-1.89-2.16,.32-4.28,.98-6.7,.81Z"/>
        <path class="cls-2" d="M52.46,61.36c-5.2,.08-9.24-2.39-12.68-6.06-1.34-1.43-2.41-2.93-4.52-3.68-2.93-1.05-3.49-4.91-1.28-6.96,.73-.67,.77-1.31,.73-2.16-.12-2.58-.14-5.17,.38-7.71,.85-4.13,3.72-6.52,7.92-7.24,4.43-.76,8.89-.97,13.35-1.28,2.88-.2,5.73,1.96,7.31,5.7,.72,1.7,1.45,3.4,1.69,5.27,.27,2.11,.54,4.09,2.72,5.46,1.43,.9,.47,5.04-1.41,6.22-.71,.45-.92,.89-.98,1.51-.52,5.16-3.91,7.97-8.41,9.73-1.5,.59-2.98,1.53-4.82,1.2Zm2-31.56c-3.96,.37-7.76,.28-11.45,1.24-1.64,.43-3.38,1.03-4,2.63-1.25,3.21-2.09,6.57-.76,10,.5,1.29,.11,2.11-.97,2.84-1.52,1.04-1.54,2.1,.15,2.56,2.17,.58,3.38,2.1,4.77,3.54,1.52,1.57,3.21,2.95,5.12,4.03,4.97,2.81,12.78,.36,14.61-4.65,.52-1.41,1.05-2.76,1.84-4.05,.81-1.32,1.99-2.72-.31-3.94-.61-.32-.77-1.23-.89-1.99-.29-1.76-.64-3.51-.98-5.27-.94-4.85-3.3-7.07-7.14-6.95Z"/>
        <path class="cls-2" d="M.28,67.46c-.32-2.95,1.26-4.99,2.85-6.95,1.77-2.17,5.01-2.74,7.62-1.56,2.34,1.06,4,4.05,3.67,6.61-.48,3.77-2.46,6.15-5.72,6.77-2.17,.41-3.9-.59-5.6-1.74-.76-.52-.98-1.6-2.6-1.22-1.25,.29,.27-1.4-.22-1.91Zm7.29,1.26c2.72-.13,3.9-1.13,3.81-3.19-.12-2.66-1.66-4.33-3.91-4.24-1.87,.08-3.93,2.04-3.88,3.68,.08,2.34,1.7,3.86,3.98,3.75Z"/>
        <path class="cls-2" d="M12.69,25.32c3.55,.16,6.1,2.41,6.56,5.79,.32,2.36-2.27,5.9-4.96,6.77-2.71,.87-8.23-1.91-8.91-4.59-.21-.83-.59-2.06,1.02-2.17,.98-.07,.7-.8,.76-1.32,.45-3.64,1.68-4.65,5.53-4.47Zm-.34,2.97c-1.87-.05-3.38,1.62-3.5,3.88-.07,1.21,1.89,2.48,3.92,2.55,1.53,.05,3.23-1.5,3.32-3.03,.1-1.74-1.66-3.34-3.73-3.4Z"/>
        <path class="cls-2" d="M89.37,33.3c-1.37-.01-2.48-.64-3.16-1.78-1.52-2.59-1.96-5.37-1.04-8.26,.59-1.86,3.22-3.58,5.46-3.19,5.05,.9,7.8,4.34,4.92,9.05-1.36,2.23-3.04,4.31-6.18,4.17Zm3.83-7.26c-.03-1.56-1.57-2.93-3.18-2.83-1.43,.08-3.14,2-3.05,3.42,.07,1.2,1.98,3.25,2.99,3.22,1.48-.04,3.27-2.15,3.24-3.81Z"/>
        <path class="cls-2" d="M93.38,53.74c3.42-.04,6.63,2.93,6.62,6.12-.01,3-3.21,6.82-5.69,6.79-2.88-.03-6.61-3.64-6.42-6.53,.32-4.81,1.95-6.31,5.49-6.38Zm.15,3.11c-1.49-.03-3.06,1.36-3.08,2.72-.01,1.19,2.42,3.92,3.51,3.94,1.38,.02,2.99-2,2.97-3.73-.02-1.55-1.58-2.89-3.41-2.93Z"/>
        <path class="cls-2" d="M27.51,38.11c-.09,.83-.1,1.78-1.13,1.64-1.24-.18-2.38-.9-2.41-2.23-.02-.86,.76-1.45,1.89-1.43,1.58,.03,1.5,1.12,1.65,2.02Z"/>
        <path class="cls-2" d="M76.52,17.7c-.35,.92-.24,2.23-1.66,2.29-1.52,.07-1.81-1.34-1.89-2.29-.11-1.28,1.28-1.22,2.17-1.34,.85-.11,1.37,.43,1.38,1.33Z"/>
        <path class="cls-2" d="M78.25,55.71c-.77,.67-.74,2.29-1.99,2.27-1.11-.02-1.63-1.11-1.64-2.28,0-1.52,1.23-1.26,2.09-1.35,.78-.08,1.42,.37,1.54,1.36Z"/>
        <path class="cls-2" d="M77.03,33.63c-.24,1.02-.68,2.14-1.71,2.33-.98,.18-1.94-.66-1.96-1.73-.02-1.02,.71-1.7,1.86-1.78,.92-.07,1.65,.08,1.81,1.18Z"/>
        <path class="cls-2" d="M50.31,20.65c-.6,.43,.21,1.88-1.37,1.9-1.53,.02-1.94-1-2.06-2.14-.08-.72,.55-1.39,1.24-1.16,.76,.25,2.21-.39,2.18,1.4Z"/>
        <path class="cls-2" d="M95,41.29c-.5,.62,.03,1.98-1.18,2.06-1.32,.09-1.94-1-2.19-2.1-.21-.96,.52-1.22,1.38-1.23,.94-.01,1.81,.03,1.99,1.27Z"/>
        <path class="cls-2" d="M96.01,48.21c-.38,.95-.89,1.95-1.94,1.97-1.22,.03-1.52-1.13-1.57-2.1-.06-1.14,.94-1.24,1.77-1.21,.84,.03,1.64,.28,1.74,1.34Z"/>
        <path class="cls-2" d="M67.71,12.53c-.18,1.02-.82,1.87-1.8,1.86-1,0-1.4-1.01-1.39-1.96,0-.94,.69-1.62,1.51-1.52,.72,.09,1.94,.23,1.68,1.62Z"/>
        <path class="cls-2" d="M11.17,45.62c.19,1-.05,2.1-1.12,1.93-1.18-.18-1.41-1.49-1.5-2.6-.09-1.12,.74-1.12,1.48-1.1,1.25,.03,1.45,.78,1.14,1.78Z"/>
        <path class="cls-2" d="M26.41,58.8c-.62,.73-.61,2.11-1.84,2.04-1.06-.06-1.84-.99-1.79-1.99,.07-1.24,1.3-.91,2.12-.96,.66-.04,1.35,.06,1.51,.91Z"/>
        <path class="cls-2" d="M23.43,22.13c-.99-.44-1.47-.91-1.48-1.77,0-1.34,.98-1.54,1.96-1.61,.7-.05,1.7,.43,1.33,1.03-.51,.81-1.4,1.47-1.81,2.36Z"/>
        <path class="cls-2" d="M34.8,15.45c-.73,.55-1.49,1.55-2.39,1.69-.87,.13-.97-1.06-.98-1.88-.02-1.32,1.12-1.26,1.9-1.36,.81-.1,1.35,.49,1.47,1.55Z"/>
        <path class="cls-2" d="M12.36,53.44c-.41,.82-.41,2.1-1.75,1.92-.91-.12-1.27-.97-1.26-1.84,.01-1.13,.86-1.23,1.72-1.16,.66,.05,1.41,.09,1.29,1.08Z"/>
        <path class="cls-2" d="M50.17,51.63c-.57-.12-1.03-.17-1.44-.31-1.23-.42-2.33-1.29-1.92-2.53,.42-1.3,1.78-1.05,2.87-.53,.97,.46,2,.56,3.03,.7,.54,.07,1.03,.31,1.09,.93,.07,.65-.41,.91-.93,1.05-.93,.26-1.87,.49-2.7,.7Z"/>
        <path class="cls-2" d="M57.31,39.17c-.15,1.09-.42,2.27-1.89,2.26-1.28,0-1.81-.99-1.91-2.11-.12-1.44,.96-1.69,2.07-1.8,1.16-.12,1.64,.52,1.73,1.65Z"/>
        <path class="cls-2" d="M47.89,40.41c-.13,1.23-.77,1.88-1.92,1.81-1.12-.07-1.78-.79-1.76-1.9,.02-1.15,.76-1.73,1.89-1.71,1.24,.02,1.57,.91,1.79,1.81Z"/>
      </g>
      <g>
        <path class="cls-1" d="M50.75,5.95c1.25-1.33,2.89-2.8,4.97-4.15,.77-.5,1.53-.93,2.25-1.3-.76,2.94-1.51,5.89-2.27,8.83-.85,1.19-2.03,2.61-3.63,4.01-1.08,.94-2.13,1.67-3.07,2.25,.58-3.21,1.16-6.42,1.74-9.64h0Z"/>
        <path class="cls-1" d="M41.11,11.55c-.66-1.32-1.32-2.96-1.76-4.91-.16-.72-.28-1.41-.36-2.06,2.03,1.4,4.06,2.8,6.09,4.2,.67,.97,1.42,2.26,2.03,3.87,.41,1.07,.67,2.07,.85,2.94-2.28-1.34-4.57-2.69-6.85-4.03h0Z"/>
      </g>
    </g>
  </g>
</svg>