<?xml version="1.0" encoding="UTF-8"?>
<svg id="Ebene_2" data-name="Ebene 2" xmlns="http://www.w3.org/2000/svg" viewBox="0 0 100 100">
  <defs>
    <style>
      .cls-1 {
        stroke: #ff6b35;
        stroke-linecap: round;
        stroke-linejoin: round;
      }

      .cls-1, .cls-2 {
        fill: #ff6b35;
      }
    </style>
  </defs>
  <g id="Ebene_1-2" data-name="Ebene 1">
    <g>
      <path class="cls-2" d="M63.52,0c8.37,.26,16.29,2.33,22.77,6.94,6.65,4.73,11.44,10.98,12.67,18.88,.17,1.11,1.05,1.91,1.04,3.16-.04,7.33-3.52,13.48-7.89,19.37-2.8,3.78-6.05,7.28-10.34,9.64-5.91,3.25-12.39,4.65-19.5,3.73-5.49-.71-10.58-2.2-15.45-4.43-1.09-.5-1.44-.11-2.06,.64-6.3,7.55-11.43,15.83-18.48,22.91-3.8,3.81-7.04,8.07-10.59,12.09-2.7,3.06-6.01,5.45-10.13,6.85-2.74,.93-5.2-1.05-5.51-4.23-.41-4.25,1.44-7.93,3.53-11.52,2.35-4.05,5.66-7.49,9.15-10.77,5.13-4.84,9.99-9.91,15.51-14.42,2.59-2.12,5.12-4.29,7.87-6.23,1.35-.95,1.4-1.55,.69-2.9-1.93-3.64-4.73-6.88-5.81-10.91-1.19-4.4-.74-8.67,.04-13.07,1.1-6.24,4.47-11.47,8.98-15.93,4.68-4.63,10.8-7.59,17.67-9.18,1.96-.45,3.87-.59,5.85-.6Zm33.17,28.95c.13-2.95-1.57-7.25-3.83-11.38-3.46-6.35-8.96-10.79-16.55-12.74-5.3-1.36-10.67-1.8-16.37-1.31-10.31,.88-17.18,5.82-21.18,13.65-3.53,6.9-4.05,14.44-2.75,22.17,1.29,7.67,5.61,12.8,13.08,16.14,1.56,.7,3.22,1.25,4.87,1.78,7.37,2.37,14.82,3.28,22.42,.82,5.01-1.62,8.6-4.86,11.82-8.44,4.96-5.51,8.38-11.62,8.49-20.69ZM2.81,94c-.02,3.76,.91,4.25,4.58,2.43,1.19-.59,2.22-1.36,3.24-2.17,4.35-3.44,7.18-7.99,10.95-11.85,7.59-7.75,13.74-16.42,20.01-25.01,.58-.79,1.79-1.65,.28-2.75-1.31-.95-2.47-1.8-4.13-.49-3.16,2.5-6.4,4.92-9.57,7.41-3.29,2.59-5.97,5.71-8.99,8.51-4.61,4.26-9.15,8.53-12.37,13.74-1.96,3.16-4.11,6.32-4.01,10.17Z"/>
      <path class="cls-2" d="M45.77,28.41c1.16-11.08,7.65-17.94,20.59-18.86,.32-.02,.64-.03,.95,.02,1.17,.17,2.87,.26,2.84,1.44-.04,1.53-1.85,.97-2.89,.96-7.04-.08-12.53,2.5-16.16,7.85-1.79,2.63-1.95,5.85-3.01,8.76-.27,.74,.05,2.03-1.37,1.83-1.26-.17-.79-1.36-.96-2.01Z"/>
    </g>
    <g>
      <path class="cls-1" d="M26.34,12.37c-.38-1.79-.65-3.97-.57-6.45,.03-.92,.11-1.78,.22-2.59,1.99,2.31,3.98,4.62,5.96,6.94,.5,1.38,.99,3.16,1.22,5.28,.15,1.42,.16,2.7,.09,3.8-2.31-2.32-4.62-4.65-6.93-6.97h0Z"/>
      <path class="cls-1" d="M25.43,23.47c-1.46-.22-3.19-.63-5.05-1.39-.69-.28-1.32-.59-1.9-.89,2.31-.85,4.63-1.7,6.94-2.55,1.18,.01,2.67,.14,4.34,.57,1.12,.28,2.09,.64,2.9,1-2.41,1.09-4.82,2.18-7.23,3.27h0Z"/>
    </g>
  </g>
</svg>