<?xml version="1.0" encoding="UTF-8"?>
<svg id="Ebene_2" data-name="Ebene 2" xmlns="http://www.w3.org/2000/svg" viewBox="0 0 100 100">
  <defs>
    <style>
      .cls-1 {
        fill: #ff6b35;
      }
    </style>
  </defs>
  <g id="Ebene_1-2" data-name="Ebene 1">
    <g>
      <path class="cls-1" d="M80.73,99.98c-.44,.12-.92-.34-1.45-.63-3.78-2.09-7.23-4.69-10.67-7.34-3.86-2.97-7.9-5.67-11.82-8.56-1.85-1.36-3.07-3.39-4.62-5.07-3.31-3.59-2.26-4.23-6.78-1.22-6.09,4.06-12.34,7.87-18.36,12.04-3.58,2.48-6.89,5.4-10.23,8.23-.6,.51-1.12,1-1.72,.51-.57-.47-1.03-1.02-.77-2.15,.9-3.86,2.42-7.47,3.9-11.07,1.92-4.68,3.85-9.37,6.28-13.8,.74-1.35,1.64-2.6,2.48-3.89,.77-1.17,.68-2.12-.3-3.22-4.17-4.68-8.65-9.13-12.26-14.25-2.86-4.08-6.72-7.21-9.19-11.63-1.05-1.89-3.03-3.19-4.52-4.83-.25-.27-1.01-.48-.6-1.11,.31-.48,.86-.78,1.44-.59,4.09,1.34,8.34,1.25,12.54,1.64,4.56,.43,8.84,2.24,13.28,3.27,1.51,.35,3.03,.9,4.54,.9,2.29,.01,4.45,.4,6.49,1.41,1.1,.54,1.22-.12,1.48-.96,2.42-7.92,4.77-15.86,7.34-23.72,1.29-3.93,2.02-8.05,3.82-11.81C51.63,.95,52.18-.02,53.51,0c1.42,.02,1.27,1.25,1.57,2.29,1.03,3.64,2.4,7.18,3.31,10.84,1.94,7.82,5.09,15.24,6.76,23.14,.73,3.43,1.55,3.95,4.89,3.99,4.75,.05,9.39,1.22,14.13,1.4,3.04,.12,6.06,.74,9.1,.93,1.77,.11,3.5,.27,5.25,.59,.65,.12,1.15,.29,1.48,.88-.9,.28-.31,1.58-1.28,1.92-3.73,1.32-6.83,3.87-10.22,5.87-4.23,2.49-8.48,4.92-13.02,6.77-1.75,.71-3.33,1.88-5.04,2.7-.96,.46-.93,1.04-.6,1.87,.85,2.18,1.9,4.24,3.06,6.24,3.56,6.16,5.47,13.01,7.38,19.84,.81,2.89,1.23,5.89,2.02,8.79,.41,1.5-.22,1.76-1.57,1.9ZM5.77,34.75c-.13,.18-.25,.37-.38,.55,.38,.28,.87,.48,1.13,.85,4.52,6.48,10.16,11.91,15.18,17.91,2.29,2.74,4.76,5.31,7.1,8.01,1.37,1.58,2.19,3.44,.87,5.45-2.32,3.55-4.35,7.28-6.07,11.18-1.74,3.96-3.28,8.01-4.9,12.02-.16,.39-.36,.9-.02,1.21,.49,.44,.85-.12,1.2-.4,1.48-1.14,2.9-2.37,4.41-3.45,6.98-4.98,14.61-8.87,21.3-14.34,2.72-2.23,4.62-2.07,6.73,.76,4.2,5.64,9.66,9.61,15.27,13.43,3.49,2.38,6.55,5.37,10.18,7.53,.4,.24,.82,.7,1.3,.44,.53-.29,.31-.89,.17-1.35-2.04-6.96-3.72-14.05-6.88-20.62-1.81-3.76-4.1-7.26-5.52-11.25-.55-1.54-.25-2.46,1.13-3.09,4-1.81,7.75-4.13,11.83-5.8,4.74-1.94,8.75-5.33,13.13-8.14-4.59-.78-9.13-1.44-13.68-1.87-4.19-.4-8.4-.61-12.56-1.34-1.34-.24-2.14-.94-2.52-2.41-1.09-4.2-2.41-8.33-3.44-12.54-.71-2.93-2.31-5.48-2.91-8.44-.55-2.72-1.26-5.41-2.04-8.07-.68-2.32-1.55-4.58-2.42-7.09-1.01,1.35-1.28,2.62-1.6,3.85-.99,3.86-1.87,7.75-2.89,11.59-1.5,5.64-2.52,11.43-4.47,16.93-.81,2.27-1.56,4.61-3.57,6.12-1.05,.78-2.09,1.1-3.09-.06-.89-1.03-2.09-1.29-3.29-1.54-4.79-.98-9.71-1.41-14.33-3.19-4.65-1.79-9.52-2.1-14.33-2.84Z"/>
      <path class="cls-1" d="M39.3,49.65c1.29,0,2.61-.15,3.88,.03,2.23,.32,3.26-.88,3.88-2.87,.57-1.84,1.2-3.65,1.76-5.49,.39-1.27,1.09-1.94,2.42-1.68,1.24,.24,1.59,1.08,1.64,2.32,.2,4.9,.25,4.81,4.63,6.07,2.2,.63,4.47,.25,6.65,.87,.64,.18,1.46-.04,1.73,.78,.32,.99-.4,1.73-1.05,2.12-1.71,1.01-3.49,1.94-5.32,2.69-1.7,.7-2.03,1.4-1.21,3.33,1.09,2.55,2.73,4.79,3.56,7.46,.65,2.1,.01,2.85-2.05,2.86-2.69,0-4.96-1.04-6.89-2.82-1.79-1.65-3.39-1.66-5.32-.31-1.92,1.34-4.01,2.44-6.02,3.63-.81,.48-1.67,.79-2.43-.06-.69-.77-.37-1.59,.05-2.37,.13-.25,.28-.49,.42-.74,2.46-4.65,2.44-4.87-1.41-8.33-1.5-1.35-3.05-2.63-4.58-3.94-.86-.74-1.41-1.67-1-2.81,.37-1.04,1.38-.7,2.16-.72,1.5-.04,3-.01,4.49-.01v-.02Zm11.2-1.67c-1.29,1.77-1.69,3.49-2.2,5.16-.4,1.3-1.2,1.78-2.3,.82-2.38-2.08-5.05-1.01-7.98-1.34,2.76,3.63,8.03,5.01,5.9,10.92,1.69-.27,2.71-1.28,3.87-1.97,2.43-1.46,4.03-1.25,6.09,.68,.86,.8,1.81,1.5,2.77,2.17,.42,.29,1,.71,1.47,.15,.37-.44-.02-.95-.24-1.37-1.04-2.01-2.13-3.98-3.14-6.01-1.22-2.44-1.02-2.93,1.27-4.14,.66-.35,1.53-.46,1.95-1.38-2.73-.91-6.71,1.78-7.47-3.68Z"/>
    </g>
  </g>
</svg>