<?xml version="1.0" encoding="UTF-8"?>
<svg id="Ebene_2" data-name="Ebene 2" xmlns="http://www.w3.org/2000/svg" viewBox="0 0 100 100.5">
  <defs>
    <style>
      .cls-1 {
        stroke: #ff6b35;
        stroke-linecap: round;
        stroke-linejoin: round;
      }

      .cls-1, .cls-2 {
        fill: #ff6b35;
      }
    </style>
  </defs>
  <g id="Ebene_1-2" data-name="Ebene 1">
    <path class="cls-2" d="M45.91,15.23c7.67-.36,14.4,1.04,20.74,3.56,8.02,3.19,13.97,8.94,17.86,16.67,1.49,2.96,3.24,5.81,3.84,9.16,.56,3.1,1.28,6.17,.64,9.36-.57,2.86-.24,5.79-.63,8.71-.95,7.03-3.47,13.34-7.35,19.21-.58,.88-2.04,1.75-1.29,2.78,.65,.89,1.73-.51,2.66-.57,3.38-.23,6.67-.81,9.84-2.05,.78-.3,1.53,.32,2.09,.87,1.53,1.51,3.09,2.99,4.83,4.26,.72,.53,1.05,1.22,.75,2.05-.3,.83-1.11,.41-1.7,.5-2.46,.37-4.95,.59-7.38,1.1-2.66,.55-2.95,1.41-1.73,3.79,.49,.95,.84,1.96,1.29,2.93,.39,.85,1.01,1.77,.03,2.51-1,.74-2.38,.44-3.23-.04-2.22-1.25-4.04-3.13-6.35-4.27-.71-.35-.96-.91-1.03-1.72-.18-2.13-1.21-4.01-1.94-5.98-.44-1.17-.95-1.1-1.86-.29-5.09,4.59-10.8,8.21-17.55,9.76-7.26,1.66-14.57,1.55-21.9,.05-4.74-.97-9.48-1.79-14.01-3.56-1.78-.69-3.27-1.78-4.76-2.84-7.98-5.72-12.97-13.61-16.04-22.7C-.15,62.9-.34,56.95,.42,51.23c.74-5.57,3.14-10.61,6.57-15.36,6.55-9.06,15.12-14.89,25.6-18.48,2.31-.79,4.68-1.09,6.97-1.8,2.34-.72,4.71-.15,6.34-.35ZM2.77,57.53c-.17,1.89,.25,5.35,.98,8.77,1.27,5.92,4.14,11.19,7.91,15.79,4.24,5.17,9.25,9.76,16.14,11.24,7.9,1.7,15.73,3.28,24.04,2.53,8.51-.77,15.32-4.41,21.82-9.28,1.05-.79,1.21-1.52-.15-2.21-1.28-.66-2.57-1.32-3.73-2.16-1.65-1.19-2.63-.89-4.12,.57-4.21,4.1-9.1,7.51-15.12,8.04-9.36,.83-18.34-.59-26.45-5.86-6.6-4.29-11.17-10.03-13.38-17.5-1.56-5.27-.94-10.5,.59-15.78,1.81-6.22,5.01-11.55,9.7-15.89,9.15-8.45,20.11-9.76,31.78-6.94,4.59,1.11,8.86,3.16,12.67,6.11,7.93,6.15,12.44,14.07,12.07,24.1-.25,6.68-3.32,12.63-6.87,18.23-.76,1.19-.88,1.81,.37,2.52,1.5,.85,2.97,1.75,4.46,2.62,1.12,.66,2.04,.55,2.73-.64,1.99-3.39,4.25-6.63,5.52-10.4,1.46-4.35,2.23-8.82,2.62-13.39,.41-4.84,.91-9.6-.79-14.34-3.33-9.33-8.52-17.07-17.67-21.78-8.72-4.49-18.02-5.28-27.47-3.96-7,.98-13.73,3.22-19.57,7.43C10.37,32.93,2.48,42.03,2.77,57.53Zm41.97,30.83c8.9,.61,14.23-3.08,19.43-7.67,.87-.77,1.08-1.4-.12-2.14-1.71-1.05-3.33-2.25-4.97-3.41-1.06-.75-1.96-.65-2.89,.24-1.53,1.49-3.48,2.19-5.46,2.92-6.18,2.28-12.41,1.91-18.39-.29-3.99-1.47-7.74-3.66-10.05-7.64-1.87-3.21-2.49-6.59-2.61-10.22-.23-7.45,2.57-13.46,8.98-17.3,8.15-4.88,16.84-4.74,25.4-1.07,6.8,2.91,9.45,8.74,10.22,15.68,.55,4.99-.83,9.45-3.5,13.6-.66,1.03-.69,1.78,.49,2.47,1.55,.9,3.07,1.88,4.55,2.89,1.02,.7,1.81,.69,2.55-.37,3.68-5.26,6.15-11.01,6.57-17.41,.5-7.51-3.28-13.42-7.91-18.86-1.28-1.5-2.42-3.23-4.27-4.2-4.77-2.5-9.53-4.74-15.09-5.38-9.4-1.07-17.92,.64-24.76,7.24-7.78,7.5-11.53,16.7-9.89,27.65,.93,6.19,4.29,11.05,8.93,14.95,6.91,5.81,15.12,8.4,22.79,8.32Zm-2.64-46.68c-2.31-.31-4.67,.24-7.04,.92-3.69,1.07-6.88,2.91-9.21,5.94-3.64,4.74-4.18,10.1-3,15.81,.94,4.58,3.32,7.87,7.63,9.96,2.57,1.25,5.2,1.91,7.97,2.47,5.14,1.04,9.86,.13,14.34-2.35,2.65-1.46,2.6-1.54,.3-3.31-.74-.57-1.46-1.16-2.19-1.74-.69-.55-1.41-.67-2.18-.14-2.47,1.68-5.29,1.7-8.11,1.62-5.83-.16-11.45-5.24-11.51-10.47-.11-9.03,9.68-14.2,17.89-11.3,5.99,2.11,7.8,9.23,6.14,14.34-1.21,3.73-1.27,3.71,2.11,5.85,.18,.12,.38,.22,.53,.36,1.52,1.45,2.34,.67,3.35-.76,2.71-3.86,2.97-8.21,2.39-12.53-.6-4.45-2.38-8.53-6.33-11.28-3.87-2.69-8.2-3.7-13.06-3.39Zm.47,9.01c-.43,0-.87-.02-1.3,0-4.34,.27-9.26,4.55-9.57,8.29-.27,3.24,1.2,5.71,3.69,7.53,3.01,2.2,6.36,2.97,9.97,1.4,1.11-.48,1.33-1.02,.2-1.76-1.86-1.22-3.72-2.44-5.54-3.71-.88-.61-2.42-1.1-1.43-2.55,.89-1.3,1.94-.27,2.78,.32,2,1.4,4.18,2.53,6.04,4.15,.78,.68,1.73,1.29,2.5-.05,1.85-3.23,1.47-6.48-.25-9.58-1.5-2.69-3.93-4.06-7.08-4.04Zm45.67,38.15c1.38-.22,2.75-.64,4.21-.65,.89,0,2.24-.12,2.38-.99,.18-1.17-1.22-1.57-2.11-2.12-.46-.28-.97-.13-1.46,.01-1.38,.39-2.77,.74-4.14,1.17-.72,.23-1.9,.25-1.93,1.07-.03,.95,1.18,1.06,1.95,1.36,.32,.13,.7,.1,1.1,.15Zm-7.05,.12c.46,4.31,1.8,6.02,6.02,7.7-1.63-2.95-2.23-6.37-6.02-7.7Z"/>
    <g>
      <path class="cls-1" d="M49.63,6.01c1.25-1.35,2.88-2.83,4.96-4.2,.77-.5,1.52-.94,2.24-1.32-.75,2.98-1.51,5.95-2.26,8.93-.84,1.2-2.02,2.64-3.62,4.05-1.07,.95-2.12,1.69-3.06,2.27,.58-3.25,1.16-6.49,1.74-9.74h0Z"/>
      <path class="cls-1" d="M40.02,11.67c-.66-1.33-1.32-3-1.75-4.97-.16-.73-.28-1.43-.36-2.08,2.02,1.42,4.05,2.83,6.07,4.25,.67,.98,1.42,2.29,2.02,3.91,.41,1.09,.67,2.09,.84,2.97-2.28-1.36-4.55-2.72-6.83-4.08h0Z"/>
    </g>
  </g>
</svg>