<?xml version="1.0" encoding="UTF-8"?>
<svg id="Ebene_2" data-name="Ebene 2" xmlns="http://www.w3.org/2000/svg" viewBox="0 0 100 100.5">
  <defs>
    <style>
      .cls-1 {
        stroke: #ff6b35;
        stroke-linecap: round;
        stroke-linejoin: round;
      }

      .cls-1, .cls-2 {
        fill: #ff6b35;
      }
    </style>
  </defs>
  <g id="Ebene_1-2" data-name="Ebene 1">
    <g>
      <g>
        <path class="cls-2" d="M47.79,15.67c20.48-1.14,43.83,12.67,50.79,28.43,2.04,4.63,1.46,9.18,.8,13.99-1.07,7.85-3.84,15.06-8.26,22-5.41,8.49-13.23,14.85-23.89,18.97-4.5,1.74-9.23,1.57-13.78,1.17-17.83-1.57-33.7-6.38-44.7-18.87-4.23-4.8-5.6-10.39-7.31-15.9-3.04-9.79-.92-19.33,2.56-28.74,2.32-6.27,7-11.34,14.19-14.14,9.26-3.62,18.6-7.53,29.59-6.9Zm46.32,50.27c.91-3.06,2.27-9.11,.77-16.47-1.43-7-4.71-11.64-5.74-13.02-3.65-4.88-7.64-7.24-12.26-9.96-10.13-5.98-19.28-7.36-21.45-7.66-6.64-.91-11.98-.39-15.7,0-2.84,.3-6.36,.66-10.72,1.91-5.86,1.68-12.98,3.73-18.19,9.96-3.71,4.44-5,9.26-6.32,14.17-.56,2.09-1.43,5.44-1.53,9.96-.03,1.61-.04,6.38,1.72,12.26,.85,2.82,2.84,9.23,8.43,15.32,4.62,5.04,9.44,7.39,13.21,9.19,7.95,3.79,14.78,4.59,20.11,5.17,9.92,1.08,17.09,1.85,25.28-1.72,8.63-3.77,13.42-10.22,15.32-12.83,4.63-6.38,6.36-12.65,7.09-16.28Z"/>
        <path class="cls-2" d="M60.56,62.12c-3.64-.19-7.23-.25-10.91-.66-4.78-.53-7.49-2.61-9.83-5.52-1.28-1.59-2.4-3.26-3.54-4.92-3.63-5.32-6.3-11.09-11.41-15.73-1.76-1.6-2.65-3.72,.11-5.33,2.7-1.57,4.69-.37,6.2,1.58,3.29,4.26,6.48,8.56,8.86,13.23,3.68,7.24,10.27,12.82,21.59,11.22,1.93-.27,3.99,.14,5.99,.14,2.41,0,3.92,.64,3.55,2.86-.32,1.95-1.18,3.36-4.12,3.16-2.15-.14-4.33-.03-6.49-.03Z"/>
        <path class="cls-2" d="M15.26,60.99c-.82,0-1.32,.01-1.82,0-2.2-.06-4.36-.27-5.61-2.01-.44-.61-.19-1.37,.43-1.86,1.8-1.42,3.69-.53,5.56-.05,.47,.12,.97,.18,1.45,.26,1.92,.3,4.61,.32,4.26,2.47-.33,2.01-2.98,.94-4.28,1.2Z"/>
        <path class="cls-2" d="M55.17,86.75c-.24,1.42,.28,3.53-2.2,3.51-2.89-.02-2.16-2.29-2.17-3.78-.01-1.39-.71-3.67,1.57-3.75,2.84-.1,2.58,2.31,2.8,4.02Z"/>
        <path class="cls-2" d="M90.63,56.77c-.22,1.7-1.57,2.2-3.1,2.28-1.53,.08-3.27-.26-3.3-1.73-.04-1.75,1.95-1.87,3.57-2,1.47-.12,2.52,.36,2.83,1.45Z"/>
        <path class="cls-2" d="M48.31,23.53c2.86,1.8,4.37,3.41,3.31,5.86-.23,.52-1.02,.8-1.67,.47-2.82-1.45-2.42-3.57-1.63-6.33Z"/>
      </g>
      <g>
        <path class="cls-1" d="M52.27,5.96c1.25-1.33,2.89-2.81,4.97-4.16,.77-.5,1.53-.93,2.25-1.3-.76,2.95-1.51,5.9-2.27,8.84-.85,1.19-2.03,2.62-3.63,4.02-1.08,.94-2.13,1.67-3.07,2.25,.58-3.22,1.16-6.43,1.74-9.65h0Z"/>
        <path class="cls-1" d="M42.63,11.57c-.66-1.32-1.32-2.97-1.76-4.92-.16-.72-.28-1.41-.36-2.06,2.03,1.4,4.06,2.8,6.09,4.21,.67,.97,1.42,2.27,2.03,3.87,.41,1.08,.67,2.07,.85,2.95-2.28-1.35-4.57-2.69-6.85-4.04h0Z"/>
      </g>
    </g>
  </g>
</svg>