<?xml version="1.0" encoding="UTF-8"?>
<svg id="Ebene_2" data-name="Ebene 2" xmlns="http://www.w3.org/2000/svg" viewBox="0 0 100 100.5">
  <defs>
    <style>
      .cls-1 {
        stroke: #ff6b35;
        stroke-linecap: round;
        stroke-linejoin: round;
      }

      .cls-1, .cls-2 {
        fill: #ff6b35;
      }
    </style>
  </defs>
  <g id="Ebene_1-2" data-name="Ebene 1">
    <path class="cls-2" d="M42.12,100.5c-10.85-.59-21.77-.55-32.49-2.49-3.81-.69-6.45-2.9-7.61-6.58-1.13-3.59-2.36-7.08-1.95-10.96,.44-4.11,2.29-6.92,6.43-8.65,12.95-5.4,26.67-7.19,40.65-7.2,9.33,0,18.62-.68,27.94-.94,9.03-.25,21.88,7.94,24.27,16.54,1.01,3.63,.73,7.29-.36,10.83-.73,2.37-2.96,3.23-5.45,3.7-11.58,2.17-23.31,3.32-35.03,4.64-5.46,.61-10.91,1.1-16.42,1.1Zm-6.39-32.46c-6.7-.09-12.89,1.97-18.93,5.1-4.55,2.35-8.39,4.8-10.13,9.7-1.64,4.59,.37,9.12,5.29,10.56,1.3,.38,2.76,.54,3.78,1.44,1.68,1.49,3.24,1.29,5.22,.39,3.27-1.49,6.41-2.86,10.52-1.46,3.16,1.07,6.77,2.41,10.4,.87,5.51-2.33,11.45-2.67,17.35-2.96,6.57-.33,13.17,.39,19.74-.48,1.6-.21,3.3-.32,4.9,.21,4.46,1.48,8.49-.25,10.17-4.41,1.45-3.6-.29-9.3-4.11-11.62-6.54-3.97-13.28-7.65-21.64-6.76-1.26,.13-2.63,.23-3.74-.51-1.48-.97-3-.87-4.7-.71-2.64,.25-5.44,1.23-7.83-.87-.49-.43-1.21-.42-1.77,.03-.54,.44-.48,1-.38,1.64,.66,4.45,1.29,8.9,1.88,13.36,.19,1.38-.93,2.1-2.04,2.38-1.36,.35-1.67-.8-1.77-1.74-.44-4.32-1.64-8.56-1.5-12.92,.06-1.87-.69-2.43-2.6-2.16-2.62,.36-5.19,1.12-8.12,.92Z"/>
    <path class="cls-2" d="M48.52,55.73c-6.3,.09-11.2-2.74-15.36-6.93-1.62-1.63-2.92-3.35-5.47-4.21-3.55-1.2-4.23-5.62-1.55-7.97,.88-.77,.93-1.49,.89-2.47-.14-2.95-.17-5.91,.46-8.82,1.03-4.73,4.51-7.46,9.6-8.28,5.37-.86,10.77-1.11,16.17-1.46,3.49-.23,6.94,2.24,8.85,6.52,.87,1.94,1.76,3.89,2.04,6.03,.32,2.41,.65,4.68,3.29,6.24,1.73,1.03,.57,5.76-1.71,7.12-.86,.51-1.11,1.02-1.19,1.73-.63,5.91-4.74,9.12-10.19,11.13-1.82,.67-3.61,1.75-5.84,1.37Zm2.43-36.1c-4.8,.43-9.41,.32-13.87,1.42-1.99,.49-4.1,1.17-4.85,3.01-1.51,3.67-2.54,7.51-.92,11.43,.61,1.47,.13,2.41-1.17,3.25-1.84,1.19-1.86,2.41,.19,2.92,2.63,.67,4.09,2.41,5.78,4.05,1.84,1.79,3.89,3.37,6.2,4.61,6.03,3.22,15.48,.41,17.7-5.32,.62-1.61,1.28-3.16,2.23-4.63,.98-1.51,2.41-3.11-.37-4.5-.74-.37-.93-1.41-1.08-2.27-.36-2.01-.77-4.02-1.19-6.02-1.14-5.55-3.99-8.09-8.65-7.95Z"/>
    <path class="cls-2" d="M45.75,44.6c-.7-.14-1.24-.2-1.75-.36-1.49-.48-2.82-1.47-2.33-2.9,.51-1.49,2.16-1.2,3.48-.61,1.17,.53,2.42,.64,3.67,.8,.65,.08,1.24,.36,1.32,1.06,.08,.74-.5,1.04-1.13,1.21-1.12,.3-2.26,.56-3.27,.8Z"/>
    <path class="cls-2" d="M54.4,30.35c-.19,1.24-.5,2.59-2.29,2.59-1.55,0-2.19-1.13-2.31-2.42-.15-1.64,1.16-1.93,2.51-2.06,1.4-.13,1.99,.6,2.09,1.89Z"/>
    <path class="cls-2" d="M42.98,31.78c-.16,1.41-.94,2.16-2.33,2.07-1.36-.08-2.15-.91-2.13-2.17,.02-1.32,.91-1.98,2.29-1.96,1.5,.02,1.9,1.05,2.17,2.06Z"/>
    <g>
      <path class="cls-1" d="M48.12,5.95c1.25-1.33,2.89-2.8,4.97-4.15,.77-.5,1.53-.93,2.25-1.3-.76,2.94-1.51,5.88-2.27,8.82-.85,1.19-2.03,2.61-3.63,4.01-1.08,.94-2.13,1.67-3.07,2.24,.58-3.21,1.16-6.42,1.74-9.63h0Z"/>
      <path class="cls-1" d="M38.49,11.54c-.66-1.32-1.32-2.96-1.76-4.91-.16-.72-.28-1.41-.36-2.06,2.03,1.4,4.06,2.8,6.09,4.2,.67,.97,1.42,2.26,2.03,3.86,.41,1.07,.67,2.07,.85,2.94-2.28-1.34-4.57-2.69-6.85-4.03h0Z"/>
    </g>
  </g>
</svg>