<?xml version="1.0" encoding="UTF-8"?>
<svg id="Ebene_2" data-name="Ebene 2" xmlns="http://www.w3.org/2000/svg" viewBox="0 0 100 100">
  <defs>
    <style>
      .cls-1 {
        stroke: #ff6b35;
        stroke-linecap: round;
        stroke-linejoin: round;
      }

      .cls-1, .cls-2 {
        fill: #ff6b35;
      }
    </style>
  </defs>
  <g id="Ebene_1-2" data-name="Ebene 1">
    <g>
      <path class="cls-2" d="M37.3,64.44c-.95,1.6-.44,3.46-.86,5.12-.75,2.98-.86,6.13-1.18,9.21-.54,5.12-1.05,10.24-1.54,15.36-.13,1.42,1.06,2.82,.03,4.29-.37,.53,.15,1.88-1.12,1.5-.77-.23-1.51-.8-1.57-1.94-.1-1.93,.53-3.75,.61-5.68,.19-4.77,.67-9.53,1.43-14.26,.39-2.42,.33-4.92,.54-7.38,.17-1.98,.44-3.96,.85-5.84,.32-1.49-.1-1.54-1.15-1.66-2.28-.25-4.55,.02-6.82,.11-3.84,.15-7.71-.18-11.54,.11-3.6,.27-7.16,.23-10.74-.04-1.71-.13-3.28-.56-3.96-2.23-.8-1.97,.23-3.84,1.87-5.27,6.69-5.84,14.61-9.71,22.06-14.3,5.26-3.24,10.58-6.43,15.86-9.64,7.31-4.45,14.79-8.62,22.04-13.16,9.53-5.96,19.44-11.16,29.36-16.35,1.03-.54,2.1-.92,3.05-1.7,1.45-1.2,3.32-.76,4.72,.94,1.2,1.45,.92,2.78-.4,4.03-1.62,1.53-2.4,3.58-3.34,5.57-3.6,7.65-7.25,15.27-11.21,22.74-1.93,3.64-3.28,7.59-5.08,11.3-2.26,4.67-5,9.11-7.01,13.88-3.95,9.37-9.08,18.1-13.7,27.09-1.89,3.67-4.41,7.04-6.88,10.36-1.83,2.45-5.21,1.87-6.11-1.08-1.45-4.75-2.75-9.56-3.75-14.43-.88-4.26-1.76-8.51-2.93-12.68-.36-1.28,.08-2.93-1.54-3.95ZM95.83,5.49c-4.86,3.7-8.8,8.23-13.12,12.33-8.23,7.8-15.88,16.22-24.11,24.04-5.92,5.63-11.52,11.61-17.75,16.9-1.72,1.46-2.36,2.81-.63,4.73,.53,.59,.64,1.56,.97,2.34,2.7,6.49,2.69,13.65,4.82,20.28,.82,2.56,.76,5.36,1.77,7.87,.72,1.79,1.77,1.91,2.92,.41,.64-.84,1.09-1.83,1.71-2.69,5.27-7.31,9.02-15.51,13.22-23.45,2.11-3.99,3.87-8.19,5.87-12.24,1.76-3.55,3.76-6.97,5.43-10.55,2.08-4.48,4.03-9.02,6.22-13.45,4.32-8.73,8.81-17.38,12.67-26.52Zm-3.67-.09c-6.47,3.32-12.38,6.37-18.31,9.38-7.7,3.91-15.02,8.49-22.46,12.86-5.44,3.2-10.62,6.84-16.01,10.14-8.74,5.36-17.57,10.58-26.32,15.92-2.03,1.24-3.97,2.66-5.66,4.38-.87,.9-.94,1.69,.38,2.26,1.49,.64,2.99,1.26,4.65,1.05,7.25-.9,14.52-.42,21.78-.43,3.31,0,6.44,.04,8.51-3.2,.21-.33,.7-.47,1-.76,3.98-3.99,8.64-7.21,12.45-11.38,2.1-2.29,3.97-4.84,6.31-6.83,3.49-2.97,6.74-6.21,10.01-9.39,6.89-6.68,13.5-13.65,20.18-20.55,1-1.04,2.47-1.57,3.47-3.44Z"/>
      <g>
        <path class="cls-1" d="M44.61,17.16c.45-1.78,1.16-3.87,2.32-6.07,.43-.81,.88-1.56,1.33-2.23,.77,2.97,1.55,5.94,2.32,8.91-.16,1.46-.5,3.29-1.22,5.3-.48,1.35-1.04,2.5-1.58,3.46-1.06-3.12-2.12-6.25-3.17-9.37h0Z"/>
        <path class="cls-1" d="M38.92,26.75c-1.22-.85-2.6-1.99-3.93-3.51-.49-.56-.93-1.12-1.32-1.65,2.46,.26,4.91,.53,7.37,.79,1.06,.54,2.34,1.32,3.66,2.45,.88,.75,1.6,1.51,2.17,2.2-2.65-.09-5.3-.19-7.95-.28h0Z"/>
      </g>
    </g>
  </g>
</svg>